<?xml version="1.0" encoding="UTF-8"?>
<svg id="Capa_1" data-name="Capa 1" xmlns="http://www.w3.org/2000/svg" viewBox="0 0 250 150">
  <defs>
    <style>
      .cls-1 {
        fill: #f4a710;
      }

      .cls-2, .cls-3 {
        fill: #ffef00;
      }

      .cls-4, .cls-5 {
        fill: #371e0a;
      }

      .cls-6 {
        fill: #fff;
      }

      .cls-7 {
        fill: #ea7527;
      }

      .cls-8 {
        fill: #009cde;
      }

      .cls-3 {
        stroke: #371e0a;
        stroke-miterlimit: 10;
        stroke-width: 2.24px;
      }

      .cls-5 {
        font-family: OpenSans-Bold, 'Open Sans';
        font-size: 7.21px;
        font-weight: 700;
        letter-spacing: .05em;
      }
    </style>
  </defs>
  <g>
    <g>
      <path class="cls-4" d="M108.77,76.63c-.84-.35-1.68-.35-2.54-.03-.84.37-1.46.95-1.83,1.82-.35.84-.32,1.69,0,2.55.15.37.35.64.53.91,1.36,3.21-2.2,9.89-5.02,13.24-2.82,3.35-4.91,8.51-6.14,16.84,2.09-6.95,2.66-11.11,9.41-16.91,5.53-5.2,6.07-8.83,4.55-12.01.34,0,.72-.08,1.05-.25.84-.37,1.43-.96,1.78-1.81.37-.87.37-1.71.04-2.57-.37-.84-.96-1.43-1.84-1.79Z"/>
      <path class="cls-4" d="M66.52,24.53c-1.24-1.16-3.18-1.09-4.33.15-1.16,1.24-1.09,3.18.15,4.34,1.24,1.16,3.18,1.09,4.34-.15,1.16-1.24,1.09-3.18-.15-4.34ZM45.5,70.47c18.88,16.61,30.93-.94,55.33,17.64,10.04,7.65,3.58-38.19-14.81-55.36-18.38-17.16-41.4-21.66-50.49-12.89-2.75,2.65,7.24,1.34,15.21,3.35-.01.11-.02.23,0,.35.81,4.43-3.48,7.61-7.08,9.16-.84.36-.83,1.31-.38,1.85.05.34.24.67.62.88,3.41,1.86,5.05,6.24,4.42,9.94,0,.03,0,.06,0,.09-9.05,5.94-17.9,11.73-2.83,24.98ZM40.18,19.45c.09.6-.36,1.14-.94,1.28-.59.12-1.15-.17-1.41-.73-.25-.53.21-1.25.92-1.39.71-.17,1.34.25,1.43.84ZM44.04,57.85s7.65.21,10.39.17c2.68-.02,3.94,1.04,3.84,1.62-.1.59-1.52,1.15-4.12.52-2.78-.67-10.11-2.31-10.11-2.31ZM45.88,59.19c.55-.43,1.29-.48,1.64-.11.35.38.29,1.1-.17,1.62-.47.53-1.21.61-1.66.13-.45-.47-.36-1.2.19-1.63ZM52.18,64.55c-.27.36-.73.47-1.03.24-.3-.22-.32-.7-.05-1.06.27-.36.73-.46,1.03-.24.29.23.32.7.05,1.06ZM52.94,65.12c.22-.29.59-.38.84-.2.24.18.26.57.04.86s-.6.38-.84.2c-.24-.18-.26-.57-.04-.86ZM49.31,63.56c-.35-.28-.37-.83-.04-1.25.34-.42.88-.53,1.23-.26.35.27.36.83.04,1.25-.33.42-.88.54-1.23.26ZM55.27,53.24c-.28.13-.62-.05-.78-.38-.15-.33-.04-.71.23-.83.28-.12.62.05.77.38.15.33.04.71-.23.83ZM51.44,55.32c-.39.18-.9-.05-1.14-.53-.23-.48-.09-1.02.31-1.21.41-.19.92.05,1.14.53.22.48.08,1.02-.32,1.21ZM49.59,56.4c-.44.23-1.04-.02-1.34-.56-.3-.54-.17-1.17.31-1.42.47-.25,1.07,0,1.34.56.27.55.13,1.19-.3,1.42ZM47.87,57.55c-.43.28-1.14.06-1.58-.48-.44-.54-.36-1.27.18-1.63.54-.37,1.25-.12,1.59.5.33.6.22,1.32-.2,1.61ZM49.6,50.68c-1.09,2.16-5.37,6.73-5.46,6.59.16.06,3.41-5.2,3.89-7.41.71-2.04,1.84-2.74,2.28-2.52.43.22.51,1.49-.72,3.34ZM53.63,53.26c.18.41.06.86-.28,1.02-.34.15-.77-.05-.95-.46-.19-.41-.06-.87.28-1.02.34-.15.77.05.95.46ZM53.12,23.94c3.75,1.41,6.6,3.87,6.61,8.34,0,4.88-4.19,8.35-8.95,11.58.03-3.75-1.72-7.49-4.73-9.73,3.87-2.05,7.53-5.62,7.08-10.19ZM60.55,36.13c0-.36.33-.62.7-.58.38.04.64.35.58.71-.06.34-.37.61-.7.58-.33-.03-.59-.35-.58-.71ZM45.21,19.04c.01.73-.62,1.36-1.41,1.39-.79.05-1.48-.49-1.55-1.23-.07-.73.56-1.38,1.4-1.44.85-.04,1.54.53,1.56,1.27ZM50.25,19.12c-.06.86-.86,1.54-1.8,1.5-.94-.02-1.7-.73-1.71-1.61,0-.87.8-1.57,1.8-1.55,1,.05,1.77.78,1.71,1.66ZM55.27,19.72c-.2.98-1.19,1.65-2.24,1.5-1.05-.13-1.86-1.02-1.79-2.02.07-1.02,1.08-1.75,2.25-1.61,1.18.16,1.98,1.13,1.78,2.13ZM60.04,21.3c-.67.96-1.75,1.38-2.75,1.05-1.04-.32-1.8-1.42-1.59-2.54.22-1.13,1.49-1.84,2.88-1.4,1.43.46,2.12,1.97,1.46,2.9ZM62.93,36.48c.1-.43.54-.69.98-.56.44.13.69.57.55.98-.14.41-.58.66-.97.54-.4-.12-.65-.55-.55-.97ZM104.17,86.51c.02.06-.73-11.05-6.79-21.99-5.63-11.16-16.11-20.77-22.23-24.39-11.61-7.3-17.53-12.47-15.68-16.15,1.68-3.18,10.6-3.28,22.41,8.19,6.31,5.88,15.6,18.65,19.29,31.15,4.17,12.42,2.97,23.27,3,23.19ZM67.92,39.57c-.51-.26-.72-.91-.47-1.46.25-.55.91-.76,1.47-.47.56.27.75.97.45,1.48-.3.53-.94.69-1.46.44ZM69.58,39.24c.33-.58,1.12-.8,1.72-.41.6.39.77,1.16.37,1.72-.39.56-1.15.72-1.69.37-.54-.36-.74-1.08-.4-1.68ZM65.75,38.39c-.46-.19-.7-.71-.52-1.2.17-.48.73-.74,1.24-.54.49.22.72.78.5,1.25-.22.47-.76.69-1.22.49ZM91.86,71c-7.11-7.58-16.52-13.32-22.32-15.85-5.2-1.85-14.1-4.79-15.05-8.15-.65-1.34.23-4.11,4.45-5.63,4.11-1.46,10.76-.5,16.43,3.8,6.32,4.42,14.82,14.09,20.17,23.41,5.63,9.24,7.81,17.95,7.72,17.93.09-.03-4.06-8.14-11.4-15.52ZM62.8,57.97c.81.04,1.31.72,1.21,1.41-.1.71-.74,1.18-1.34,1.15-.63-.05-.97-.54-1.21-1.23-.25-.67.55-1.41,1.34-1.33ZM66.19,59.78c.18-.85,1.05-1.4,1.92-1.17.88.21,1.38,1.1,1.14,1.94-.24.84-1.09,1.31-1.91,1.12-.81-.22-1.33-1.03-1.15-1.89ZM76.37,65.44c-1.02-.47-1.51-1.71-1.06-2.82.44-1.1,1.74-1.62,2.89-1.09,1.15.53,1.6,1.87,1.02,2.93-.58,1.03-1.82,1.46-2.84.99ZM79.62,64.68c.65-1.2,2.22-1.59,3.5-.69,1.3.9,1.47,2.73.44,3.57-1.07.88-2.36,1.05-3.29.41-.93-.66-1.29-2.11-.65-3.29ZM74.33,62.24c-.38.96-1.43,1.44-2.37,1.12-.93-.34-1.46-1.36-1.15-2.35.3-.98,1.38-1.54,2.38-1.18,1.01.35,1.52,1.45,1.14,2.41ZM54.13,67.34c2.56-2.04,7.44-3.58,13.33-2.59,6.37.8,16.76,4.92,23.91,10.72,7.33,5.68,11.17,12.27,11.2,12.2-.01.07-5.24-5.76-13.17-9.56-7.81-4.06-17.75-5.44-22.49-4.79-9.05.86-12.46,1.99-15.11-.95-.66-.87-.3-3.01,2.32-5.02ZM47.51,60.83c.41-.46,1.06-.57,1.43-.24.38.32.37.97-.02,1.45-.39.48-1.03.59-1.43.24-.41-.35-.4-.99.02-1.45ZM46.91,66.67c-.39-2.34-2.9-8.04-2.97-8.03.06-.06,3.73,5.24,4.66,7.4,1.05,2.05.64,3.42.16,3.51-.51.1-1.38-.78-1.85-2.89ZM38.75,58.52c-.47-1.15.08-2.48,1.23-2.95,1.15-.48,2.48.08,2.95,1.23.48,1.15-.07,2.48-1.23,2.95-1.15.48-2.48-.08-2.95-1.23ZM55.04,72.08c1.11,1.03,2.84.98,3.88-.13,1.04-1.11.98-2.85-.13-3.88-1.11-1.04-2.85-.98-3.88.13-1.03,1.11-.97,2.84.14,3.88ZM62.82,43.4c-1.24-1.16-3.18-1.09-4.34.15-1.16,1.24-1.09,3.18.15,4.34,1.24,1.15,3.18,1.09,4.34-.15,1.16-1.24,1.09-3.18-.15-4.34Z"/>
      <g>
        <path class="cls-4" d="M67.78,69.78c.8.21,1.08.28,1.08.29.66.18.6.25-.13.15-.01-.4-8.3-.29-8.45-.14-.08-.18.32-.41.32-.41.62-.4,1.77-.66,2.48-.63,0-.04,2.52.17,4.7.74Z"/>
        <path class="cls-4" d="M89.34,74.89l-.32-.3c-.35-.32-.11-.21.52.25.13-.15,5.59,4.57,5.16,5l-.1.11c-.54-.24-1.32-.89-1.75-1.44,0,0-1.65-1.98-3.5-3.63Z"/>
        <path class="cls-4" d="M83.15,72.17c-1.24-.84-2.44-1.55-2.45-1.54-.63-.36-.53-.44.21-.18,1.6.6,3.17,1.27,4.69,2.04.72.33,1.74,1.04,2.29,1.5,0,0,.39.29,1.09.94,1.72,1.52,3.31,3.33,3.32,3.32.47.53.33.64-.31.28l-1.97-1.15c-.66-.34-1.6-1.02-2.11-1.5,0,.02-2.25-2.05-4.77-3.72Z"/>
        <g>
          <path class="cls-4" d="M76.57,70.47c-2.07-1.03-4.48-1.9-4.48-1.9-.69-.25-.61-.37.17-.26,1.59.22,3.16.54,4.72.92.76.22,1.92.63,2.54,1.01,0,.02,1.73.96,3.29,2.04,2.27,1.47,4.44,3.32,4.44,3.32.54.45.42.54-.26.21-1.23-.65-2.51-1.19-3.79-1.73-.7-.27-1.74-.79-2.32-1.19,0,.01-2.13-1.36-4.31-2.43Z"/>
          <path class="cls-4" d="M76.26,70.61c1.83.91,3.67,1.98,3.66,1.99.6.35.5.44-.21.2,0,0-.59-.21-1.58-.52-2.29-.73-5.25-1.37-5.25-1.35-.73-.16-1.86-.47-2.52-.67,0,0-1.03-.38-2.31-.69-2.02-.57-4.32-.74-4.32-.73-.73-.06-.71-.23.06-.39,1.56-.28,3.14-.42,4.71-.42.8-.02,2.01.22,2.68.45,0-.03,2.71.98,5.07,2.12Z"/>
        </g>
      </g>
      <g>
        <path class="cls-4" d="M72.1,51.44c.66.71.9.96.9.96.54.61.44.66-.25.13.1-.22-7.96-5.55-8.08-5.74.05-.29.6-.28.6-.28.89-.03,2.15.52,2.8,1.04.01,0,2.23,1.91,4.03,3.89Z"/>
        <path class="cls-4" d="M93.1,66.57c-.23-.46-.23-.46-.23-.46-.24-.49-.01-.29.51.45.19-.11,4.15,7.41,3.25,7.78l-.21.1c-.52-.47-1.05-1.5-1.25-2.3,0,.01-.84-2.9-2.07-5.57Z"/>
        <path class="cls-4" d="M87.39,61.18c-.89-1.52-1.84-2.84-1.83-2.85-.47-.7-.32-.78.36-.16,1.44,1.34,2.82,2.75,4.16,4.2.6.69,1.45,1.85,1.8,2.63,0,0,.26.53.74,1.53,1.16,2.44,2.04,5.13,2.02,5.13.26.78,0,.88-.57.25-.58-.67-1.09-1.36-1.73-1.97-.59-.63-1.27-1.77-1.64-2.48.02,0-1.44-3.28-3.32-6.28Z"/>
        <g>
          <path class="cls-4" d="M81.01,56.54c-1.61-2.18-3.54-4.46-3.54-4.46-.55-.65-.38-.77.37-.26,1.52,1.04,3,2.14,4.47,3.25.71.58,1.69,1.62,2.16,2.3,0,.01,1.3,1.92,2.45,3.82,1.69,2.68,3.17,5.68,3.16,5.68.36.74.16.82-.44.2-1.09-1.18-2.26-2.29-3.45-3.38-.65-.58-1.49-1.66-1.94-2.33,0,0-1.57-2.54-3.26-4.83Z"/>
          <path class="cls-4" d="M80.56,56.61c1.42,1.93,2.83,4,2.81,4.01.45.68.28.77-.38.19,0,0-.53-.5-1.46-1.27-2.11-1.84-4.9-4.01-4.9-4.01-.69-.54-1.67-1.5-2.21-2.1,0,.01-.82-1.02-1.89-2.13-1.65-1.83-3.69-3.58-3.7-3.57-.65-.55-.5-.76.36-.45,1.72.66,3.34,1.46,4.95,2.29.82.41,1.89,1.34,2.44,1.97.01-.01,2.15,2.58,3.98,5.07Z"/>
        </g>
      </g>
      <g>
        <path class="cls-4" d="M77.12,35.42c.8.96,1.08,1.3,1.08,1.3.64.83.52.83-.28.03.21-.28-9.58-8.41-9.81-8.31.06-.24.75-.09.75-.09,1.1.22,2.6,1.13,3.37,1.85.03-.03,2.71,2.57,4.88,5.22Z"/>
        <path class="cls-4" d="M99.06,60.69l-.19-.62c-.21-.67,0-.34.46.74.24-.08,3.53,10.19,2.82,10.38l-.18.06c-.47-.74-.99-2.18-1.16-3.22.04-.01-.69-3.8-1.73-7.33Z"/>
        <path class="cls-4" d="M93.67,52.1c-.87-2.06-1.83-3.91-1.84-3.9-.49-.96-.33-.97.37,0,1.46,2.09,2.86,4.23,4.1,6.46.57,1.04,1.39,2.69,1.67,3.74,0,0,.22.7.65,2.06.98,3.27,1.78,6.79,1.74,6.8.19,1.05-.05,1.08-.52.07-.48-1.05-1.06-2.06-1.58-3.08-.48-1.02-1.16-2.64-1.48-3.62.02,0-1.26-4.42-3.12-8.52Z"/>
        <g>
          <path class="cls-4" d="M87.09,44.28c-1.74-3-3.97-6.09-3.98-6.08-.63-.88-.45-.94.39-.11,1.72,1.67,3.34,3.43,4.91,5.23.75.93,1.84,2.4,2.3,3.38-.03.02,1.41,2.59,2.5,5.21,1.68,3.68,3.02,7.75,3,7.76.32,1.01.13,1.01-.42.01-1-1.86-2.17-3.63-3.31-5.4-.65-.94-1.5-2.49-1.93-3.44-.02.02-1.6-3.46-3.46-6.57Z"/>
          <path class="cls-4" d="M86.62,44.15c1.56,2.63,3.01,5.49,3,5.5.48.94.3.95-.38.03,0,0-.56-.77-1.51-2.02-2.25-2.88-5.31-6.32-5.34-6.29-.79-.82-1.89-2.23-2.54-3.04-.02.02-.96-1.37-2.24-2.86-1.96-2.46-4.45-4.83-4.45-4.83-.79-.74-.61-.89.39-.3,2.02,1.21,3.91,2.59,5.76,4.03.94.71,2.17,2.08,2.82,2.92,0,0,2.49,3.48,4.5,6.86Z"/>
        </g>
      </g>
      <g>
        <path class="cls-4" d="M34.14,120.64c.57,1.56,4.02,2.21,8.97-1.55,4.5-3.51,3.75-17.58,14.11-18.21-1.13,2.22-.5,5.84-.16,7.34-.78.5-1.6,1.23-2.29,2.28-2.01,2.72-3.14,6.52-3.51,8.71-.79,4.2,1.91,6.35,2.89,5.63,1.07-.72,2.02-2.17,1.42-5.44-.34-1.69-.4-5.2.61-8.04.27-.96.72-1.74,1.21-2.35.76.49,4.18,2.48,8.68,1.47,1.69-.38,3.37-1.3,4.99-2.57-2.1,2.11-3.87,6.86-.93,9.83,4.18,4.22,12.14,2.34,13.39-1.85,4.99-16.75,16.19-12.98,20.03-26.91h.02s.07-.02.07-.02c-.01-.01-.03-.03-.04-.04,0-.02.01-.04.02-.05h-.06s0,0,0,0c0,0,0-.01,0-.02l.07-.02s-.03-.03-.04-.04c0-.02.01-.04.02-.05l-.06.02h-.03c-23.58-11.7-27.06-12.92-34.95-11.15-5.72,1.28-8.1,5.85-2.5,7.88-2.01-.46-3.92-.58-5.61-.2-4.68,1.05-7.2,8.03-7.6,9.23-2.39-.15-5.85-.45-6.91-1.41-1.58-1.09-2.8-1.47-3.59-.93-.63.28-.72,2.8,2.49,3.69,2.17.62,5.82-.15,8.17-.7.5,1,1.89,3.31,4.26,4.02-8.73.5-10.9,13.71-15.92,16.45-4.67-.77-7.94,3.85-7.19,5.04ZM90.57,87.8c-4.64-.87-8.6-1.24-12.58-1.42-5.48.45-8.15-2.2-8.11-4.05.04-1.79,3.19-4.1,8.99-2.48,3.07.86,8.56,2.64,12.97,4.92,4.52,2.16,7.32,5.3,7.27,5.28.02-.03-3.85-1.52-8.54-2.25ZM98.54,90.78c-.01-.1-5.43-.7-11.64.62-6.21,1.11-13.2,3.17-16.78,4.52-6.96,2.63-11.38.01-11.87-2.37-.48-2.34,2.73-6.2,10.56-6.26,4.17-.03,11.7.05,18.16.79,6.52.52,11.64,2.64,11.56,2.7ZM75.71,104.67c2.55-3.15,8.26-7.1,13.39-8.9,5.1-1.95,9.35-3.35,9.34-3.4.04.03-3.88,2.91-7.79,6.29-4.03,3.32-7.09,8.07-7.69,10.69-1.24,4.78-4.6,6.6-7.12,6.33-2.22-.16-5.12-4.97-.14-11.02ZM69.26,96.84c3.94-1.47,11.15-3.58,17.46-4.52,6.32-1.02,11.6-.75,11.59-.77,0,.01-5.24,1.24-10.8,3.93-5.6,2.63-11.47,6.54-14.23,8.92-5.39,4.57-9.79,3.91-11.44,2.17-1.63-1.71-.03-7.05,7.43-9.73Z"/>
        <path class="cls-4" d="M66.55,100.39c1.31-.79,2.92-.32,3.6.93.68,1.27.24,2.81-.91,3.5-1.13.68-2.59.33-3.5-.78-.91-1.11-.51-2.86.81-3.65Z"/>
        <path class="cls-4" d="M71.58,97.99c1.15-.59,2.54-.11,3.08,1.03.54,1.14.07,2.49-1.02,3.05-1.1.55-2.45.12-3.06-.99-.6-1.1-.16-2.51,1-3.09Z"/>
        <path class="cls-4" d="M76.65,95.93c1.01-.46,2.19,0,2.62,1.01.43,1.01-.02,2.15-1,2.6-.98.43-2.14,0-2.6-.98-.46-.98-.03-2.17.99-2.62Z"/>
        <path class="cls-4" d="M81.79,94.09c.87-.35,1.85.09,2.16.96.32.87-.11,1.81-.95,2.15-.84.32-1.8-.07-2.15-.93-.35-.85.06-1.83.94-2.17Z"/>
        <path class="cls-4" d="M87.09,92.56c.77-.21,1.53.22,1.69.95.16.74-.25,1.46-.93,1.66-.69.22-1.44-.19-1.68-.9-.24-.72.17-1.47.92-1.71Z"/>
        <path class="cls-4" d="M65.58,94.89c-1.36.34-2.77-.53-3.16-1.94-.39-1.4.49-2.84,1.96-3.21,1.47-.33,2.9.59,3.18,2.01.29,1.44-.61,2.82-1.98,3.13Z"/>
        <path class="cls-4" d="M70.74,93.54c-1.23.22-2.43-.63-2.69-1.87-.26-1.27.59-2.48,1.89-2.71,1.3-.25,2.5.65,2.69,1.92.19,1.27-.67,2.43-1.89,2.67Z"/>
        <path class="cls-4" d="M75.99,92.43c-1.08.11-2.08-.62-2.24-1.73-.16-1.09.62-2.14,1.75-2.26,1.13-.13,2.13.66,2.24,1.76.11,1.1-.67,2.1-1.75,2.23Z"/>
        <path class="cls-4" d="M81.3,91.59c-.92.08-1.73-.62-1.81-1.55-.08-.94.62-1.75,1.57-1.84.95-.07,1.77.66,1.82,1.59.04.94-.66,1.72-1.58,1.79Z"/>
        <path class="cls-4" d="M85.26,89.7c-.02-.76.59-1.39,1.37-1.4.78,0,1.41.6,1.39,1.37-.01.76-.63,1.39-1.37,1.4-.75,0-1.37-.6-1.39-1.37Z"/>
        <path class="cls-4" d="M76.07,84.59c-.96-.05-1.72-.91-1.71-1.94.01-1.02.9-1.81,1.98-1.75,1.07.1,1.83,1.01,1.71,2.02-.12,1.02-1.01,1.76-1.97,1.67Z"/>
        <path class="cls-4" d="M79.76,84.8c-.86-.13-1.47-.95-1.37-1.84.1-.89.94-1.51,1.86-1.38.93.12,1.53,1.01,1.36,1.88-.17.9-.99,1.45-1.85,1.34Z"/>
        <path class="cls-4" d="M83.45,85.28c-.73-.18-1.21-.91-1.07-1.67.15-.77.91-1.27,1.69-1.08.78.18,1.26.94,1.06,1.7-.2.75-.95,1.22-1.68,1.05Z"/>
        <path class="cls-4" d="M87.11,86.03c-.61-.18-.97-.83-.79-1.46.18-.63.85-.99,1.5-.81.65.21.99.9.77,1.52-.22.62-.88.94-1.48.75Z"/>
        <path class="cls-4" d="M91.44,85.34c.51.22.73.78.51,1.27-.23.48-.8.71-1.28.51-.47-.2-.7-.77-.51-1.27.19-.5.77-.73,1.28-.51Z"/>
        <path class="cls-4" d="M78.92,108c1.04.65,1.45,1.92.97,2.85-.35.96-1.61,1.47-2.78,1.16-1.18-.31-1.74-1.64-1.24-2.97.62-1.24,2.02-1.68,3.05-1.04Z"/>
        <path class="cls-4" d="M78.69,104.88c.68-.96,2-1.03,2.78-.33.82.72.88,1.87.32,2.67-.56.79-1.76.98-2.67.42-.92-.56-1.11-1.79-.43-2.75Z"/>
        <path class="cls-4" d="M82.1,101.44c.7-.68,1.77-.67,2.39.04.6.68.58,1.74-.04,2.36-.64.61-1.69.6-2.36,0-.7-.64-.7-1.71,0-2.39Z"/>
        <path class="cls-4" d="M85.84,98.52c.65-.48,1.55-.36,2.01.27.46.63.34,1.51-.27,1.96-.6.46-1.46.39-1.97-.22-.5-.59-.42-1.52.22-2.02Z"/>
        <path class="cls-4" d="M89.81,96.04c.55-.36,1.26-.21,1.6.33.34.54.18,1.26-.34,1.6-.52.34-1.23.19-1.59-.34-.36-.53-.21-1.24.33-1.6Z"/>
      </g>
    </g>
    <g>
      <path class="cls-4" d="M49.6,50.67c1.22-1.85,1.15-3.11.72-3.34-.44-.23-1.57.48-2.28,2.52-.49,2.21-3.73,7.47-3.89,7.41.09.14,4.37-4.44,5.46-6.59Z"/>
      <path class="cls-4" d="M52.67,52.79c-.34.15-.47.61-.28,1.02.19.41.61.61.95.46.34-.15.47-.61.28-1.02-.18-.41-.61-.62-.95-.46Z"/>
      <path class="cls-4" d="M50.61,53.57c-.4.19-.54.73-.31,1.21.23.48.74.72,1.14.53.4-.19.54-.73.32-1.21-.22-.48-.73-.72-1.14-.53Z"/>
      <path class="cls-4" d="M49.59,56.39c.44-.23.57-.86.3-1.42-.27-.55-.87-.8-1.34-.56-.47.25-.61.88-.31,1.42.3.54.9.78,1.34.56Z"/>
      <path class="cls-2" d="M59.73,32.32c0-4.46-2.86-6.93-6.61-8.34.45,4.57-3.21,8.13-7.08,10.19,3.01,2.24,4.76,5.98,4.73,9.73,4.76-3.23,8.96-6.7,8.95-11.58Z"/>
      <path class="cls-2" d="M57.28,22.39c1.01.33,2.08-.09,2.75-1.05.66-.93-.04-2.44-1.46-2.9-1.39-.43-2.66.27-2.88,1.4-.21,1.12.55,2.22,1.59,2.54Z"/>
      <path class="cls-4" d="M46.48,55.43c-.54.36-.62,1.09-.18,1.63.44.54,1.15.76,1.58.48.42-.29.52-1.01.2-1.61-.34-.62-1.05-.87-1.59-.5Z"/>
      <path class="cls-2" d="M53.03,21.26c1.05.15,2.04-.52,2.24-1.5.2-1-.6-1.96-1.78-2.13-1.17-.14-2.18.59-2.25,1.61-.07,1,.73,1.89,1.79,2.02Z"/>
      <path class="cls-4" d="M49.28,62.31c-.33.42-.32.97.04,1.25.35.28.9.16,1.23-.26.33-.42.31-.98-.04-1.25-.34-.27-.89-.15-1.23.26Z"/>
      <path class="cls-4" d="M58.26,59.64c.09-.58-1.17-1.65-3.84-1.62-2.73.03-10.39-.17-10.39-.17,0,0,7.32,1.65,10.11,2.31,2.6.63,4.02.08,4.12-.52Z"/>
      <path class="cls-4" d="M43.94,58.64c.07-.01,2.58,5.69,2.97,8.03.48,2.11,1.35,2.99,1.85,2.89.47-.09.88-1.47-.16-3.51-.94-2.16-4.61-7.46-4.66-7.4Z"/>
      <path class="cls-4" d="M39.98,55.56c-1.15.47-1.7,1.8-1.23,2.95.48,1.15,1.8,1.71,2.95,1.23,1.15-.47,1.7-1.8,1.23-2.95-.47-1.15-1.8-1.7-2.95-1.23Z"/>
      <path class="cls-4" d="M52.18,64.54c.27-.36.25-.83-.05-1.06-.3-.22-.76-.12-1.03.24-.27.36-.25.83.05,1.06.3.23.76.12,1.03-.24Z"/>
      <path class="cls-2" d="M61.13,36.89c.33.03.65-.23.7-.58.06-.36-.2-.67-.58-.71-.38-.04-.7.22-.7.58-.01.36.25.67.58.71Z"/>
      <path class="cls-4" d="M47.52,59.08c-.36-.37-1.09-.32-1.64.11-.55.43-.64,1.16-.19,1.63.45.48,1.19.4,1.66-.13.45-.52.51-1.24.17-1.62Z"/>
      <path class="cls-4" d="M48.92,62.03c.39-.48.39-1.13.02-1.45-.37-.32-1.02-.21-1.43.24-.41.45-.42,1.1-.02,1.45.4.35,1.04.24,1.43-.24Z"/>
      <path class="cls-4" d="M52.94,65.12c-.22.29-.2.68.04.86.24.18.62.1.84-.2s.2-.68-.04-.86c-.24-.18-.62-.09-.84.2Z"/>
      <path class="cls-2" d="M43.65,17.81c-.84.05-1.47.7-1.4,1.44.07.74.76,1.28,1.55,1.23.79-.03,1.42-.66,1.41-1.39-.02-.74-.71-1.31-1.56-1.27Z"/>
      <path class="cls-2" d="M63.48,37.49c.4.12.84-.13.97-.54.14-.42-.11-.86-.55-.98-.44-.14-.88.12-.98.56-.09.42.15.84.55.97Z"/>
      <path class="cls-2" d="M38.74,18.66c-.71.14-1.17.85-.92,1.39.26.56.81.85,1.41.73.59-.14,1.03-.68.94-1.28-.09-.59-.72-1.01-1.43-.84Z"/>
      <path class="cls-2" d="M69.97,40.97c.55.35,1.3.19,1.69-.37.39-.56.22-1.33-.37-1.72-.59-.4-1.38-.18-1.72.41-.34.6-.14,1.32.4,1.68Z"/>
      <path class="cls-8" d="M104.2,79.2c-.25-4.21-1.01-9.83-3.03-15.82-3.69-12.51-12.98-25.27-19.29-31.15-11.81-11.46-20.72-11.37-22.41-8.19-1.85,3.68,4.07,8.85,15.68,16.15,6.11,3.62,16.6,13.23,22.23,24.39,6.06,10.93,6.81,22.05,6.79,21.99-.01.04.24-2.27.1-6-.11-.45-.14-.91-.07-1.36ZM66.66,28.92c-1.16,1.24-3.1,1.3-4.34.15-1.24-1.16-1.3-3.1-.15-4.34,1.15-1.24,3.1-1.31,4.33-.15,1.24,1.16,1.31,3.1.15,4.34ZM77.92,36.79c.21-.28-9.58-8.41-9.81-8.31.06-.24.75-.09.75-.09,1.1.22,2.6,1.13,3.37,1.85.03-.03,2.71,2.57,4.88,5.22.8.96,1.08,1.3,1.08,1.3.64.83.52.83-.28.03ZM89.23,49.73s-.56-.77-1.51-2.02c-2.25-2.88-5.31-6.32-5.34-6.29-.79-.82-1.89-2.23-2.54-3.04-.02.02-.96-1.37-2.24-2.86-1.96-2.46-4.45-4.83-4.45-4.83-.79-.74-.61-.89.39-.3,2.02,1.21,3.91,2.59,5.76,4.03.94.71,2.17,2.08,2.82,2.92,0,0,2.49,3.48,4.5,6.86,1.56,2.63,3.01,5.49,3,5.5.48.94.3.95-.38.03ZM95.79,59.73c-1-1.86-2.17-3.63-3.31-5.4-.65-.94-1.5-2.49-1.93-3.44-.02.02-1.6-3.46-3.46-6.57-1.74-3-3.97-6.09-3.98-6.08-.63-.88-.45-.94.39-.11,1.72,1.67,3.34,3.43,4.91,5.23.75.93,1.84,2.4,2.3,3.38-.03.02,1.41,2.59,2.5,5.21,1.68,3.68,3.02,7.75,3,7.76.32,1.01.13,1.01-.42.01ZM99.84,67.38c-.48-1.05-1.06-2.06-1.58-3.08-.48-1.02-1.16-2.64-1.48-3.62.02,0-1.26-4.42-3.12-8.52-.87-2.06-1.83-3.91-1.84-3.9-.49-.96-.33-.97.37,0,1.46,2.09,2.86,4.23,4.1,6.46.57,1.04,1.39,2.69,1.67,3.74,0,0,.22.7.65,2.06.98,3.27,1.78,6.79,1.74,6.8.19,1.05-.05,1.08-.52.07ZM102.13,71.24l-.18.06c-.47-.74-.99-2.18-1.16-3.22.04-.01-.69-3.8-1.73-7.33l-.19-.62c-.21-.67,0-.34.46.74.24-.08,3.53,10.19,2.82,10.38Z"/>
      <path class="cls-2" d="M97.67,85.92c-4.57-3.04-8.71-4.82-12.54-5.86,3.26,1.38,7.3,3.29,12.54,5.86Z"/>
      <path class="cls-2" d="M67.91,39.61c.52.25,1.15.08,1.46-.44.3-.51.11-1.21-.45-1.48-.56-.29-1.22-.07-1.47.47-.25.54-.04,1.2.47,1.46Z"/>
      <path class="cls-2" d="M48.54,17.51c-1-.02-1.81.68-1.8,1.55,0,.87.77,1.59,1.71,1.61.94.04,1.74-.64,1.8-1.5.06-.88-.71-1.61-1.71-1.66Z"/>
      <path class="cls-1" d="M89.41,78.15c7.92,3.8,13.15,9.63,13.17,9.56-.03.08-3.88-6.51-11.2-12.2-7.15-5.81-17.55-9.93-23.91-10.72-5.9-.99-10.78.55-13.33,2.59-2.62,2.01-2.98,4.15-2.32,5.02,2.65,2.94,6.06,1.81,15.11.95,4.75-.65,14.69.73,22.49,4.79ZM89.53,74.89c.13-.15,5.59,4.57,5.16,5l-.1.11c-.54-.24-1.32-.89-1.75-1.44,0,0-1.65-1.98-3.5-3.63l-.32-.3c-.35-.32-.11-.21.52.25ZM80.91,70.5c1.6.6,3.17,1.27,4.69,2.04.72.33,1.74,1.04,2.29,1.5,0,0,.39.29,1.09.94,1.72,1.52,3.31,3.33,3.32,3.32.47.53.33.64-.31.28l-1.97-1.15c-.66-.34-1.6-1.02-2.11-1.5,0,.02-2.25-2.05-4.77-3.72-1.24-.84-2.44-1.55-2.45-1.54-.63-.36-.54-.44.21-.18ZM72.26,68.36c1.59.22,3.16.54,4.72.92.76.22,1.92.63,2.54,1.01,0,.02,1.73.96,3.29,2.04,2.27,1.47,4.44,3.32,4.44,3.32.54.45.42.54-.26.21-1.23-.65-2.51-1.19-3.79-1.73-.7-.27-1.74-.79-2.32-1.19,0,.01-2.13-1.36-4.31-2.43-2.07-1.03-4.48-1.9-4.48-1.9-.69-.25-.61-.37.17-.26ZM58.91,72c-1.03,1.11-2.77,1.17-3.88.13-1.11-1.04-1.17-2.77-.14-3.88,1.04-1.11,2.77-1.17,3.88-.13,1.11,1.03,1.17,2.77.13,3.88ZM68.73,70.27c-.01-.4-8.3-.29-8.45-.14-.08-.18.32-.41.32-.41.62-.4,1.77-.66,2.48-.63,0-.04,2.52.17,4.7.74.8.21,1.08.28,1.08.29.66.18.6.25-.13.15ZM68.05,69.62c-2.02-.57-4.32-.74-4.32-.73-.73-.06-.71-.23.06-.39,1.56-.28,3.14-.42,4.71-.42.8-.02,2.01.22,2.68.45,0-.03,2.71.98,5.07,2.12,1.83.91,3.67,1.98,3.66,1.99.6.35.5.44-.21.2,0,0-.59-.21-1.58-.52-2.29-.73-5.25-1.37-5.25-1.35-.73-.16-1.86-.47-2.52-.67,0,0-1.03-.38-2.31-.69Z"/>
      <path class="cls-2" d="M70.81,61.06c-.31.99.22,2.01,1.15,2.35.94.32,1.99-.16,2.37-1.12.38-.96-.13-2.06-1.14-2.41-1-.37-2.08.2-2.38,1.18Z"/>
      <path class="cls-2" d="M61.45,59.34c.25.7.59,1.18,1.21,1.23.6.03,1.24-.44,1.34-1.15.1-.69-.4-1.37-1.21-1.41-.79-.08-1.59.66-1.34,1.33Z"/>
      <path class="cls-4" d="M54.73,52.03c-.28.13-.38.5-.23.83.15.33.5.5.78.38.28-.12.38-.5.23-.83-.15-.33-.5-.5-.77-.38Z"/>
      <path class="cls-2" d="M68.1,58.65c-.87-.23-1.74.32-1.92,1.17-.18.85.34,1.67,1.15,1.89.82.2,1.66-.28,1.91-1.12.24-.83-.26-1.72-1.14-1.94Z"/>
      <path class="cls-2" d="M78.19,61.58c-1.15-.53-2.45-.01-2.89,1.09-.45,1.11.05,2.36,1.06,2.82,1.02.47,2.26.04,2.84-.99.58-1.05.13-2.39-1.02-2.93Z"/>
      <path class="cls-8" d="M54.49,47.04c.95,3.37,9.85,6.3,15.05,8.15,5.8,2.53,15.22,8.27,22.32,15.85,7.34,7.37,11.5,15.49,11.4,15.52.09.02-2.1-8.7-7.72-17.93-5.36-9.32-13.86-18.99-20.17-23.41-5.67-4.3-12.32-5.26-16.43-3.8-4.22,1.51-5.11,4.29-4.45,5.63ZM93.37,66.61c.19-.11,4.15,7.41,3.25,7.78l-.21.1c-.52-.47-1.05-1.5-1.25-2.3,0,.01-.84-2.9-2.07-5.57-.23-.46-.23-.46-.23-.46-.24-.49-.01-.29.51.45ZM85.92,58.22c1.44,1.34,2.82,2.75,4.16,4.2.6.69,1.45,1.85,1.8,2.63,0,0,.26.53.74,1.53,1.16,2.44,2.04,5.13,2.02,5.13.26.78,0,.88-.57.25-.58-.67-1.09-1.36-1.73-1.97-.59-.63-1.27-1.77-1.64-2.48.02,0-1.44-3.28-3.32-6.28-.89-1.52-1.84-2.84-1.83-2.85-.47-.7-.32-.78.36-.15ZM77.84,51.88c1.52,1.04,3,2.14,4.47,3.25.71.58,1.69,1.62,2.16,2.3,0,.01,1.3,1.92,2.45,3.82,1.69,2.68,3.17,5.68,3.16,5.68.36.74.16.82-.44.2-1.09-1.18-2.26-2.29-3.45-3.38-.65-.58-1.49-1.66-1.94-2.33,0,0-1.57-2.54-3.26-4.83-1.61-2.18-3.54-4.46-3.54-4.46-.55-.65-.38-.77.37-.26ZM69.18,47.34c1.72.66,3.34,1.46,4.95,2.29.82.41,1.89,1.34,2.44,1.97.01-.01,2.15,2.58,3.98,5.07,1.42,1.93,2.83,4,2.81,4.01.45.68.28.77-.38.19,0,0-.53-.5-1.46-1.27-2.11-1.84-4.9-4.01-4.9-4.01-.69-.54-1.67-1.5-2.21-2.1,0,.01-.82-1.02-1.89-2.13-1.65-1.83-3.69-3.58-3.7-3.57-.65-.55-.5-.76.36-.45ZM65.26,46.56c.89-.03,2.15.52,2.8,1.04.01,0,2.23,1.91,4.03,3.89.66.71.9.96.9.96.54.61.44.66-.25.13.1-.22-7.96-5.55-8.08-5.74.05-.29.6-.28.6-.28ZM62.82,43.44c1.24,1.16,1.3,3.1.15,4.34-1.15,1.24-3.1,1.3-4.34.15-1.24-1.16-1.3-3.1-.15-4.34,1.16-1.24,3.1-1.31,4.34-.15Z"/>
      <path class="cls-2" d="M80.27,68.02c.93.64,2.22.47,3.29-.41,1.03-.84.87-2.67-.44-3.57-1.28-.9-2.85-.51-3.5.69-.64,1.18-.29,2.64.65,3.29Z"/>
      <path class="cls-2" d="M65.75,38.43c.45.2,1-.02,1.22-.49.22-.47,0-1.03-.5-1.25-.5-.21-1.06.05-1.24.54-.18.49.06,1.01.52,1.2Z"/>
      <path class="cls-7" d="M75.71,104.71c-4.98,6.04-2.09,10.86.14,11.02,2.52.27,5.88-1.55,7.12-6.33.6-2.62,3.66-7.37,7.69-10.69,3.91-3.38,7.82-6.26,7.79-6.29,0,.05-4.24,1.45-9.34,3.4-5.13,1.8-10.83,5.75-13.39,8.9ZM79.89,110.9c-.35.96-1.61,1.47-2.78,1.16-1.18-.31-1.74-1.64-1.24-2.97.62-1.24,2.02-1.68,3.05-1.04,1.04.65,1.45,1.92.97,2.85ZM81.8,107.26c-.56.79-1.76.98-2.67.42-.92-.56-1.11-1.79-.43-2.75.68-.96,2-1.03,2.78-.33.82.72.88,1.87.32,2.67ZM84.45,103.89c-.64.61-1.69.6-2.36,0-.7-.64-.7-1.71,0-2.39.7-.68,1.77-.67,2.39.04.6.68.58,1.74-.04,2.36ZM87.58,100.8c-.6.46-1.46.39-1.97-.22-.5-.59-.42-1.52.22-2.02.65-.48,1.55-.36,2.01.27.46.63.34,1.51-.27,1.96ZM89.81,96.08c.55-.36,1.26-.21,1.6.33.34.54.18,1.26-.34,1.6-.52.34-1.23.19-1.59-.34-.36-.53-.21-1.24.33-1.6Z"/>
      <path class="cls-1" d="M91.84,84.82c-4.41-2.28-9.9-4.06-12.97-4.92-5.8-1.62-8.95.69-8.99,2.48-.04,1.85,2.62,4.5,8.11,4.05,3.99.19,7.94.55,12.58,1.42,4.69.73,8.56,2.22,8.54,2.25.05.02-2.75-3.12-7.27-5.28ZM76.06,84.64c-.96-.05-1.72-.91-1.71-1.94.01-1.02.9-1.81,1.98-1.75,1.07.1,1.83,1.01,1.71,2.02-.12,1.02-1.01,1.76-1.97,1.67ZM81.61,83.51c-.17.9-.99,1.45-1.85,1.34-.86-.13-1.47-.95-1.37-1.84.1-.89.94-1.51,1.86-1.38.93.12,1.53,1.01,1.36,1.88ZM85.14,84.28c-.2.75-.95,1.22-1.68,1.05-.73-.18-1.21-.91-1.07-1.67.15-.77.91-1.27,1.69-1.08.78.18,1.26.94,1.06,1.7ZM88.59,85.33c-.22.62-.88.94-1.48.75-.61-.18-.97-.83-.79-1.46.18-.63.85-.99,1.5-.81.65.21.99.9.77,1.52ZM91.95,86.65c-.23.48-.8.71-1.28.51-.47-.2-.7-.77-.51-1.27.19-.5.77-.73,1.28-.51.51.22.73.78.51,1.27Z"/>
      <path class="cls-7" d="M98.3,91.61s-5.26-.26-11.59.77c-6.31.94-13.52,3.05-17.46,4.52-7.46,2.69-9.05,8.02-7.43,9.73,1.65,1.74,6.05,2.39,11.44-2.17,2.76-2.38,8.63-6.29,14.23-8.92,5.56-2.69,10.81-3.91,10.8-3.93ZM69.23,104.87c-1.13.68-2.59.33-3.5-.78-.91-1.11-.51-2.86.81-3.65,1.31-.79,2.92-.32,3.6.93.68,1.27.24,2.81-.91,3.5ZM73.63,102.12c-1.1.55-2.45.12-3.06-.99-.6-1.1-.16-2.51,1-3.09,1.15-.59,2.54-.11,3.08,1.03.54,1.14.07,2.49-1.02,3.05ZM78.26,99.57c-.98.43-2.14,0-2.6-.98-.46-.98-.03-2.17.99-2.62,1.01-.46,2.19,0,2.62,1,.43,1.01-.02,2.15-1,2.6ZM83.01,97.24c-.84.32-1.8-.07-2.15-.93-.35-.85.06-1.83.94-2.17.87-.35,1.85.09,2.16.96.32.87-.11,1.81-.95,2.15ZM86.17,94.31c-.24-.72.17-1.47.92-1.71.77-.21,1.53.22,1.69.95.16.74-.25,1.46-.93,1.66-.69.22-1.44-.19-1.68-.9Z"/>
      <path class="cls-7" d="M70.12,95.97c3.57-1.35,10.56-3.41,16.78-4.52,6.21-1.32,11.62-.72,11.64-.62.08-.06-5.05-2.18-11.56-2.7-6.46-.74-13.99-.82-18.16-.79-7.83.06-11.04,3.92-10.56,6.26.49,2.38,4.91,5,11.87,2.37ZM86.63,88.35c.78,0,1.41.6,1.39,1.37-.01.76-.63,1.39-1.37,1.4-.75,0-1.37-.6-1.39-1.37-.02-.76.59-1.39,1.37-1.4ZM81.06,88.26c.95-.07,1.77.66,1.82,1.59.04.94-.66,1.72-1.58,1.79-.92.08-1.73-.62-1.81-1.55-.08-.94.62-1.75,1.57-1.84ZM75.5,88.49c1.13-.13,2.13.66,2.24,1.76.11,1.1-.67,2.1-1.75,2.23-1.08.11-2.08-.62-2.24-1.73-.16-1.09.62-2.14,1.75-2.26ZM69.94,89c1.3-.25,2.5.65,2.69,1.92.19,1.27-.67,2.43-1.89,2.67-1.23.22-2.43-.63-2.69-1.87-.26-1.27.59-2.48,1.89-2.71ZM62.42,93c-.39-1.4.49-2.84,1.96-3.21,1.47-.33,2.9.59,3.18,2.01.29,1.44-.61,2.82-1.98,3.13-1.36.34-2.77-.53-3.16-1.94Z"/>
      <path class="cls-2" d="M104.27,80.56c-.02-.43-.04-.89-.07-1.36-.08.45-.05.9.07,1.36Z"/>
      <path class="cls-2" d="M85.13,80.06c-8.18-3.46-11.45-3.58-16.59-2.42-.96.22-1.82.53-2.58.91,5.98.2,12.07-.4,19.17,1.52Z"/>
      <path class="cls-2" d="M103.57,88.77l-.06.02h-.02c-2.09-1.03-4.02-1.99-5.81-2.87,1.03.69,2.08,1.42,3.16,2.24,1.11.85,2.02,1.04,2.73.68,0,0-.01-.01-.02-.01,0-.02.01-.04.02-.05Z"/>
    </g>
  </g>
  <g>
    <g>
      <path class="cls-4" d="M139.4,78.43c-.33.86-.32,1.69.04,2.57.35.84.94,1.44,1.78,1.81.33.17.7.24,1.05.25-1.52,3.18-.99,6.81,4.55,12.01,6.75,5.8,7.32,9.96,9.41,16.91-1.24-8.33-3.32-13.49-6.14-16.84-2.82-3.36-6.38-10.03-5.02-13.24.19-.27.38-.54.53-.91.33-.86.35-1.71,0-2.55-.37-.87-.99-1.45-1.83-1.82-.86-.33-1.7-.32-2.54.03-.88.37-1.47.95-1.84,1.79Z"/>
      <path class="cls-4" d="M183.33,28.87c1.16,1.24,3.1,1.3,4.34.15,1.24-1.16,1.3-3.1.15-4.34-1.15-1.24-3.1-1.31-4.33-.15-1.24,1.16-1.31,3.1-.15,4.34ZM201.67,45.48s0-.06,0-.09c-.63-3.71,1.01-8.08,4.42-9.94.38-.21.56-.53.62-.88.45-.54.47-1.48-.38-1.85-3.6-1.55-7.89-4.73-7.08-9.16.02-.13.02-.24,0-.35,7.97-2.02,17.95-.71,15.21-3.35-9.08-8.76-32.1-4.27-50.49,12.89-18.38,17.17-24.84,63.01-14.81,55.36,24.4-18.58,36.45-1.03,55.33-17.64,15.07-13.25,6.21-19.04-2.83-24.98ZM211.25,18.61c.71.14,1.17.85.92,1.39-.26.56-.81.85-1.41.73-.59-.14-1.03-.68-.94-1.28.09-.59.72-1.01,1.43-.84ZM195.86,60.17c-2.6.63-4.02.08-4.12-.52-.09-.58,1.17-1.65,3.84-1.62,2.73.03,10.39-.17,10.39-.17,0,0-7.32,1.65-10.11,2.31ZM204.3,60.83c-.45.48-1.19.4-1.66-.13-.45-.52-.51-1.24-.17-1.62.36-.37,1.09-.32,1.64.11.55.43.64,1.16.19,1.63ZM197.87,63.49c.3-.22.76-.12,1.03.24.27.36.25.83-.05,1.06-.3.23-.76.12-1.03-.24-.27-.36-.25-.83.05-1.06ZM197.02,65.99c-.24.18-.62.1-.84-.2s-.2-.68.04-.86c.24-.18.62-.09.84.2.22.29.2.68-.04.86ZM199.46,63.3c-.33-.42-.31-.98.04-1.25.34-.27.89-.15,1.23.26.33.42.32.97-.04,1.25-.35.27-.9.16-1.23-.26ZM194.49,52.41c.15-.33.5-.5.77-.38.28.13.38.5.23.83-.15.33-.5.5-.78.38-.28-.12-.38-.5-.23-.83ZM198.24,54.11c.22-.48.73-.72,1.14-.53.4.19.54.73.31,1.21-.23.48-.74.72-1.14.53-.4-.19-.54-.73-.32-1.21ZM200.11,54.98c.27-.55.87-.8,1.34-.56.47.25.61.88.31,1.42-.3.54-.9.78-1.34.56-.44-.23-.57-.86-.3-1.42ZM201.93,55.94c.34-.62,1.05-.87,1.59-.5.54.36.62,1.09.18,1.63-.44.54-1.15.76-1.58.48-.42-.29-.52-1.01-.2-1.61ZM199.68,47.34c.44-.23,1.57.48,2.28,2.52.49,2.21,3.73,7.47,3.89,7.41-.09.14-4.37-4.44-5.46-6.59-1.22-1.85-1.15-3.11-.72-3.34ZM197.32,52.79c.34.15.47.61.28,1.02-.19.41-.61.61-.95.46-.34-.15-.47-.61-.28-1.02.18-.41.61-.62.95-.46ZM203.95,34.13c-3.01,2.24-4.76,5.98-4.73,9.73-4.76-3.23-8.96-6.7-8.95-11.58,0-4.46,2.86-6.93,6.61-8.34-.45,4.57,3.21,8.13,7.08,10.19ZM188.87,36.84c-.33.03-.65-.23-.7-.58-.06-.36.2-.67.58-.71.38-.04.7.22.7.58.01.36-.25.67-.58.71ZM206.35,17.77c.84.05,1.47.7,1.4,1.44-.07.74-.76,1.28-1.55,1.23-.79-.03-1.42-.66-1.41-1.39.02-.74.71-1.31,1.56-1.27ZM201.45,17.46c1-.02,1.81.68,1.8,1.55,0,.87-.77,1.59-1.71,1.61-.94.04-1.74-.64-1.8-1.5-.06-.88.71-1.61,1.71-1.66ZM196.51,17.59c1.17-.14,2.18.59,2.25,1.61.07,1-.73,1.89-1.79,2.02-1.05.15-2.04-.52-2.24-1.5-.2-1,.6-1.96,1.78-2.13ZM191.43,18.4c1.39-.43,2.66.27,2.88,1.4.21,1.12-.55,2.22-1.59,2.54-1.01.33-2.08-.09-2.75-1.05-.66-.93.04-2.44,1.46-2.9ZM186.52,37.45c-.4.12-.84-.13-.97-.54-.14-.42.11-.86.55-.98.44-.14.88.12.98.56.09.42-.15.84-.55.97ZM148.83,63.33c3.69-12.51,12.98-25.27,19.29-31.15,11.81-11.46,20.72-11.37,22.41-8.19,1.85,3.68-4.07,8.85-15.68,16.15-6.11,3.62-16.6,13.23-22.23,24.39-6.06,10.93-6.81,22.05-6.79,21.99.02.09-1.17-10.76,3-23.19ZM180.63,39.12c-.3-.51-.11-1.21.45-1.48.56-.29,1.22-.07,1.47.47.25.54.04,1.2-.47,1.46-.52.25-1.15.08-1.46-.44ZM180.03,40.92c-.55.35-1.3.19-1.69-.37-.39-.56-.22-1.33.37-1.72.59-.4,1.38-.18,1.72.41.34.6.14,1.32-.4,1.68ZM183.03,37.9c-.22-.47,0-1.03.5-1.25.5-.21,1.06.05,1.24.54.18.49-.06,1.01-.52,1.2-.45.2-1-.02-1.22-.49ZM146.74,86.51c-.09.02,2.1-8.7,7.72-17.93,5.36-9.32,13.86-18.99,20.17-23.41,5.67-4.3,12.32-5.26,16.43-3.8,4.22,1.51,5.11,4.29,4.45,5.63-.95,3.37-9.85,6.3-15.05,8.15-5.8,2.53-15.22,8.27-22.32,15.85-7.34,7.37-11.5,15.49-11.4,15.52ZM188.54,59.3c-.25.7-.59,1.18-1.21,1.23-.6.03-1.24-.44-1.34-1.15-.1-.69.4-1.37,1.21-1.41.79-.08,1.59.66,1.34,1.33ZM182.66,61.66c-.82.2-1.66-.28-1.91-1.12-.24-.83.26-1.72,1.14-1.94.87-.23,1.74.32,1.92,1.17.18.85-.34,1.67-1.15,1.89ZM170.79,64.46c-.58-1.05-.13-2.39,1.02-2.93,1.15-.53,2.45-.01,2.89,1.09.45,1.11-.05,2.36-1.06,2.82-1.02.47-2.26.04-2.84-.99ZM169.73,67.97c-.93.64-2.22.47-3.29-.41-1.03-.84-.87-2.67.44-3.57,1.28-.9,2.85-.51,3.5.69.64,1.18.29,2.64-.65,3.29ZM176.81,59.84c1-.37,2.08.2,2.38,1.18.31.99-.22,2.01-1.15,2.35-.94.32-1.99-.16-2.37-1.12-.38-.96.13-2.06,1.14-2.41ZM198.19,72.37c-2.65,2.94-6.06,1.81-15.11.95-4.75-.65-14.69.73-22.49,4.79-7.92,3.8-13.15,9.63-13.17,9.56.03.08,3.88-6.51,11.2-12.2,7.15-5.81,17.55-9.93,23.91-10.72,5.9-.99,10.78.55,13.33,2.59,2.62,2.01,2.98,4.15,2.32,5.02ZM202.51,62.28c-.4.35-1.04.24-1.43-.24-.39-.48-.39-1.13-.02-1.45.37-.32,1.02-.21,1.43.24.41.45.42,1.1.02,1.45ZM201.23,69.56c-.47-.09-.88-1.47.16-3.51.94-2.16,4.61-7.46,4.66-7.4-.07-.01-2.58,5.69-2.97,8.03-.48,2.11-1.35,2.99-1.85,2.89ZM208.29,59.75c-1.15-.47-1.7-1.8-1.23-2.95.47-1.15,1.8-1.7,2.95-1.23,1.15.47,1.7,1.8,1.23,2.95-.48,1.15-1.8,1.71-2.95,1.23ZM195.1,68.2c-1.04-1.11-2.77-1.17-3.88-.13-1.11,1.03-1.17,2.77-.13,3.88,1.03,1.11,2.77,1.17,3.88.13,1.11-1.04,1.17-2.77.14-3.88ZM187.03,47.73c1.15,1.24,3.1,1.3,4.34.15,1.24-1.16,1.3-3.1.15-4.34-1.16-1.24-3.1-1.31-4.34-.15-1.24,1.16-1.3,3.1-.15,4.34Z"/>
      <g>
        <path class="cls-4" d="M182.22,69.78c-.8.21-1.08.28-1.08.29-.66.18-.6.25.13.15.01-.4,8.3-.29,8.45-.14.08-.18-.32-.41-.32-.41-.62-.4-1.77-.66-2.48-.63,0-.04-2.52.17-4.7.74Z"/>
        <path class="cls-4" d="M160.66,74.89l.32-.3c.35-.32.11-.21-.52.25-.13-.15-5.59,4.57-5.16,5l.1.11c.54-.24,1.32-.89,1.75-1.44,0,0,1.65-1.98,3.5-3.63Z"/>
        <path class="cls-4" d="M166.85,72.17c1.24-.84,2.44-1.55,2.45-1.54.63-.36.53-.44-.21-.18-1.6.6-3.17,1.27-4.69,2.04-.72.33-1.74,1.04-2.29,1.5,0,0-.39.29-1.09.94-1.72,1.52-3.31,3.33-3.32,3.32-.47.53-.33.64.31.28l1.97-1.15c.66-.34,1.6-1.02,2.11-1.5,0,.02,2.25-2.05,4.77-3.72Z"/>
        <g>
          <path class="cls-4" d="M173.43,70.47c2.07-1.03,4.48-1.9,4.48-1.9.69-.25.61-.37-.17-.26-1.59.22-3.16.54-4.72.92-.76.22-1.92.63-2.54,1.01,0,.02-1.73.96-3.29,2.04-2.27,1.47-4.44,3.32-4.44,3.32-.54.45-.42.54.26.21,1.23-.65,2.51-1.19,3.79-1.73.7-.27,1.74-.79,2.32-1.19,0,.01,2.13-1.36,4.31-2.43Z"/>
          <path class="cls-4" d="M173.74,70.61c-1.83.91-3.67,1.98-3.66,1.99-.6.35-.5.44.21.2,0,0,.59-.21,1.58-.52,2.29-.73,5.25-1.37,5.25-1.35.73-.16,1.86-.47,2.52-.67,0,0,1.03-.38,2.31-.69,2.02-.57,4.32-.74,4.32-.73.73-.06.71-.23-.06-.39-1.56-.28-3.14-.42-4.71-.42-.8-.02-2.01.22-2.68.45,0-.03-2.71.98-5.07,2.12Z"/>
        </g>
      </g>
      <g>
        <path class="cls-4" d="M177.9,51.44c-.66.71-.9.96-.9.96-.54.61-.44.66.25.13-.1-.22,7.96-5.55,8.08-5.74-.05-.29-.6-.28-.6-.28-.89-.03-2.15.52-2.8,1.04-.01,0-2.23,1.91-4.03,3.89Z"/>
        <path class="cls-4" d="M156.9,66.57c.23-.46.23-.46.23-.46.24-.49.01-.29-.51.45-.19-.11-4.15,7.41-3.25,7.78l.21.1c.52-.47,1.05-1.5,1.25-2.3,0,.01.84-2.9,2.07-5.57Z"/>
        <path class="cls-4" d="M162.61,61.18c.89-1.52,1.84-2.84,1.83-2.85.47-.7.32-.78-.36-.16-1.44,1.34-2.82,2.75-4.16,4.2-.6.69-1.45,1.85-1.8,2.63,0,0-.26.53-.74,1.53-1.16,2.44-2.04,5.13-2.02,5.13-.26.78,0,.88.57.25.58-.67,1.09-1.36,1.73-1.97.59-.63,1.27-1.77,1.64-2.48-.02,0,1.44-3.28,3.32-6.28Z"/>
        <g>
          <path class="cls-4" d="M168.99,56.54c1.61-2.18,3.54-4.46,3.54-4.46.55-.65.38-.77-.37-.26-1.52,1.04-3,2.14-4.47,3.25-.71.58-1.69,1.62-2.16,2.3,0,.01-1.3,1.92-2.45,3.82-1.69,2.68-3.17,5.68-3.16,5.68-.36.74-.16.82.44.2,1.09-1.18,2.26-2.29,3.45-3.38.65-.58,1.49-1.66,1.94-2.33,0,0,1.57-2.54,3.26-4.83Z"/>
          <path class="cls-4" d="M169.44,56.61c-1.42,1.93-2.83,4-2.81,4.01-.45.68-.28.77.38.19,0,0,.53-.5,1.46-1.27,2.11-1.84,4.9-4.01,4.9-4.01.69-.54,1.67-1.5,2.21-2.1,0,.01.82-1.02,1.89-2.13,1.65-1.83,3.69-3.58,3.7-3.57.65-.55.5-.76-.36-.45-1.72.66-3.34,1.46-4.95,2.29-.82.41-1.89,1.34-2.44,1.97-.01-.01-2.15,2.58-3.98,5.07Z"/>
        </g>
      </g>
      <g>
        <path class="cls-4" d="M172.88,35.42c-.8.96-1.08,1.3-1.08,1.3-.64.83-.52.83.28.03-.21-.28,9.58-8.41,9.81-8.31-.06-.24-.75-.09-.75-.09-1.1.22-2.6,1.13-3.37,1.85-.03-.03-2.71,2.57-4.88,5.22Z"/>
        <path class="cls-4" d="M150.94,60.69l.19-.62c.21-.67,0-.34-.46.74-.24-.08-3.53,10.19-2.82,10.38l.18.06c.47-.74.99-2.18,1.16-3.22-.04-.01.69-3.8,1.73-7.33Z"/>
        <path class="cls-4" d="M156.33,52.1c.87-2.06,1.83-3.91,1.84-3.9.49-.96.33-.97-.37,0-1.46,2.09-2.86,4.23-4.1,6.46-.57,1.04-1.39,2.69-1.67,3.74,0,0-.22.7-.65,2.06-.98,3.27-1.78,6.79-1.74,6.8-.19,1.05.05,1.08.52.07.48-1.05,1.06-2.06,1.58-3.08.48-1.02,1.16-2.64,1.48-3.62-.02,0,1.26-4.42,3.12-8.52Z"/>
        <g>
          <path class="cls-4" d="M162.91,44.28c1.74-3,3.97-6.09,3.98-6.08.63-.88.45-.94-.39-.11-1.72,1.67-3.34,3.43-4.91,5.23-.75.93-1.84,2.4-2.3,3.38.03.02-1.41,2.59-2.5,5.21-1.68,3.68-3.02,7.75-3,7.76-.32,1.01-.13,1.01.42.01,1-1.86,2.17-3.63,3.31-5.4.65-.94,1.5-2.49,1.93-3.44.02.02,1.6-3.46,3.46-6.57Z"/>
          <path class="cls-4" d="M163.38,44.15c-1.56,2.63-3.01,5.49-3,5.5-.48.94-.3.95.38.03,0,0,.56-.77,1.51-2.02,2.25-2.88,5.31-6.32,5.34-6.29.79-.82,1.89-2.23,2.54-3.04.02.02.96-1.37,2.24-2.86,1.96-2.46,4.45-4.83,4.45-4.83.79-.74.61-.89-.39-.3-2.02,1.21-3.91,2.59-5.76,4.03-.94.71-2.17,2.08-2.82,2.92,0,0-2.49,3.48-4.5,6.86Z"/>
        </g>
      </g>
      <g>
        <path class="cls-4" d="M208.67,115.61c-5.02-2.74-7.19-15.95-15.92-16.45,2.37-.71,3.76-3.02,4.26-4.02,2.35.55,6,1.32,8.17.7,3.21-.89,3.12-3.41,2.49-3.69-.79-.54-2.02-.16-3.59.93-1.06.96-4.52,1.27-6.91,1.41-.4-1.19-2.93-8.18-7.6-9.23-1.69-.38-3.6-.26-5.61.2,5.6-2.02,3.22-6.6-2.5-7.88-7.89-1.77-11.37-.56-34.95,11.16h-.03s-.06-.02-.06-.02c0,.02.01.04.02.05-.01.01-.03.03-.04.04l.07.02s0,.01,0,.02c0,0,0,.01,0,.02h-.06s.01.02.02.04c-.01.01-.03.03-.04.04h.07s.02.02.02.02c3.83,13.93,15.03,10.16,20.03,26.91,1.25,4.18,9.21,6.06,13.39,1.85,2.94-2.96,1.17-7.72-.93-9.83,1.62,1.26,3.3,2.19,4.99,2.57,4.5,1.01,7.92-.98,8.68-1.47.49.61.94,1.39,1.21,2.35,1,2.84.94,6.35.61,8.04-.6,3.28.35,4.73,1.42,5.44.98.72,3.68-1.43,2.89-5.63-.37-2.18-1.5-5.98-3.51-8.71-.69-1.05-1.51-1.78-2.29-2.28.34-1.5.97-5.11-.16-7.34,10.36.63,9.61,14.7,14.11,18.21,4.95,3.77,8.4,3.11,8.97,1.55.75-1.19-2.52-5.8-7.19-5.04ZM150.89,90.05c-.05.02,2.75-3.12,7.27-5.28,4.41-2.28,9.9-4.06,12.97-4.92,5.8-1.62,8.95.69,8.99,2.48.04,1.85-2.62,4.5-8.11,4.05-3.99.19-7.94.55-12.58,1.42-4.69.73-8.56,2.22-8.54,2.25ZM163.02,88.08c6.46-.74,13.99-.82,18.16-.79,7.83.06,11.04,3.92,10.56,6.26-.49,2.38-4.91,5-11.87,2.37-3.57-1.35-10.56-3.41-16.78-4.52-6.21-1.32-11.62-.72-11.64-.62-.08-.06,5.05-2.18,11.56-2.7ZM174.15,115.68c-2.52.27-5.88-1.55-7.12-6.33-.6-2.62-3.66-7.37-7.69-10.69-3.91-3.38-7.82-6.26-7.79-6.29,0,.05,4.24,1.45,9.34,3.4,5.13,1.8,10.83,5.75,13.39,8.9,4.98,6.04,2.09,10.86-.14,11.02ZM188.16,106.58c-1.65,1.74-6.05,2.39-11.44-2.17-2.76-2.38-8.63-6.29-14.23-8.92-5.56-2.69-10.81-3.91-10.8-3.93-.01.02,5.26-.26,11.59.77,6.31.94,13.52,3.05,17.46,4.52,7.46,2.69,9.05,8.02,7.43,9.73Z"/>
        <path class="cls-4" d="M183.45,100.39c-1.31-.79-2.92-.32-3.6.93-.68,1.27-.24,2.81.91,3.5,1.13.68,2.59.33,3.5-.78.91-1.11.51-2.86-.81-3.65Z"/>
        <path class="cls-4" d="M178.42,97.99c-1.15-.59-2.54-.11-3.08,1.03-.54,1.14-.07,2.49,1.02,3.05,1.1.55,2.45.12,3.06-.99.6-1.1.16-2.51-1-3.09Z"/>
        <path class="cls-4" d="M173.35,95.93c-1.01-.46-2.19,0-2.62,1.01-.43,1.01.02,2.15,1,2.6.98.43,2.14,0,2.6-.98.46-.98.03-2.17-.99-2.62Z"/>
        <path class="cls-4" d="M168.21,94.09c-.87-.35-1.85.09-2.16.96-.32.87.11,1.81.95,2.15.84.32,1.8-.07,2.15-.93.35-.85-.06-1.83-.94-2.17Z"/>
        <path class="cls-4" d="M162.91,92.56c-.77-.21-1.53.22-1.69.95-.16.74.25,1.46.93,1.66.69.22,1.44-.19,1.68-.9.24-.72-.17-1.47-.92-1.71Z"/>
        <path class="cls-4" d="M184.42,94.89c1.36.34,2.77-.53,3.16-1.94.39-1.4-.49-2.84-1.96-3.21-1.47-.33-2.9.59-3.18,2.01-.29,1.44.61,2.82,1.98,3.13Z"/>
        <path class="cls-4" d="M179.26,93.54c1.23.22,2.43-.63,2.69-1.87.26-1.27-.59-2.48-1.89-2.71-1.3-.25-2.5.65-2.69,1.92-.19,1.27.67,2.43,1.89,2.67Z"/>
        <path class="cls-4" d="M174.01,92.43c1.08.11,2.08-.62,2.24-1.73.16-1.09-.62-2.14-1.75-2.26-1.13-.13-2.13.66-2.24,1.76-.11,1.1.67,2.1,1.75,2.23Z"/>
        <path class="cls-4" d="M168.7,91.59c.92.08,1.73-.62,1.81-1.55.08-.94-.62-1.75-1.57-1.84-.95-.07-1.77.66-1.82,1.59-.04.94.66,1.72,1.58,1.79Z"/>
        <path class="cls-4" d="M164.74,89.7c.02-.76-.59-1.39-1.37-1.4-.78,0-1.41.6-1.39,1.37.01.76.63,1.39,1.37,1.4.75,0,1.37-.6,1.39-1.37Z"/>
        <path class="cls-4" d="M173.93,84.59c.96-.05,1.72-.91,1.71-1.94-.01-1.02-.9-1.81-1.98-1.75-1.07.1-1.83,1.01-1.71,2.02.12,1.02,1.01,1.76,1.97,1.67Z"/>
        <path class="cls-4" d="M170.24,84.8c.86-.13,1.47-.95,1.37-1.84-.1-.89-.94-1.51-1.86-1.38-.93.12-1.53,1.01-1.36,1.88.17.9.99,1.45,1.85,1.34Z"/>
        <path class="cls-4" d="M166.55,85.28c.73-.18,1.21-.91,1.07-1.67-.15-.77-.91-1.27-1.69-1.08-.78.18-1.26.94-1.06,1.7.2.75.95,1.22,1.68,1.05Z"/>
        <path class="cls-4" d="M162.89,86.03c.61-.18.97-.83.79-1.46-.18-.63-.85-.99-1.5-.81-.65.21-.99.9-.77,1.52.22.62.88.94,1.48.75Z"/>
        <path class="cls-4" d="M158.56,85.34c-.51.22-.73.78-.51,1.27.23.48.8.71,1.28.51.47-.2.7-.77.51-1.27-.19-.5-.77-.73-1.28-.51Z"/>
        <path class="cls-4" d="M171.08,108c-1.04.65-1.45,1.92-.97,2.85.35.96,1.61,1.47,2.78,1.16,1.18-.31,1.74-1.64,1.24-2.97-.62-1.24-2.02-1.68-3.05-1.04Z"/>
        <path class="cls-4" d="M171.31,104.88c-.68-.96-2-1.03-2.78-.33-.82.72-.88,1.87-.32,2.67.56.79,1.76.98,2.67.42.92-.56,1.11-1.79.43-2.75Z"/>
        <path class="cls-4" d="M167.9,101.44c-.7-.68-1.77-.67-2.39.04-.6.68-.58,1.74.04,2.36.64.61,1.69.6,2.36,0,.7-.64.7-1.71,0-2.39Z"/>
        <path class="cls-4" d="M164.16,98.52c-.65-.48-1.55-.36-2.01.27-.46.63-.34,1.51.27,1.96.6.46,1.46.39,1.97-.22.5-.59.42-1.52-.22-2.02Z"/>
        <path class="cls-4" d="M160.19,96.04c-.55-.36-1.26-.21-1.6.33-.34.54-.18,1.26.34,1.6.52.34,1.23.19,1.59-.34.36-.53.21-1.24-.33-1.6Z"/>
      </g>
    </g>
    <g>
      <path class="cls-2" d="M190.27,32.32c0-4.46,2.86-6.93,6.61-8.34-.45,4.57,3.21,8.13,7.08,10.19-3.01,2.24-4.76,5.98-4.73,9.73-4.76-3.23-8.96-6.7-8.95-11.58Z"/>
      <path class="cls-2" d="M192.72,22.39c-1.01.33-2.08-.09-2.75-1.05-.66-.93.04-2.44,1.46-2.9,1.39-.43,2.66.27,2.88,1.4.21,1.12-.55,2.22-1.59,2.54Z"/>
      <path class="cls-2" d="M196.97,21.26c-1.05.15-2.04-.52-2.24-1.5-.2-1,.6-1.96,1.78-2.13,1.17-.14,2.18.59,2.25,1.61.07,1-.73,1.89-1.79,2.02Z"/>
      <path class="cls-2" d="M188.87,36.89c-.33.03-.65-.23-.7-.58-.06-.36.2-.67.58-.71.38-.04.7.22.7.58.01.36-.25.67-.58.71Z"/>
      <path class="cls-2" d="M206.35,17.81c.84.05,1.47.7,1.4,1.44-.07.74-.76,1.28-1.55,1.23-.79-.03-1.42-.66-1.41-1.39.02-.74.71-1.31,1.56-1.27Z"/>
      <path class="cls-2" d="M186.52,37.49c-.4.12-.84-.13-.97-.54-.14-.42.11-.86.55-.98.44-.14.88.12.98.56.09.42-.15.84-.55.97Z"/>
      <path class="cls-2" d="M211.26,18.66c.71.14,1.17.85.92,1.39-.26.56-.81.85-1.41.73-.59-.14-1.03-.68-.94-1.28.09-.59.72-1.01,1.43-.84Z"/>
      <path class="cls-2" d="M180.03,40.97c-.55.35-1.3.19-1.69-.37-.39-.56-.22-1.33.37-1.72.59-.4,1.38-.18,1.72.41.34.6.14,1.32-.4,1.68Z"/>
      <path class="cls-8" d="M145.73,80.56c-.14,3.73.11,6.04.1,6-.02.06.73-11.05,6.79-21.99,5.63-11.16,16.11-20.77,22.23-24.39,11.61-7.3,17.53-12.47,15.68-16.15-1.68-3.18-10.6-3.28-22.41,8.19-6.31,5.88-15.6,18.65-19.29,31.15-2.01,5.99-2.77,11.61-3.03,15.82.08.45.05.9-.07,1.36ZM183.49,24.58c1.24-1.16,3.18-1.09,4.33.15,1.16,1.24,1.09,3.18-.15,4.34-1.24,1.16-3.18,1.09-4.34-.15-1.16-1.24-1.09-3.18.15-4.34ZM171.8,36.76s.28-.34,1.08-1.3c2.17-2.65,4.85-5.26,4.88-5.22.78-.72,2.27-1.63,3.37-1.85,0,0,.69-.15.75.09-.23-.1-10.02,8.03-9.81,8.31-.8.8-.91.8-.28-.03ZM160.38,49.7s1.44-2.87,3-5.5c2.02-3.39,4.5-6.87,4.5-6.86.65-.84,1.87-2.2,2.82-2.92,1.85-1.43,3.74-2.82,5.76-4.03,1-.59,1.18-.44.39.3,0,0-2.49,2.36-4.45,4.83-1.29,1.49-2.23,2.88-2.24,2.86-.65.81-1.75,2.22-2.54,3.04-.03-.03-3.08,3.42-5.34,6.29-.95,1.25-1.51,2.03-1.51,2.02-.69.91-.86.9-.38-.03ZM153.79,59.72s1.33-4.08,3-7.76c1.09-2.63,2.53-5.19,2.5-5.21.46-.98,1.56-2.45,2.3-3.38,1.57-1.81,3.19-3.57,4.91-5.23.85-.83,1.02-.78.39.11-.01-.01-2.24,3.09-3.98,6.08-1.86,3.11-3.44,6.59-3.46,6.57-.43.95-1.28,2.5-1.93,3.44-1.14,1.77-2.31,3.54-3.31,5.4-.55,1-.74.99-.42-.01ZM149.64,67.3s.76-3.54,1.74-6.8c.43-1.36.65-2.06.65-2.06.28-1.05,1.1-2.69,1.67-3.74,1.24-2.23,2.64-4.37,4.1-6.46.7-.96.86-.96.37,0,0,0-.97,1.84-1.84,3.9-1.86,4.1-3.14,8.51-3.12,8.52-.32.98-1,2.6-1.48,3.62-.52,1.03-1.1,2.03-1.58,3.08-.47,1-.71.98-.52-.07ZM150.68,60.86c.46-1.07.67-1.4.46-.74l-.19.62c-1.05,3.53-1.78,7.32-1.73,7.33-.18,1.04-.7,2.48-1.16,3.22l-.18-.06c-.71-.19,2.57-10.46,2.82-10.38Z"/>
      <path class="cls-2" d="M152.33,85.92c4.57-3.04,8.71-4.82,12.54-5.86-3.26,1.38-7.3,3.29-12.54,5.86Z"/>
      <path class="cls-2" d="M182.09,39.61c-.52.25-1.15.08-1.46-.44-.3-.51-.11-1.21.45-1.48.56-.29,1.22-.07,1.47.47.25.54.04,1.2-.47,1.46Z"/>
      <path class="cls-2" d="M201.46,17.51c1-.02,1.81.68,1.8,1.55,0,.87-.77,1.59-1.71,1.61-.94.04-1.74-.64-1.8-1.5-.06-.88.71-1.61,1.71-1.66Z"/>
      <path class="cls-1" d="M183.08,73.36c9.05.86,12.46,1.99,15.11-.95.66-.87.3-3.01-2.32-5.02-2.56-2.04-7.44-3.58-13.33-2.59-6.37.8-16.76,4.92-23.91,10.72-7.33,5.68-11.17,12.27-11.2,12.2.01.07,5.24-5.76,13.17-9.56,7.81-4.06,17.75-5.44,22.49-4.79ZM160.99,74.64l-.32.3c-1.85,1.64-3.51,3.63-3.5,3.63-.44.55-1.22,1.2-1.75,1.44l-.1-.11c-.43-.43,5.03-5.15,5.16-5,.63-.46.87-.57.52-.25ZM169.3,70.68s-1.21.7-2.45,1.54c-2.51,1.67-4.77,3.74-4.77,3.72-.5.48-1.44,1.16-2.11,1.5l-1.97,1.15c-.64.36-.78.25-.31-.28,0,.01,1.6-1.8,3.32-3.32.7-.65,1.1-.94,1.09-.94.55-.46,1.57-1.17,2.29-1.5,1.52-.77,3.09-1.44,4.69-2.04.75-.27.84-.18.21.18ZM177.91,68.62s-2.41.87-4.48,1.9c-2.18,1.07-4.31,2.45-4.31,2.43-.58.39-1.62.91-2.32,1.19-1.28.54-2.56,1.08-3.79,1.73-.68.33-.8.24-.26-.21,0,0,2.17-1.85,4.44-3.32,1.56-1.08,3.3-2.02,3.29-2.04.62-.38,1.78-.79,2.54-1.01,1.56-.37,3.13-.69,4.72-.92.78-.11.86.01.17.26ZM191.22,68.12c1.11-1.04,2.85-.98,3.88.13,1.03,1.11.97,2.84-.14,3.88-1.11,1.03-2.84.98-3.88-.13-1.04-1.11-.98-2.85.13-3.88ZM181.14,70.12s.28-.08,1.08-.29c2.19-.57,4.7-.78,4.7-.74.71-.03,1.86.22,2.48.63,0,0,.4.23.32.41-.15-.14-8.43-.25-8.45.14-.73.09-.79.02-.13-.15ZM179.64,70.31c-.66.2-1.78.51-2.52.67,0-.03-2.96.62-5.25,1.35-.98.31-1.58.53-1.58.52-.71.24-.81.15-.21-.2,0-.01,1.83-1.08,3.66-1.99,2.36-1.14,5.06-2.15,5.07-2.12.68-.23,1.89-.47,2.68-.45,1.57,0,3.16.13,4.71.42.77.15.78.33.06.39,0-.01-2.31.16-4.32.73-1.27.3-2.31.69-2.31.69Z"/>
      <path class="cls-2" d="M179.19,61.06c.31.99-.22,2.01-1.15,2.35-.94.32-1.99-.16-2.37-1.12-.38-.96.13-2.06,1.14-2.41,1-.37,2.08.2,2.38,1.18Z"/>
      <path class="cls-2" d="M188.55,59.34c-.25.7-.59,1.18-1.21,1.23-.6.03-1.24-.44-1.34-1.15-.1-.69.4-1.37,1.21-1.41.79-.08,1.59.66,1.34,1.33Z"/>
      <g>
        <path class="cls-4" d="M200.4,50.69c-1.22-1.85-1.15-3.11-.72-3.34.44-.23,1.57.48,2.28,2.52.49,2.21,3.73,7.47,3.89,7.41-.09.14-4.37-4.44-5.46-6.59Z"/>
        <path class="cls-4" d="M197.33,52.8c.34.15.47.61.28,1.02-.19.41-.61.61-.95.46-.34-.15-.47-.61-.28-1.02.18-.41.61-.62.95-.46Z"/>
        <path class="cls-4" d="M199.39,53.59c.4.19.54.73.31,1.21-.23.48-.74.72-1.14.53-.4-.19-.54-.73-.32-1.21.22-.48.73-.72,1.14-.53Z"/>
        <path class="cls-4" d="M200.41,56.41c-.44-.23-.57-.86-.3-1.42.27-.55.87-.8,1.34-.56.47.25.61.88.31,1.42-.3.54-.9.78-1.34.56Z"/>
        <path class="cls-4" d="M203.52,55.45c.54.36.62,1.09.18,1.63-.44.54-1.15.76-1.58.48-.42-.29-.52-1.01-.2-1.61.34-.62,1.05-.87,1.59-.5Z"/>
        <path class="cls-4" d="M200.72,62.32c.33.42.32.97-.04,1.25-.35.28-.9.16-1.23-.26-.33-.42-.31-.98.04-1.25.34-.27.89-.15,1.23.26Z"/>
        <path class="cls-4" d="M191.74,59.66c-.09-.58,1.17-1.65,3.84-1.62,2.73.03,10.39-.17,10.39-.17,0,0-7.32,1.65-10.11,2.31-2.6.63-4.02.08-4.12-.52Z"/>
        <path class="cls-4" d="M206.06,58.65c-.07-.01-2.58,5.69-2.97,8.03-.48,2.11-1.35,2.99-1.85,2.89-.47-.09-.88-1.47.16-3.51.94-2.16,4.61-7.46,4.66-7.4Z"/>
        <path class="cls-4" d="M210.02,55.58c1.15.47,1.7,1.8,1.23,2.95-.48,1.15-1.8,1.71-2.95,1.23-1.15-.47-1.7-1.8-1.23-2.95.47-1.15,1.8-1.7,2.95-1.23Z"/>
        <path class="cls-4" d="M197.82,64.56c-.27-.36-.25-.83.05-1.06.3-.22.76-.12,1.03.24.27.36.25.83-.05,1.06-.3.23-.76.12-1.03-.24Z"/>
        <path class="cls-4" d="M202.48,59.09c.36-.37,1.09-.32,1.64.11.55.43.64,1.16.19,1.63-.45.48-1.19.4-1.66-.13-.45-.52-.51-1.24-.17-1.62Z"/>
        <path class="cls-4" d="M201.08,62.04c-.39-.48-.39-1.13-.02-1.45.37-.32,1.02-.21,1.43.24.41.45.42,1.1.02,1.45-.4.35-1.04.24-1.43-.24Z"/>
        <path class="cls-4" d="M197.06,65.13c.22.29.2.68-.04.86-.24.18-.62.1-.84-.2s-.2-.68.04-.86c.24-.18.62-.09.84.2Z"/>
        <path class="cls-4" d="M195.27,52.04c.28.13.38.5.23.83-.15.33-.5.5-.78.38-.28-.12-.38-.5-.23-.83.15-.33.5-.5.77-.38Z"/>
      </g>
      <path class="cls-2" d="M181.9,58.65c.87-.23,1.74.32,1.92,1.17.18.85-.34,1.67-1.15,1.89-.82.2-1.66-.28-1.91-1.12-.24-.83.26-1.72,1.14-1.94Z"/>
      <path class="cls-2" d="M171.81,61.58c1.15-.53,2.45-.01,2.89,1.09.45,1.11-.05,2.36-1.06,2.82-1.02.47-2.26.04-2.84-.99-.58-1.05-.13-2.39,1.02-2.93Z"/>
      <path class="cls-8" d="M191.06,41.41c-4.11-1.46-10.76-.5-16.43,3.8-6.32,4.42-14.82,14.09-20.17,23.41-5.63,9.24-7.81,17.95-7.72,17.93-.09-.03,4.06-8.14,11.4-15.52,7.11-7.58,16.52-13.32,22.32-15.85,5.2-1.85,14.1-4.79,15.05-8.15.65-1.34-.23-4.11-4.45-5.63ZM157.13,66.15s0,0-.23.46c-1.23,2.66-2.07,5.58-2.07,5.57-.19.8-.73,1.82-1.25,2.3l-.21-.1c-.9-.37,3.06-7.88,3.25-7.78.52-.75.75-.95.51-.45ZM164.44,58.38s-.94,1.33-1.83,2.85c-1.88,3-3.34,6.28-3.32,6.28-.37.72-1.05,1.86-1.64,2.48-.64.62-1.15,1.31-1.73,1.97-.57.63-.83.53-.57-.25-.02,0,.86-2.68,2.02-5.13.49-1.01.74-1.53.74-1.53.35-.78,1.2-1.94,1.8-2.63,1.34-1.45,2.72-2.86,4.16-4.2.68-.62.83-.55.36.15ZM172.53,52.13s-1.93,2.28-3.54,4.46c-1.68,2.3-3.26,4.83-3.26,4.83-.45.67-1.28,1.75-1.94,2.33-1.19,1.09-2.36,2.2-3.45,3.38-.6.62-.8.54-.44-.2-.01,0,1.47-3,3.16-5.68,1.15-1.9,2.46-3.81,2.45-3.82.48-.69,1.46-1.73,2.16-2.3,1.47-1.11,2.95-2.21,4.47-3.25.76-.51.92-.39.37.26ZM181.17,47.79s-2.06,1.74-3.7,3.57c-1.07,1.11-1.88,2.14-1.89,2.13-.54.61-1.52,1.56-2.21,2.1,0,0-2.79,2.17-4.9,4.01-.93.76-1.46,1.28-1.46,1.27-.66.58-.83.49-.38-.19-.01-.01,1.39-2.08,2.81-4.01,1.83-2.48,3.97-5.08,3.98-5.07.55-.63,1.62-1.55,2.44-1.97,1.61-.83,3.24-1.63,4.95-2.29.86-.31,1.01-.1.36.45ZM185.33,46.84c-.11.19-8.17,5.52-8.08,5.74-.68.53-.79.48-.25-.13,0,0,.24-.25.9-.96,1.8-1.98,4.02-3.89,4.03-3.89.65-.52,1.91-1.07,2.8-1.04,0,0,.55,0,.6.28ZM191.52,43.59c1.16,1.24,1.09,3.18-.15,4.34-1.24,1.15-3.18,1.09-4.34-.15-1.16-1.24-1.09-3.18.15-4.34,1.24-1.16,3.18-1.09,4.34.15Z"/>
      <path class="cls-2" d="M169.73,68.02c-.93.64-2.22.47-3.29-.41-1.03-.84-.87-2.67.44-3.57,1.28-.9,2.85-.51,3.5.69.64,1.18.29,2.64-.65,3.29Z"/>
      <path class="cls-2" d="M184.25,38.43c-.45.2-1-.02-1.22-.49-.22-.47,0-1.03.5-1.25.5-.21,1.06.05,1.24.54.18.49-.06,1.01-.52,1.2Z"/>
      <path class="cls-7" d="M160.9,95.81c-5.1-1.95-9.35-3.35-9.34-3.4-.04.03,3.88,2.91,7.79,6.29,4.03,3.32,7.09,8.07,7.69,10.69,1.24,4.78,4.6,6.6,7.12,6.33,2.22-.16,5.12-4.97.14-11.02-2.55-3.15-8.26-7.1-13.39-8.9ZM171.08,108.04c1.03-.64,2.42-.2,3.05,1.04.51,1.32-.06,2.66-1.24,2.97-1.18.31-2.44-.2-2.78-1.16-.48-.93-.07-2.2.97-2.85ZM168.53,104.59c.78-.69,2.1-.62,2.78.33.68.96.48,2.19-.43,2.75-.92.56-2.12.37-2.67-.42-.56-.8-.5-1.94.32-2.67ZM165.51,101.53c.62-.71,1.69-.73,2.39-.04.71.68.71,1.76,0,2.39-.67.61-1.72.62-2.36,0-.62-.61-.64-1.67-.04-2.36ZM162.15,98.84c.46-.63,1.36-.76,2.01-.27.64.5.72,1.42.22,2.02-.51.6-1.37.68-1.97.22-.61-.45-.73-1.33-.27-1.96ZM160.53,97.68c-.36.53-1.07.68-1.59.34-.52-.34-.67-1.06-.34-1.6.33-.54,1.05-.69,1.6-.33.54.36.69,1.08.33,1.6Z"/>
      <path class="cls-1" d="M150.89,90.1s3.85-1.52,8.54-2.25c4.64-.87,8.6-1.24,12.58-1.42,5.48.45,8.15-2.2,8.11-4.05-.04-1.79-3.19-4.1-8.99-2.48-3.07.86-8.56,2.64-12.97,4.92-4.52,2.16-7.32,5.3-7.27,5.28ZM171.96,82.97c-.12-1.01.64-1.93,1.71-2.02,1.08-.05,1.97.73,1.98,1.75,0,1.02-.76,1.89-1.71,1.94-.97.09-1.85-.65-1.97-1.67ZM169.75,81.63c.92-.13,1.76.48,1.86,1.38.1.89-.51,1.72-1.37,1.84-.86.11-1.68-.44-1.85-1.34-.17-.87.43-1.77,1.36-1.88ZM165.92,82.58c.78-.19,1.54.31,1.69,1.08.15.76-.33,1.49-1.07,1.67-.73.17-1.48-.3-1.68-1.05-.2-.75.28-1.51,1.06-1.7ZM162.18,83.8c.65-.19,1.32.17,1.5.81.18.63-.17,1.29-.79,1.46-.6.2-1.26-.13-1.48-.75-.22-.62.12-1.31.77-1.52ZM158.56,85.39c.51-.22,1.08,0,1.28.51.2.5-.03,1.07-.51,1.27-.47.2-1.04-.03-1.28-.51-.23-.48,0-1.05.51-1.27Z"/>
      <path class="cls-7" d="M162.5,95.53c5.6,2.63,11.47,6.54,14.23,8.92,5.39,4.57,9.79,3.91,11.44,2.17,1.63-1.71.03-7.05-7.43-9.73-3.94-1.47-11.15-3.58-17.46-4.52-6.32-1.02-11.6-.75-11.59-.77,0,.01,5.24,1.24,10.8,3.93ZM179.86,101.36c.68-1.25,2.28-1.72,3.6-.93,1.32.79,1.72,2.54.81,3.65-.91,1.11-2.37,1.46-3.5.78-1.15-.69-1.59-2.24-.91-3.5ZM175.35,99.07c.54-1.14,1.92-1.62,3.08-1.03,1.16.57,1.6,1.98,1,3.09-.61,1.11-1.95,1.54-3.06.99-1.09-.56-1.56-1.9-1.02-3.05ZM170.74,96.98c.42-1,1.6-1.47,2.62-1,1.02.45,1.45,1.64.99,2.62-.47.99-1.63,1.41-2.6.98-.98-.44-1.43-1.59-1-2.6ZM166.04,95.09c.31-.86,1.29-1.3,2.16-.96.88.34,1.29,1.33.94,2.17-.35.85-1.31,1.25-2.15.93-.84-.34-1.26-1.28-.95-2.15ZM162.16,95.21c-.68-.19-1.09-.92-.93-1.66.16-.73.93-1.16,1.69-.95.74.23,1.16.99.92,1.71-.24.71-.99,1.12-1.68.9Z"/>
      <path class="cls-7" d="M191.74,93.6c.48-2.34-2.73-6.2-10.56-6.26-4.17-.03-11.7.05-18.16.79-6.52.52-11.64,2.64-11.56,2.7.01-.1,5.43-.7,11.64.62,6.21,1.11,13.2,3.17,16.78,4.52,6.96,2.63,11.38.01,11.87-2.37ZM164.74,89.75c-.02.76-.64,1.38-1.39,1.37-.75,0-1.36-.63-1.37-1.4-.01-.76.61-1.37,1.39-1.37.78,0,1.39.63,1.37,1.4ZM170.51,90.09c-.08.93-.89,1.63-1.81,1.55-.92-.07-1.62-.85-1.58-1.79.05-.93.86-1.67,1.82-1.59.95.08,1.65.9,1.57,1.84ZM176.25,90.75c-.16,1.1-1.16,1.84-2.24,1.73-1.08-.13-1.86-1.12-1.75-2.23.11-1.1,1.12-1.89,2.24-1.76,1.13.12,1.91,1.17,1.75,2.26ZM181.95,91.71c-.25,1.25-1.45,2.09-2.69,1.87-1.23-.24-2.08-1.39-1.89-2.67.19-1.27,1.4-2.16,2.69-1.92,1.3.23,2.14,1.44,1.89,2.71ZM184.42,94.94c-1.37-.31-2.27-1.69-1.98-3.13.28-1.42,1.71-2.34,3.18-2.01,1.47.37,2.35,1.8,1.96,3.21-.39,1.41-1.8,2.27-3.16,1.94Z"/>
      <path class="cls-2" d="M145.73,80.56c.02-.43.04-.89.07-1.36.08.45.05.9-.07,1.36Z"/>
      <g>
        <path class="cls-1" d="M163.59,132.28c-.88.05-1.68-.65-1.79-1.57-.11-.92.58-1.71,1.54-1.77.96-.06,1.77.64,1.8,1.57.03.92-.66,1.72-1.54,1.77Z"/>
        <path class="cls-1" d="M166.91,128.98c.82,0,1.49.65,1.5,1.47,0,.81-.64,1.48-1.45,1.48-.81,0-1.47-.63-1.5-1.44-.03-.82.63-1.52,1.45-1.51Z"/>
        <path class="cls-1" d="M170.39,129.15c.69-.02,1.27.54,1.28,1.25.02.71-.55,1.29-1.26,1.31-.72.02-1.28-.56-1.28-1.26-.01-.71.57-1.27,1.26-1.29Z"/>
        <path class="cls-1" d="M173.81,129.27c.58-.02,1.07.38,1.13.98.05.58-.41,1.15-1.01,1.17-.6.01-1.11-.46-1.13-1.05-.02-.59.43-1.09,1.02-1.1Z"/>
        <path class="cls-1" d="M177.18,129.11c.47-.05.92.29,1,.77.09.48-.24.91-.74.96-.49.06-.95-.29-1-.77-.06-.48.27-.91.74-.96Z"/>
      </g>
      <path class="cls-2" d="M164.87,80.06c8.18-3.46,11.45-3.58,16.59-2.42.96.22,1.82.53,2.58.91-5.98.2-12.07-.4-19.17,1.52Z"/>
      <path class="cls-2" d="M146.43,88.77l.06.02h.02c2.09-1.03,4.02-1.99,5.81-2.87-1.03.69-2.08,1.42-3.16,2.24-1.11.85-2.02,1.04-2.73.68,0,0,.01-.01.02-.01,0-.02-.01-.04-.02-.05Z"/>
    </g>
  </g>
  <g>
    <g>
      <path class="cls-4" d="M102.12,98.72h45.98c-.47,1.21-.9,2.33-1.34,3.44-.33.83-.69,1.66-.99,2.5-.15.44-.37.62-.85.68-3.01.34-5.24,1.79-6.39,4.67-.94,2.33-.63,4.58.66,6.68.34.56.25.89-.13,1.31-2.58,2.93-5.74,4.62-9.72,4.61-2.99,0-5.97.06-8.96-.02-3.85-.11-6.92-1.83-9.35-4.78-.3-.36-.34-.61-.06-1.04,2.75-4.17.77-9.68-4.02-11.13-.53-.16-1.09-.31-1.63-.29-.58.01-.74-.33-.89-.72-.76-1.93-1.51-3.87-2.31-5.91ZM131.49,118.29c0-.35.01-.65,0-.94-.09-1.54-.23-3.07-.26-4.61-.02-.72-.22-.97-.96-.96-3.36.03-6.73.03-10.09,0-.96,0-1.19.07-1.23,1.19-.05,1.46-.08,2.93-.2,4.39-.06.85,0,.98.85.99,3.69,0,7.39,0,11.08,0,.25,0,.49-.03.82-.05ZM125.09,110.08c1.57,0,3.14,0,4.7,0,.58,0,1.11-.07,1.15-.85.04-.91-.26-1.38-1.04-1.44-.58-.05-1.16-.06-1.74-.02-.54.03-.7-.18-.7-.7.02-1.44.02-2.88,0-4.32,0-.94-.44-1.38-1.38-1.42-.53-.02-1.06,0-1.59,0-1.37,0-1.77.39-1.77,1.74,0,1.32-.02,2.63,0,3.95,0,.55-.17.79-.74.76-.55-.03-1.11-.02-1.67.03-.75.07-1.17.63-1.1,1.41.06.73.58.87,1.18.87,1.57,0,3.14,0,4.7,0ZM108.1,100.15c.07.14.15.39.29.59.9,1.3,1.78,2.63,2.75,3.89,1.07,1.41,2.47,2.29,4.32,2.3.91,0,1.82.02,2.73.02.87,0,1.59-.42,1.9-1.18.58-1.45.55-2.96-.18-4.37-.52-1.01-1.57-1.21-2.58-1.22-3.03-.04-6.06-.02-9.23-.02ZM142.29,100.14c-.32-.07-.55-.17-.79-.16-.43,0-.85.09-1.28.09-2.45.04-4.91.02-7.36.1-1.78.06-2.88.91-3.03,2.66-.05.55-.06,1.11-.08,1.67-.05,1.28,1.14,2.56,2.47,2.45.7-.06,1.42-.05,2.12-.02,2.08.1,3.63-.84,4.82-2.47,1.02-1.4,2.03-2.81,3.13-4.33Z"/>
      <path class="cls-4" d="M104.89,106.6c3.46-.2,6.21,3.1,6.16,6.07-.07,3.66-2.92,6.21-6.15,6.19-3.44-.03-6.1-2.56-6.16-6.2-.05-3.19,2.59-6.18,6.14-6.06ZM107.57,112.68c.07-1.68-1.2-2.66-2.65-2.73-1.47-.06-2.81,1.25-2.82,2.71-.01,1.47,1.29,2.78,2.77,2.78,1.56,0,2.7-1.17,2.7-2.77Z"/>
      <path class="cls-4" d="M99,98.66c.49,0,.9-.05,1.29.02.23.04.55.22.63.41.8,1.94,1.55,3.9,2.31,5.86.05.14.04.29.07.46-.7.3-1.37.63-2.06.88-.13.05-.49-.15-.52-.29-.4-1.6-.77-3.2-1.14-4.81-.19-.8-.37-1.6-.58-2.53Z"/>
      <path class="cls-4" d="M151.21,98.66c-.62,2.64-1.21,5.14-1.82,7.75-.87-.34-1.68-.65-2.58-1,.31-.74.63-1.48.91-2.23.49-1.28.95-2.57,1.45-3.85.17-.43.42-.84,1.04-.69.26.06.54.01,1,.01Z"/>
      <path class="cls-3" d="M97.84,97.53c-.04.4-.06.7-.1,1.06h-13.3c-.37-1.97-.42-3.92-.1-5.88.06-.35.06-.7.08-1.06.14-2.8.75-5.52,1.54-8.19,1.13-3.82,2.83-7.39,5.03-10.71,2.28-3.42,5.02-6.43,8.2-9.06,3-2.48,6.31-4.45,9.86-6,1.73-.75,3.58-1.23,5.38-1.79,4.29-1.35,8.72-1.61,13.16-1.34,2.3.14,4.6.53,6.85,1.04,2.15.49,4.25,1.22,6.32,1.98,2.89,1.07,5.53,2.63,8.03,4.42.92.66,1.79,1.39,2.67,2.1.54.44,1.1.88,1.59,1.38.54.56,1,1.2,1.53,1.77.35.37.8.65,1.14,1.02,3.05,3.38,5.41,7.18,7.14,11.4.99,2.41,1.69,4.87,2.27,7.4.82,3.6.91,7.23.84,10.88,0,.54-.23.7-.73.7-4.05,0-8.1,0-12.14-.02-.2,0-.56-.25-.56-.38.02-.7-.36-.74-.92-.74-7.97.01-15.94,0-23.91,0-9.69,0-19.38,0-29.07,0-.25,0-.5,0-.81,0ZM139.71,91.17c-.63-3.12-2.44-5.6-4.7-7.55-2.18-1.89-4.91-3.07-7.89-3.43-8.39-1.03-15.16,4.74-16.58,10.98h29.16Z"/>
      <path class="cls-6" d="M131.49,118.29c-.33.02-.57.05-.82.05-3.69,0-7.39,0-11.08,0-.86,0-.91-.14-.85-.99.11-1.46.14-2.93.2-4.39.04-1.12.27-1.2,1.23-1.19,3.36.03,6.73.03,10.09,0,.74,0,.94.24.96.96.03,1.54.17,3.07.26,4.61.02.3,0,.59,0,.94ZM128.53,113.52c-.23-.02-.48-.05-.72-.05-1.8,0-3.59,0-5.39,0-.44,0-.87.07-.89.55-.02.52.4.65.88.65,1.77-.02,3.54,0,5.31,0,.85,0,.98-.17.81-1.13Z"/>
      <path class="cls-6" d="M125.09,110.08c-1.57,0-3.14,0-4.7,0-.6,0-1.12-.14-1.18-.87-.07-.78.36-1.34,1.1-1.41.55-.05,1.11-.06,1.67-.03.57.03.75-.21.74-.76-.02-1.31,0-2.63,0-3.95,0-1.35.4-1.74,1.77-1.74.53,0,1.06-.02,1.59,0,.94.04,1.37.48,1.38,1.42.01,1.44.02,2.88,0,4.32,0,.52.16.73.7.7.58-.04,1.17-.03,1.74.02.78.07,1.08.53,1.04,1.44-.03.78-.56.84-1.15.85-1.57,0-3.14,0-4.7,0Z"/>
      <path class="cls-6" d="M108.1,100.15c3.17,0,6.2-.03,9.23.02,1.01.01,2.05.22,2.58,1.22.73,1.41.76,2.92.18,4.37-.31.76-1.03,1.18-1.9,1.18-.91,0-1.82-.01-2.73-.02-1.85,0-3.24-.89-4.32-2.3-.96-1.26-1.84-2.58-2.75-3.89-.14-.2-.22-.44-.29-.59ZM114.3,103.27c-.1,1.49,1.21,2.45,2.39,2.42,1.28-.04,2.3-.93,2.31-2.43.01-1.48-1.16-2.36-2.37-2.37-1.18,0-2.46.99-2.34,2.38Z"/>
      <path class="cls-6" d="M142.29,100.14c-1.1,1.52-2.11,2.93-3.13,4.33-1.19,1.63-2.73,2.57-4.82,2.47-.71-.03-1.42-.04-2.12.02-1.33.11-2.52-1.18-2.47-2.45.02-.56.03-1.11.08-1.67.14-1.75,1.25-2.6,3.03-2.66,2.45-.09,4.9-.07,7.36-.1.43,0,.85-.09,1.28-.09.24,0,.48.1.79.16ZM133.54,100.9c-1.35-.05-2.43,1.15-2.36,2.44.07,1.3,1.12,2.4,2.41,2.35,1.52-.06,2.43-1.13,2.41-2.42-.02-1.31-.95-2.38-2.46-2.36Z"/>
      <path class="cls-6" d="M107.57,112.68c0,1.6-1.14,2.78-2.7,2.77-1.48,0-2.78-1.32-2.77-2.78.01-1.46,1.35-2.77,2.82-2.71,1.45.06,2.72,1.04,2.65,2.73ZM104.93,110.52c-1.17-.02-2.26.99-2.25,2.13,0,1.28,1,2.22,2.21,2.26,1.18.03,2.16-1,2.16-2.22,0-1.25-.88-2.15-2.12-2.17Z"/>
      <path class="cls-4" d="M128.53,113.52c.17.96.04,1.13-.81,1.13-1.77,0-3.54,0-5.31,0-.49,0-.9-.13-.88-.65.02-.48.45-.55.89-.55,1.8.02,3.59,0,5.39,0,.25,0,.49.03.72.05Z"/>
      <path class="cls-4" d="M114.3,103.27c-.13-1.39,1.16-2.38,2.34-2.38,1.21,0,2.38.89,2.37,2.37-.01,1.49-1.04,2.39-2.31,2.43-1.18.03-2.49-.93-2.39-2.42Z"/>
      <path class="cls-4" d="M133.54,100.9c1.51-.02,2.44,1.05,2.46,2.36.02,1.29-.89,2.36-2.41,2.42-1.29.06-2.34-1.05-2.41-2.35-.07-1.29,1.01-2.49,2.36-2.44Z"/>
      <path class="cls-4" d="M104.93,110.52c1.24.02,2.12.91,2.12,2.17,0,1.21-.98,2.25-2.16,2.22-1.21-.03-2.21-.97-2.21-2.26,0-1.14,1.08-2.15,2.25-2.13Z"/>
      <path class="cls-4" d="M145.85,106.57c3.46-.2,6.21,3.1,6.16,6.07-.07,3.66-2.92,6.21-6.15,6.19-3.44-.03-6.1-2.56-6.16-6.2-.05-3.19,2.59-6.18,6.14-6.06ZM148.54,112.65c.07-1.68-1.2-2.66-2.65-2.73-1.47-.06-2.81,1.25-2.82,2.71-.01,1.47,1.29,2.78,2.77,2.78,1.56,0,2.7-1.17,2.7-2.77Z"/>
      <path class="cls-4" d="M145.89,110.49c1.24.02,2.12.91,2.12,2.17,0,1.21-.98,2.25-2.16,2.22-1.21-.03-2.21-.97-2.21-2.26,0-1.14,1.08-2.15,2.25-2.13Z"/>
    </g>
    <g>
      <path class="cls-4" d="M126.99,66.12c.1-1.11-.98-1.9-1.86-1.91-.94,0-1.93,1-1.91,1.93.02.89.8,1.9,1.92,1.85,1.1-.05,1.85-.77,1.85-1.88Z"/>
      <path class="cls-4" d="M148.86,76.14c0-1.01-.83-1.9-1.81-1.91-1.24-.02-1.87.62-1.86,1.9,0,1.1.74,1.85,1.82,1.86,1.09,0,1.85-.75,1.85-1.85Z"/>
      <path class="cls-4" d="M140.84,72.58c1.36-.02,1.78-.51,1.8-1.93.01-1.14-1.1-1.85-1.86-1.83-.98.02-1.91.96-1.87,1.95.05,1.11.79,1.83,1.93,1.82Z"/>
      <path class="cls-4" d="M151.51,84.97c.99-.02,1.87-.91,1.88-1.9,0-.96-.97-1.96-1.91-1.95-.96,0-1.87.99-1.84,1.99.03,1.03.88,1.88,1.88,1.87Z"/>
      <path class="cls-4" d="M109.49,72.58c1.06,0,1.84-.76,1.84-1.82,0-1.22-.78-1.86-1.87-1.95-.89-.07-1.91,1.03-1.91,1.94,0,1.02.86,1.83,1.93,1.83Z"/>
      <path class="cls-4" d="M96.5,92.79c1.02,0,1.92-.82,1.9-1.78-.02-.93-.85-1.92-1.91-1.92-1.03,0-1.89.83-1.91,1.85-.03,1.01.86,1.85,1.93,1.85Z"/>
      <path class="cls-4" d="M116.96,69.12c1.06,0,1.96-.78,1.94-1.78-.02-.97-.86-1.92-1.93-1.92-.96,0-1.88.91-1.92,1.88-.03.94.89,1.82,1.91,1.83Z"/>
      <path class="cls-4" d="M103.22,77.98c1.16,0,1.77-.7,1.92-1.8.12-.92-.9-1.93-1.86-1.95-.95-.02-1.94.94-1.95,1.89-.01,1,.85,1.85,1.88,1.86Z"/>
      <path class="cls-4" d="M100.7,83.06c0-.93-1.01-1.94-1.92-1.93-.95,0-1.82.92-1.83,1.93-.01,1.06.8,1.91,1.83,1.92.97.01,1.93-.95,1.92-1.92Z"/>
      <path class="cls-4" d="M133.24,69.12c1.09.03,1.91-.71,1.94-1.72.03-1.01-.85-1.96-1.84-1.98-1.04-.02-1.84.76-1.86,1.83-.02,1.13.66,1.85,1.75,1.87Z"/>
      <path class="cls-4" d="M153.8,92.79c1.09,0,1.88-.75,1.88-1.8,0-1.01-.85-1.89-1.86-1.9-1.06-.01-1.78.77-1.84,1.87-.06.95.8,1.95,1.82,1.84Z"/>
    </g>
    <path class="cls-4" d="M135.01,83.97c-2.18-1.89-4.91-3.07-7.89-3.43-8.39-1.03-15.16,4.74-16.58,10.98h29.16c-.63-3.12-2.44-5.6-4.7-7.55Z"/>
  </g>
  <g>
    <path class="cls-4" d="M98.53,43.16c1.94-.95,3.98-1.52,6.04-2.02.06.17.13.35.19.52-.44.26-.88.51-1.48.86.19,1.11.29,2.34.61,3.51.55,2.05,1.17,4.09,1.9,6.08.25.7.92,1.24,1.53,2.01-1.13.4-2.56.92-4,1.43,1.53-1.26.6-2.58.24-3.82-.56-1.95-1.16-3.88-1.73-5.82-.7-2.37-.83-2.45-3.3-2.16v-.6Z"/>
    <path class="cls-4" d="M112.31,52.6c1.01-.1,2.2-.22,3.16-.31-.82-3.73-1.61-7.34-2.44-11.13.46.32.93.54,1.24.88,2.04,2.23,4.07,4.48,6.07,6.75.7.8,1.57,1.61.14,2.82,1.3-.01,2.24-.02,3.25-.03.1-3.79.4-7.55-.88-11.19-.15-.43.66-1.19,1.12-1.94-1.29.06-2.7.12-4.1.18,1.94,1.22.89,3.17,1.4,4.62.39,1.11.14,2.45.18,3.92-.53-.63-.93-1.17-1.41-1.65-2.02-2.05-4.04-4.09-6.1-6.1-.22-.21-.69-.37-.98-.3-1.28.28-2.54.66-3.64.95,2.59,3.81,3.53,7.93,2.99,12.52Z"/>
    <path class="cls-4" d="M141.6,42.29c-1.81-.84-3.45-1.61-5.41-2.52-.28,1.3-.55,2.23-.66,3.18-.25,2.11-.51,4.23-.59,6.36-.04,1.04.33,2.1.55,3.33-1.39-.23-3.03-.49-4.66-.75,2.26-1.08,1.59-3.13,1.79-4.86.22-1.97.41-3.94.7-5.9.15-1.05-.18-1.57-1.23-1.46-.95.1-1.88.38-2.83.49-.6.07-1.24.01-1.83-.12-.09-.02-.2-.91-.02-1.06.38-.32.97-.62,1.44-.57,3.83.46,7.65,1,11.48,1.53,1.17.16,1.59.85,1.27,2.36Z"/>
    <path class="cls-4" d="M146.33,41.44c2.16.12,4.09.9,6.02,1.72-.05.19-.11.37-.16.56-.5-.07-1.01-.15-1.76-.26-.61,1.42-1.28,2.89-1.87,4.39-.62,1.57-1.15,3.17-1.73,4.75-.33.91-.65,1.8.69,2.38l-.3.36c-1.47-.44-2.94-.87-4.4-1.31,2.07-.23,2.04-1.99,2.53-3.31.61-1.62,1.18-3.26,1.79-4.88.95-2.51.96-2.53-.82-4.4Z"/>
    <path class="cls-4" d="M103.46,40.46c-1.53.53-2.93,1.01-4.55,1.57.85-2.29,2.91-2.98,4.55-1.57Z"/>
    <path class="cls-4" d="M151.97,41.92c-1.61-.46-3.02-.86-4.61-1.32,1.74-1.45,3.83-.85,4.61,1.32Z"/>
  </g>
  <text class="cls-5" transform="translate(96.95 132.71) scale(1.09 1)"><tspan x="0" y="0">ASSOCIAZIONE</tspan></text>
  <g>
    <path class="cls-1" d="M93.04,133.09c.88.05,1.68-.65,1.79-1.57.11-.92-.58-1.71-1.54-1.77-.96-.06-1.77.64-1.8,1.57-.03.92.66,1.72,1.54,1.77Z"/>
    <path class="cls-1" d="M89.73,129.79c-.82,0-1.49.65-1.5,1.47,0,.81.64,1.48,1.45,1.48.81,0,1.47-.63,1.5-1.44.03-.82-.63-1.52-1.45-1.51Z"/>
    <path class="cls-1" d="M86.25,129.96c-.69-.02-1.27.54-1.28,1.25-.02.71.55,1.29,1.26,1.31.72.02,1.28-.56,1.28-1.26.01-.71-.57-1.27-1.26-1.29Z"/>
    <path class="cls-1" d="M82.83,130.08c-.58-.02-1.07.38-1.13.98-.05.58.41,1.15,1.01,1.17.6.01,1.11-.46,1.13-1.05.02-.59-.43-1.09-1.02-1.1Z"/>
    <path class="cls-1" d="M79.46,129.92c-.47-.05-.92.29-1,.77-.09.48.24.91.74.96.49.06.95-.29,1-.77.06-.48-.27-.91-.74-.96Z"/>
  </g>
</svg>