<?xml version="1.0" encoding="UTF-8"?>
<svg id="Capa_1" data-name="Capa 1" xmlns="http://www.w3.org/2000/svg" viewBox="0 0 125 75">
  <defs>
    <style>
      .cls-1 {
        fill: #f4a710;
      }

      .cls-2, .cls-3 {
        fill: #ffef00;
      }

      .cls-4, .cls-5 {
        fill: #371e0a;
      }

      .cls-6 {
        fill: #fff;
      }

      .cls-7 {
        fill: #ea7527;
      }

      .cls-8 {
        fill: #009cde;
      }

      .cls-5 {
        font-family: OpenSans-Bold, 'Open Sans';
        font-size: 3.91px;
        font-weight: 700;
        letter-spacing: .05em;
      }

      .cls-3 {
        stroke: #371e0a;
        stroke-miterlimit: 10;
        stroke-width: 1.21px;
      }
    </style>
  </defs>
  <g>
    <g>
      <path class="cls-4" d="M53.71,38.39c-.46-.19-.91-.19-1.37-.02-.45.2-.79.52-.99.99-.19.46-.18.92,0,1.38.08.2.19.35.29.49.74,1.74-1.19,5.36-2.72,7.17-1.53,1.82-2.66,4.61-3.33,9.12,1.13-3.76,1.44-6.02,5.1-9.16,3-2.82,3.29-4.78,2.46-6.51.19,0,.39-.05.57-.13.46-.2.78-.52.97-.98.2-.47.2-.93.02-1.39-.2-.46-.52-.77-1-.97Z"/>
      <path class="cls-4" d="M30.82,10.16c-.67-.63-1.72-.59-2.35.08-.63.67-.59,1.72.08,2.35.67.63,1.72.59,2.35-.08.63-.67.59-1.72-.08-2.35ZM19.43,35.04c10.23,9,16.76-.51,29.97,9.56,5.44,4.14,1.94-20.69-8.02-29.99C31.43,5.31,18.96,2.88,14.04,7.62c-1.49,1.43,3.92.72,8.24,1.82,0,.06,0,.12,0,.19.44,2.4-1.89,4.12-3.83,4.96-.46.2-.45.71-.2,1,.03.19.13.36.33.47,1.85,1.01,2.74,3.38,2.4,5.39,0,.02,0,.03,0,.05-4.9,3.22-9.7,6.35-1.54,13.53ZM16.55,7.41c.05.32-.19.62-.51.69-.32.06-.62-.09-.76-.4-.13-.29.11-.67.5-.75.39-.09.73.13.78.45ZM18.64,28.21s4.15.11,5.63.09c1.45-.01,2.13.56,2.08.88-.05.32-.82.62-2.23.28-1.51-.36-5.48-1.25-5.48-1.25ZM19.64,28.94c.3-.23.7-.26.89-.06.19.2.16.6-.09.88-.25.29-.66.33-.9.07-.24-.26-.2-.65.1-.89ZM23.05,31.84c-.15.19-.4.25-.56.13-.16-.12-.17-.38-.03-.57.15-.19.4-.25.56-.13.16.12.17.38.03.57ZM23.46,32.15c.12-.16.32-.21.45-.11.13.1.14.31.02.47s-.32.21-.45.11c-.13-.1-.14-.31-.02-.47ZM21.5,31.3c-.19-.15-.2-.45-.02-.68.18-.23.48-.29.67-.14.19.15.2.45.02.68-.18.23-.47.29-.67.14ZM24.73,25.71c-.15.07-.34-.02-.42-.2-.08-.18-.02-.38.13-.45.15-.07.34.02.42.21.08.18.02.38-.13.45ZM22.65,26.84c-.21.1-.49-.03-.62-.29-.13-.26-.05-.55.17-.65.22-.1.5.03.62.29.12.26.04.55-.17.66ZM21.65,27.42c-.24.12-.56-.01-.73-.3-.16-.29-.09-.63.17-.77.25-.13.58,0,.72.3.15.3.07.64-.16.77ZM20.72,28.05c-.23.15-.62.04-.85-.26-.24-.29-.19-.69.1-.88.29-.2.68-.07.86.27.18.33.12.72-.11.87ZM21.65,24.32c-.59,1.17-2.91,3.65-2.96,3.57.09.03,1.85-2.82,2.11-4.02.39-1.1,1-1.49,1.24-1.36.23.12.27.81-.39,1.81ZM23.83,25.72c.1.22.03.47-.15.55-.18.08-.42-.03-.52-.25-.1-.22-.03-.47.15-.55.19-.08.42.03.52.25ZM23.56,9.84c2.03.76,3.58,2.1,3.58,4.52,0,2.64-2.27,4.52-4.85,6.27.01-2.03-.93-4.06-2.56-5.27,2.1-1.11,4.08-3.04,3.83-5.52ZM27.58,16.44c0-.19.18-.34.38-.32.21.02.35.19.31.38-.03.19-.2.33-.38.31-.18-.02-.32-.19-.32-.38ZM19.27,7.18c0,.4-.33.74-.76.75-.43.03-.8-.27-.84-.66-.04-.4.3-.75.76-.78.46-.02.83.29.84.69ZM22.01,7.23c-.03.47-.47.84-.98.81-.51,0-.92-.4-.92-.87,0-.47.43-.85.98-.84.54.02.96.42.93.9ZM24.72,7.55c-.11.53-.64.89-1.21.81-.57-.07-1.01-.55-.97-1.09.04-.55.58-.95,1.22-.87.64.09,1.07.61.96,1.15ZM27.31,8.41c-.36.52-.95.75-1.49.57-.57-.18-.98-.77-.86-1.38.12-.61.81-1,1.56-.76.77.25,1.15,1.07.79,1.57ZM28.87,16.63c.05-.24.29-.38.53-.3.24.07.37.31.3.53-.07.22-.31.36-.53.29-.22-.07-.35-.3-.3-.52ZM51.22,43.74s-.39-5.99-3.68-11.91c-3.05-6.05-8.73-11.25-12.04-13.21-6.29-3.96-9.5-6.76-8.49-8.75.91-1.72,5.74-1.77,12.14,4.44,3.42,3.19,8.45,10.1,10.45,16.88,2.26,6.73,1.61,12.61,1.62,12.56ZM31.57,18.3c-.28-.14-.39-.49-.25-.79.14-.3.5-.41.8-.26.31.15.4.53.24.8-.16.29-.51.38-.79.24ZM32.47,18.13c.18-.32.61-.43.93-.22.32.21.41.63.2.93-.21.3-.62.39-.92.2-.29-.2-.4-.59-.21-.91ZM30.4,17.66c-.25-.1-.38-.38-.28-.65.09-.26.4-.4.67-.29.27.12.39.42.27.68-.12.26-.41.37-.66.27ZM44.55,35.33c-3.85-4.1-8.95-7.22-12.09-8.59-2.82-1-7.64-2.59-8.15-4.42-.35-.72.13-2.23,2.41-3.05,2.23-.79,5.83-.27,8.9,2.06,3.42,2.39,8.03,7.63,10.93,12.68,3.05,5,4.23,9.73,4.18,9.72.05-.02-2.2-4.41-6.18-8.41ZM28.8,28.27c.44.02.71.39.66.76-.05.39-.4.64-.73.63-.34-.03-.52-.29-.66-.67-.13-.36.3-.76.73-.72ZM30.64,29.25c.1-.46.57-.76,1.04-.63.48.11.75.6.62,1.05-.13.45-.59.71-1.03.61-.44-.12-.72-.56-.62-1.02ZM36.16,32.32c-.55-.25-.82-.93-.58-1.53.24-.6.94-.88,1.56-.59.62.29.87,1.02.55,1.59-.31.56-.99.79-1.54.54ZM37.92,31.91c.35-.65,1.2-.86,1.9-.37.71.49.8,1.48.24,1.94-.58.48-1.28.57-1.78.22-.51-.36-.7-1.14-.35-1.78ZM35.05,30.59c-.2.52-.77.78-1.28.61-.5-.19-.79-.73-.63-1.27.16-.53.75-.84,1.29-.64.55.19.82.78.62,1.3ZM24.11,33.35c1.38-1.11,4.03-1.94,7.22-1.41,3.45.43,9.08,2.66,12.96,5.81,3.97,3.08,6.05,6.65,6.07,6.61,0,.04-2.84-3.12-7.13-5.18-4.23-2.2-9.62-2.95-12.19-2.59-4.9.47-6.75,1.08-8.19-.51-.36-.47-.17-1.63,1.26-2.72ZM20.52,29.82c.22-.25.57-.31.77-.13.2.17.2.52,0,.78-.21.26-.56.32-.77.13-.22-.19-.21-.54,0-.78ZM20.2,32.99c-.21-1.27-1.57-4.36-1.61-4.35.03-.03,2.02,2.84,2.53,4.01.57,1.11.34,1.85.09,1.9-.27.05-.74-.42-1-1.56ZM15.78,28.57c-.26-.62.04-1.34.67-1.6.63-.26,1.34.04,1.6.67.26.62-.04,1.34-.66,1.6-.63.26-1.34-.04-1.6-.67ZM24.6,35.92c.6.56,1.54.53,2.1-.07.56-.6.53-1.54-.07-2.1-.6-.56-1.54-.53-2.1.07-.56.6-.53,1.54.07,2.1ZM28.82,20.38c-.67-.63-1.72-.59-2.35.08-.63.67-.59,1.72.08,2.35.67.63,1.72.59,2.35-.08.63-.67.59-1.72-.08-2.35Z"/>
      <g>
        <path class="cls-4" d="M31.5,34.67c.43.11.58.15.58.15.36.1.33.13-.07.08,0-.21-4.5-.15-4.58-.08-.04-.1.17-.22.17-.22.34-.22.96-.36,1.34-.34,0-.02,1.36.09,2.55.4Z"/>
        <path class="cls-4" d="M43.18,37.44l-.17-.16c-.19-.17-.06-.11.28.14.07-.08,3.03,2.47,2.79,2.71l-.06.06c-.29-.13-.71-.48-.95-.78,0,0-.89-1.07-1.9-1.96Z"/>
        <path class="cls-4" d="M39.83,35.97c-.67-.46-1.32-.84-1.33-.83-.34-.2-.29-.24.12-.1.86.32,1.72.69,2.54,1.1.39.18.94.56,1.24.81,0,0,.21.16.59.51.93.82,1.8,1.8,1.8,1.8.25.29.18.35-.17.15l-1.07-.62c-.36-.19-.87-.55-1.14-.81,0,0-1.22-1.11-2.58-2.02Z"/>
        <g>
          <path class="cls-4" d="M36.27,35.04c-1.12-.56-2.43-1.03-2.43-1.03-.37-.13-.33-.2.09-.14.86.12,1.71.29,2.55.5.41.12,1.04.34,1.38.55,0,0,.94.52,1.78,1.1,1.23.8,2.41,1.8,2.4,1.8.29.24.23.29-.14.11-.67-.35-1.36-.64-2.06-.94-.38-.15-.94-.43-1.26-.64,0,0-1.15-.74-2.33-1.32Z"/>
          <path class="cls-4" d="M36.09,35.12c.99.49,1.99,1.07,1.98,1.08.33.19.27.24-.11.11,0,0-.32-.11-.86-.28-1.24-.39-2.84-.74-2.85-.73-.4-.09-1.01-.25-1.36-.36,0,0-.56-.21-1.25-.37-1.09-.31-2.34-.4-2.34-.39-.39-.03-.39-.12.03-.21.84-.15,1.7-.23,2.55-.23.43-.01,1.09.12,1.45.24,0-.02,1.47.53,2.75,1.15Z"/>
        </g>
      </g>
      <g>
        <path class="cls-4" d="M33.84,24.74c.36.38.49.52.49.52.29.33.24.36-.14.07.05-.12-4.31-3.01-4.37-3.11.03-.16.32-.15.32-.15.48-.02,1.16.28,1.51.56,0,0,1.21,1.03,2.19,2.11Z"/>
        <path class="cls-4" d="M45.22,32.93c-.12-.25-.12-.25-.12-.25-.13-.27,0-.16.27.25.1-.06,2.25,4.01,1.76,4.21l-.11.05c-.28-.26-.57-.81-.68-1.24,0,0-.45-1.57-1.12-3.02Z"/>
        <path class="cls-4" d="M42.12,30.01c-.48-.82-1-1.54-.99-1.54-.26-.38-.17-.42.19-.08.78.72,1.53,1.49,2.26,2.28.33.38.78,1,.98,1.43,0,0,.14.28.4.83.63,1.32,1.11,2.78,1.09,2.78.14.42,0,.48-.31.14-.31-.36-.59-.73-.94-1.07-.32-.34-.69-.96-.89-1.35,0,0-.78-1.78-1.8-3.4Z"/>
        <g>
          <path class="cls-4" d="M38.67,27.5c-.87-1.18-1.92-2.42-1.92-2.41-.3-.35-.21-.42.2-.14.83.56,1.63,1.16,2.42,1.76.38.31.91.88,1.17,1.25,0,0,.7,1.04,1.33,2.07.92,1.45,1.72,3.08,1.71,3.08.2.4.09.44-.24.11-.59-.64-1.22-1.24-1.87-1.83-.35-.31-.81-.9-1.05-1.26,0,0-.85-1.37-1.76-2.62Z"/>
          <path class="cls-4" d="M38.42,27.54c.77,1.05,1.53,2.17,1.52,2.17.25.37.15.42-.2.1,0,0-.29-.27-.79-.69-1.14-1-2.65-2.17-2.65-2.17-.37-.29-.91-.81-1.2-1.14,0,0-.45-.55-1.02-1.15-.89-.99-2-1.94-2.01-1.93-.35-.3-.27-.41.19-.25.93.36,1.81.79,2.68,1.24.44.22,1.03.73,1.32,1.07,0,0,1.17,1.4,2.16,2.74Z"/>
        </g>
      </g>
      <g>
        <path class="cls-4" d="M36.56,16.06c.43.52.58.7.58.7.35.45.28.45-.15.02.11-.15-5.19-4.55-5.31-4.5.04-.13.41-.05.41-.05.6.12,1.41.61,1.83,1,.02-.02,1.47,1.39,2.65,2.83Z"/>
        <path class="cls-4" d="M48.45,29.75l-.1-.34c-.11-.36,0-.18.25.4.13-.04,1.91,5.52,1.53,5.63l-.1.03c-.25-.4-.53-1.18-.63-1.75.02,0-.37-2.06-.94-3.97Z"/>
        <path class="cls-4" d="M45.53,25.1c-.47-1.12-.99-2.12-1-2.12-.27-.52-.18-.52.2,0,.79,1.13,1.55,2.29,2.22,3.5.31.57.75,1.46.9,2.03,0,0,.12.38.35,1.12.53,1.77.97,3.68.94,3.69.1.57-.02.58-.28.04-.26-.57-.57-1.12-.86-1.67-.26-.55-.63-1.43-.8-1.96.01,0-.68-2.39-1.69-4.62Z"/>
        <g>
          <path class="cls-4" d="M41.96,20.86c-.94-1.62-2.15-3.3-2.16-3.3-.34-.48-.25-.51.21-.06.93.9,1.81,1.86,2.66,2.84.4.5,1,1.3,1.25,1.83-.02.01.76,1.4,1.35,2.82.91,1.99,1.64,4.2,1.63,4.2.17.55.07.55-.23,0-.54-1.01-1.17-1.96-1.79-2.92-.35-.51-.81-1.35-1.05-1.86-.01.01-.87-1.87-1.88-3.56Z"/>
          <path class="cls-4" d="M41.71,20.79c.85,1.43,1.63,2.98,1.62,2.98.26.51.16.51-.21.02,0,0-.3-.42-.82-1.1-1.22-1.56-2.87-3.43-2.89-3.41-.43-.45-1.02-1.21-1.37-1.65,0,.01-.52-.74-1.22-1.55-1.06-1.33-2.41-2.62-2.41-2.61-.43-.4-.33-.48.21-.16,1.09.66,2.12,1.41,3.12,2.18.51.39,1.17,1.13,1.53,1.58,0,0,1.35,1.88,2.44,3.72Z"/>
        </g>
      </g>
      <g>
        <path class="cls-4" d="M13.28,62.23c.31.85,2.18,1.2,4.86-.84,2.44-1.9,2.03-9.52,7.64-9.87-.61,1.2-.27,3.16-.09,3.97-.42.27-.87.67-1.24,1.24-1.09,1.47-1.7,3.53-1.9,4.72-.43,2.28,1.03,3.44,1.56,3.05.58-.39,1.1-1.17.77-2.95-.18-.92-.22-2.82.33-4.35.15-.52.39-.94.66-1.27.41.27,2.26,1.34,4.7.8.91-.2,1.82-.71,2.7-1.39-1.14,1.14-2.1,3.72-.51,5.32,2.26,2.28,6.57,1.27,7.25-1,2.71-9.07,8.77-7.03,10.85-14.58h.01s.04-.01.04-.01c0,0-.02-.01-.02-.02,0,0,0-.02.01-.03h-.03s0,0,0,0c0,0,0,0,0-.01h.04s-.02-.02-.02-.03c0,0,0-.02.01-.03h-.03s-.01.01-.01.01c-12.77-6.34-14.66-7-18.93-6.04-3.1.69-4.39,3.17-1.36,4.27-1.09-.25-2.12-.31-3.04-.11-2.53.57-3.9,4.35-4.12,5-1.29-.08-3.17-.25-3.74-.77-.85-.59-1.52-.79-1.95-.5-.34.15-.39,1.52,1.35,2,1.17.34,3.15-.08,4.43-.38.27.54,1.02,1.79,2.31,2.18-4.73.27-5.91,7.43-8.62,8.91-2.53-.42-4.3,2.08-3.89,2.73ZM43.85,44.43c-2.52-.47-4.66-.67-6.82-.77-2.97.24-4.41-1.19-4.39-2.19.02-.97,1.73-2.22,4.87-1.34,1.66.46,4.64,1.43,7.03,2.67,2.45,1.17,3.97,2.87,3.94,2.86.01-.02-2.09-.82-4.63-1.22ZM48.16,46.05c0-.05-2.94-.38-6.3.34-3.37.6-7.15,1.72-9.09,2.45-3.77,1.43-6.16,0-6.43-1.28-.26-1.27,1.48-3.36,5.72-3.39,2.26-.02,6.34.03,9.84.43,3.53.28,6.31,1.43,6.26,1.46ZM35.8,53.57c1.38-1.71,4.47-3.85,7.25-4.82,2.76-1.05,5.07-1.81,5.06-1.84.02.02-2.1,1.58-4.22,3.41-2.18,1.8-3.84,4.37-4.17,5.79-.67,2.59-2.49,3.58-3.86,3.43-1.2-.09-2.77-2.69-.07-5.97ZM32.3,49.33c2.13-.79,6.04-1.94,9.46-2.45,3.43-.55,6.28-.41,6.28-.41,0,0-2.84.67-5.85,2.13-3.03,1.43-6.22,3.54-7.71,4.83-2.92,2.47-5.3,2.12-6.2,1.18-.88-.93-.02-3.82,4.02-5.27Z"/>
        <path class="cls-4" d="M30.84,51.25c.71-.43,1.58-.17,1.95.5.37.69.13,1.52-.49,1.9-.61.37-1.4.18-1.89-.42-.49-.6-.28-1.55.44-1.98Z"/>
        <path class="cls-4" d="M33.56,49.96c.62-.32,1.37-.06,1.67.56.3.62.04,1.35-.55,1.65-.6.3-1.33.07-1.66-.54-.33-.6-.09-1.36.54-1.67Z"/>
        <path class="cls-4" d="M36.31,48.84c.55-.25,1.19,0,1.42.54.23.55-.01,1.17-.54,1.41-.53.24-1.16,0-1.41-.53-.25-.53-.02-1.18.54-1.42Z"/>
        <path class="cls-4" d="M39.09,47.84c.47-.19,1,.05,1.17.52.17.47-.06.98-.51,1.16-.46.18-.98-.04-1.17-.5-.19-.46.03-.99.51-1.18Z"/>
        <path class="cls-4" d="M41.96,47.01c.41-.12.83.12.92.52.09.4-.14.79-.5.9-.37.12-.78-.11-.91-.49-.13-.39.09-.8.5-.92Z"/>
        <path class="cls-4" d="M30.31,48.28c-.74.18-1.5-.29-1.71-1.05-.21-.76.26-1.54,1.06-1.74.8-.18,1.57.32,1.72,1.09.15.78-.33,1.53-1.07,1.7Z"/>
        <path class="cls-4" d="M33.11,47.54c-.67.12-1.32-.34-1.45-1.02-.14-.69.32-1.34,1.02-1.47.7-.13,1.36.35,1.46,1.04.1.69-.36,1.32-1.03,1.44Z"/>
        <path class="cls-4" d="M35.95,46.94c-.59.06-1.13-.34-1.21-.94-.09-.59.33-1.16.95-1.23.61-.07,1.15.36,1.21.96.06.6-.36,1.14-.95,1.21Z"/>
        <path class="cls-4" d="M38.83,46.49c-.5.04-.94-.33-.98-.84-.04-.51.33-.95.85-.99.52-.04.96.36.98.86.02.51-.36.93-.85.97Z"/>
        <path class="cls-4" d="M40.97,45.47c-.01-.41.32-.75.74-.76.42,0,.76.33.76.74,0,.41-.34.75-.74.76-.4,0-.74-.33-.75-.74Z"/>
        <path class="cls-4" d="M35.99,42.7c-.52-.03-.93-.5-.93-1.05,0-.55.49-.98,1.07-.95.58.05.99.55.93,1.1-.07.55-.55.95-1.07.9Z"/>
        <path class="cls-4" d="M37.99,42.81c-.47-.07-.8-.51-.74-1,.06-.48.51-.82,1.01-.75.5.06.83.55.74,1.02-.09.49-.54.78-1,.72Z"/>
        <path class="cls-4" d="M39.99,43.07c-.4-.1-.66-.49-.58-.91.08-.42.49-.69.92-.58.42.1.68.51.57.92-.11.41-.52.66-.91.57Z"/>
        <path class="cls-4" d="M41.98,43.47c-.33-.1-.52-.45-.43-.79.1-.34.46-.54.81-.44.35.11.54.49.42.82-.12.34-.48.51-.8.41Z"/>
        <path class="cls-4" d="M44.32,43.1c.28.12.4.42.27.69-.13.26-.43.38-.69.28-.26-.11-.38-.42-.27-.69.1-.27.42-.39.69-.28Z"/>
        <path class="cls-4" d="M37.54,55.38c.56.35.79,1.04.53,1.54-.19.52-.87.79-1.51.63-.64-.17-.94-.89-.67-1.61.34-.67,1.1-.91,1.65-.56Z"/>
        <path class="cls-4" d="M37.41,53.69c.37-.52,1.08-.56,1.51-.18.45.39.48,1.01.18,1.45-.3.43-.95.53-1.45.23-.5-.3-.6-.97-.23-1.49Z"/>
        <path class="cls-4" d="M39.26,51.82c.38-.37.96-.36,1.29.02.32.37.32.95-.02,1.28-.34.33-.91.33-1.28,0-.38-.34-.38-.93,0-1.3Z"/>
        <path class="cls-4" d="M41.29,50.24c.35-.26.84-.19,1.09.15.25.34.18.82-.14,1.06-.33.25-.79.21-1.07-.12-.27-.32-.23-.82.12-1.09Z"/>
        <path class="cls-4" d="M43.44,48.9c.3-.19.68-.11.86.18.18.29.1.68-.18.87-.28.19-.67.1-.86-.18-.19-.28-.11-.67.18-.87Z"/>
      </g>
    </g>
    <g>
      <path class="cls-4" d="M21.65,24.32c.66-1,.62-1.69.39-1.81-.24-.12-.85.26-1.24,1.36-.26,1.2-2.02,4.05-2.11,4.02.05.08,2.37-2.4,2.96-3.57Z"/>
      <path class="cls-4" d="M23.32,25.47c-.19.08-.26.33-.15.55.1.22.33.33.52.25.19-.08.25-.33.15-.55-.1-.22-.33-.33-.52-.25Z"/>
      <path class="cls-4" d="M22.2,25.89c-.22.1-.29.4-.17.65.13.26.4.39.62.29.22-.1.29-.4.17-.66-.12-.26-.4-.39-.62-.29Z"/>
      <path class="cls-4" d="M21.65,27.42c.24-.12.31-.47.16-.77-.14-.3-.47-.43-.72-.3-.26.13-.33.48-.17.77.16.29.49.42.73.3Z"/>
      <path class="cls-2" d="M27.14,14.38c0-2.42-1.55-3.75-3.58-4.52.25,2.48-1.74,4.41-3.83,5.52,1.63,1.21,2.58,3.24,2.56,5.27,2.58-1.75,4.85-3.63,4.85-6.27Z"/>
      <path class="cls-2" d="M25.81,9c.55.18,1.13-.05,1.49-.57.36-.5-.02-1.32-.79-1.57-.75-.23-1.44.15-1.56.76-.11.61.3,1.2.86,1.38Z"/>
      <path class="cls-4" d="M19.96,26.9c-.29.19-.34.59-.1.88.24.29.62.41.85.26.23-.16.28-.55.11-.87-.18-.34-.57-.47-.86-.27Z"/>
      <path class="cls-2" d="M23.51,8.39c.57.08,1.11-.28,1.21-.81.11-.54-.32-1.06-.96-1.15-.63-.08-1.18.32-1.22.87-.04.54.4,1.02.97,1.09Z"/>
      <path class="cls-4" d="M21.48,30.62c-.18.23-.17.53.02.68.19.15.49.09.67-.14.18-.23.17-.53-.02-.68-.19-.15-.48-.08-.67.14Z"/>
      <path class="cls-4" d="M26.35,29.18c.05-.32-.63-.89-2.08-.88-1.48.02-5.63-.09-5.63-.09,0,0,3.97.89,5.48,1.25,1.41.34,2.18.04,2.23-.28Z"/>
      <path class="cls-4" d="M18.58,28.64s1.4,3.08,1.61,4.35c.26,1.14.73,1.62,1,1.56.26-.05.48-.79-.09-1.9-.51-1.17-2.5-4.04-2.53-4.01Z"/>
      <path class="cls-4" d="M16.44,26.97c-.62.26-.92.97-.67,1.6.26.62.97.92,1.6.67.62-.26.92-.97.66-1.6-.26-.63-.97-.92-1.6-.67Z"/>
      <path class="cls-4" d="M23.05,31.84c.15-.19.13-.45-.03-.57-.16-.12-.41-.06-.56.13-.15.19-.14.45.03.57.16.12.41.06.56-.13Z"/>
      <path class="cls-2" d="M27.9,16.85c.18.02.35-.13.38-.31.03-.2-.11-.36-.31-.38-.2-.02-.38.12-.38.32,0,.19.14.36.32.38Z"/>
      <path class="cls-4" d="M20.53,28.87c-.19-.2-.59-.17-.89.06-.3.23-.34.63-.1.89.24.26.65.22.9-.07.25-.28.28-.67.09-.88Z"/>
      <path class="cls-4" d="M21.29,30.47c.21-.26.21-.61,0-.78-.2-.17-.55-.11-.77.13-.22.25-.23.6,0,.78.22.19.57.13.77-.13Z"/>
      <path class="cls-4" d="M23.46,32.15c-.12.16-.11.37.02.47.13.1.34.05.45-.11s.11-.37-.02-.47c-.13-.1-.34-.05-.45.11Z"/>
      <path class="cls-2" d="M18.43,6.52c-.46.03-.8.38-.76.78.04.4.41.69.84.66.43-.02.77-.36.76-.75,0-.4-.39-.71-.84-.69Z"/>
      <path class="cls-2" d="M29.17,17.18c.22.06.45-.07.53-.29.08-.23-.06-.46-.3-.53-.24-.07-.48.07-.53.3-.05.23.08.46.3.52Z"/>
      <path class="cls-2" d="M15.77,6.98c-.39.08-.63.46-.5.75.14.31.44.46.76.4.32-.08.56-.37.51-.69-.05-.32-.39-.55-.78-.45Z"/>
      <path class="cls-2" d="M32.69,19.06c.3.19.71.1.92-.2.21-.3.12-.72-.2-.93-.32-.21-.75-.1-.93.22-.19.32-.08.71.21.91Z"/>
      <path class="cls-8" d="M51.23,39.77c-.14-2.28-.55-5.33-1.64-8.57-2-6.78-7.03-13.69-10.45-16.88-6.4-6.21-11.23-6.16-12.14-4.44-1,1.99,2.21,4.79,8.49,8.75,3.31,1.96,8.99,7.17,12.04,13.21,3.28,5.92,3.69,11.95,3.68,11.91,0,.02.13-1.23.05-3.25-.06-.25-.08-.49-.04-.74ZM30.9,12.53c-.63.67-1.68.71-2.35.08-.67-.63-.71-1.68-.08-2.35.63-.67,1.68-.71,2.35-.08.67.63.71,1.68.08,2.35ZM36.99,16.8c.11-.15-5.19-4.55-5.31-4.5.04-.13.41-.05.41-.05.6.12,1.41.61,1.83,1,.02-.02,1.47,1.39,2.65,2.83.43.52.58.7.58.7.35.45.28.45-.15.02ZM43.12,23.81s-.3-.42-.82-1.1c-1.22-1.56-2.87-3.43-2.89-3.41-.43-.45-1.02-1.21-1.37-1.65,0,.01-.52-.74-1.22-1.55-1.06-1.33-2.41-2.62-2.41-2.61-.43-.4-.33-.48.21-.16,1.09.66,2.12,1.41,3.12,2.18.51.39,1.17,1.13,1.53,1.58,0,0,1.35,1.88,2.44,3.72.85,1.43,1.63,2.98,1.62,2.98.26.51.16.51-.21.02ZM46.68,29.23c-.54-1.01-1.17-1.96-1.79-2.92-.35-.51-.81-1.35-1.05-1.86-.01.01-.87-1.87-1.88-3.56-.94-1.62-2.15-3.3-2.16-3.3-.34-.48-.25-.51.21-.06.93.9,1.81,1.86,2.66,2.84.4.5,1,1.3,1.25,1.83-.02.01.76,1.4,1.35,2.82.91,1.99,1.64,4.2,1.63,4.2.17.55.07.55-.23,0ZM48.87,33.37c-.26-.57-.57-1.12-.86-1.67-.26-.55-.63-1.43-.8-1.96.01,0-.68-2.39-1.69-4.62-.47-1.12-.99-2.12-1-2.12-.27-.52-.18-.52.2,0,.79,1.13,1.55,2.29,2.22,3.5.31.57.75,1.46.9,2.03,0,0,.12.38.35,1.12.53,1.77.97,3.68.94,3.69.1.57-.02.58-.28.04ZM50.11,35.46l-.1.03c-.25-.4-.53-1.18-.63-1.75.02,0-.37-2.06-.94-3.97l-.1-.34c-.11-.36,0-.18.25.4.13-.04,1.91,5.52,1.53,5.63Z"/>
      <path class="cls-2" d="M47.69,43.41c-2.48-1.65-4.72-2.61-6.79-3.17,1.76.75,3.95,1.78,6.79,3.17Z"/>
      <path class="cls-2" d="M31.57,18.33c.28.14.63.05.79-.24.16-.28.06-.66-.24-.8-.3-.15-.66-.04-.8.26-.14.29-.02.65.25.79Z"/>
      <path class="cls-2" d="M21.08,6.35c-.54-.01-.98.37-.98.84,0,.47.42.86.92.87.51.02.94-.34.98-.81.03-.48-.38-.87-.93-.9Z"/>
      <path class="cls-1" d="M43.22,39.21c4.29,2.06,7.13,5.22,7.13,5.18-.02.04-2.1-3.53-6.07-6.61-3.87-3.15-9.51-5.38-12.96-5.81-3.19-.53-5.84.3-7.22,1.41-1.42,1.09-1.61,2.25-1.26,2.72,1.44,1.59,3.28.98,8.19.51,2.57-.35,7.96.4,12.19,2.59ZM43.29,37.44c.07-.08,3.03,2.47,2.79,2.71l-.06.06c-.29-.13-.71-.48-.95-.78,0,0-.89-1.07-1.9-1.96l-.17-.16c-.19-.17-.06-.11.28.14ZM38.62,35.06c.86.32,1.72.69,2.54,1.1.39.18.94.56,1.24.81,0,0,.21.16.59.51.93.82,1.8,1.8,1.8,1.8.25.29.18.35-.17.15l-1.07-.62c-.36-.19-.87-.55-1.14-.81,0,0-1.22-1.11-2.58-2.02-.67-.46-1.32-.84-1.33-.83-.34-.2-.29-.24.12-.1ZM33.93,33.9c.86.12,1.71.29,2.55.5.41.12,1.04.34,1.38.55,0,0,.94.52,1.78,1.1,1.23.8,2.41,1.8,2.4,1.8.29.24.23.29-.14.11-.67-.35-1.36-.64-2.06-.94-.38-.15-.94-.43-1.26-.64,0,0-1.15-.74-2.33-1.32-1.12-.56-2.43-1.03-2.43-1.03-.37-.13-.33-.2.09-.14ZM26.7,35.87c-.56.6-1.5.63-2.1.07-.6-.56-.63-1.5-.07-2.1.56-.6,1.5-.63,2.1-.07.6.56.63,1.5.07,2.1ZM32.01,34.94c0-.21-4.5-.15-4.58-.08-.04-.1.17-.22.17-.22.34-.22.96-.36,1.34-.34,0-.02,1.36.09,2.55.4.43.11.58.15.58.15.36.1.33.13-.07.08ZM31.65,34.59c-1.09-.31-2.34-.4-2.34-.39-.39-.03-.39-.12.03-.21.84-.15,1.7-.23,2.55-.23.43-.01,1.09.12,1.45.24,0-.02,1.47.53,2.75,1.15.99.49,1.99,1.07,1.98,1.08.33.19.27.24-.11.11,0,0-.32-.11-.86-.28-1.24-.39-2.84-.74-2.85-.73-.4-.09-1.01-.25-1.36-.36,0,0-.56-.21-1.25-.37Z"/>
      <path class="cls-2" d="M33.14,29.95c-.17.54.12,1.09.63,1.27.51.17,1.08-.09,1.28-.61.2-.52-.07-1.12-.62-1.3-.54-.2-1.13.11-1.29.64Z"/>
      <path class="cls-2" d="M28.07,29.02c.13.38.32.64.66.67.33.02.67-.24.73-.63.05-.37-.22-.74-.66-.76-.43-.04-.86.36-.73.72Z"/>
      <path class="cls-4" d="M24.43,25.06c-.15.07-.21.27-.13.45.08.18.27.27.42.2.15-.07.21-.27.13-.45-.08-.18-.27-.27-.42-.21Z"/>
      <path class="cls-2" d="M31.68,28.65c-.47-.12-.94.17-1.04.63-.1.46.18.91.62,1.02.44.11.9-.15,1.03-.61.13-.45-.14-.93-.62-1.05Z"/>
      <path class="cls-2" d="M37.14,30.23c-.62-.29-1.32,0-1.56.59-.24.6.02,1.28.58,1.53.55.25,1.23.02,1.54-.54.32-.57.07-1.3-.55-1.59Z"/>
      <path class="cls-8" d="M24.3,22.35c.51,1.82,5.34,3.41,8.15,4.42,3.14,1.37,8.24,4.48,12.09,8.59,3.98,4,6.23,8.39,6.18,8.41.05,0-1.14-4.71-4.18-9.72-2.9-5.05-7.51-10.29-10.93-12.68-3.07-2.33-6.67-2.85-8.9-2.06-2.29.82-2.77,2.32-2.41,3.05ZM45.37,32.95c.1-.06,2.25,4.01,1.76,4.21l-.11.05c-.28-.26-.57-.81-.68-1.24,0,0-.45-1.57-1.12-3.02-.12-.25-.12-.25-.12-.25-.13-.27,0-.16.27.25ZM41.33,28.41c.78.72,1.53,1.49,2.25,2.28.33.38.78,1,.98,1.43,0,0,.14.28.4.83.63,1.32,1.11,2.78,1.09,2.78.14.42,0,.48-.31.14-.31-.36-.59-.73-.94-1.07-.32-.34-.69-.96-.89-1.35,0,0-.78-1.78-1.8-3.4-.48-.82-1-1.54-.99-1.54-.26-.38-.17-.42.19-.08ZM36.95,24.97c.83.56,1.63,1.16,2.42,1.76.38.31.91.88,1.17,1.25,0,0,.7,1.04,1.33,2.07.92,1.45,1.72,3.08,1.71,3.08.2.4.09.44-.24.11-.59-.64-1.22-1.24-1.87-1.83-.35-.31-.81-.9-1.05-1.26,0,0-.85-1.37-1.76-2.62-.87-1.18-1.92-2.42-1.92-2.41-.3-.35-.21-.42.2-.14ZM32.26,22.52c.93.36,1.81.79,2.68,1.24.44.22,1.03.73,1.32,1.07,0,0,1.17,1.4,2.16,2.74.77,1.05,1.53,2.17,1.52,2.17.25.37.15.42-.2.1,0,0-.29-.27-.79-.69-1.14-1-2.65-2.17-2.65-2.17-.37-.29-.91-.81-1.2-1.14,0,0-.45-.55-1.02-1.15-.89-.99-2-1.94-2.01-1.93-.35-.3-.27-.41.19-.25ZM30.14,22.09c.48-.02,1.16.28,1.51.56,0,0,1.21,1.03,2.19,2.11.36.38.49.52.49.52.29.33.24.36-.14.07.05-.12-4.31-3.01-4.37-3.11.03-.16.32-.15.32-.15ZM28.82,20.4c.67.63.71,1.68.08,2.35-.62.67-1.68.71-2.35.08-.67-.63-.71-1.68-.08-2.35.63-.67,1.68-.71,2.35-.08Z"/>
      <path class="cls-2" d="M38.27,33.72c.5.35,1.2.26,1.78-.22.56-.45.47-1.45-.24-1.94-.7-.49-1.55-.27-1.9.37-.35.64-.16,1.43.35,1.78Z"/>
      <path class="cls-2" d="M30.4,17.69c.25.11.54-.01.66-.27.12-.26,0-.56-.27-.68-.27-.11-.58.03-.67.29-.1.27.03.55.28.65Z"/>
      <path class="cls-7" d="M35.8,53.6c-2.7,3.27-1.13,5.88.07,5.97,1.36.15,3.19-.84,3.86-3.43.32-1.42,1.98-3.99,4.17-5.79,2.12-1.83,4.24-3.39,4.22-3.41,0,.03-2.3.79-5.06,1.84-2.78.97-5.87,3.11-7.25,4.82ZM38.06,56.95c-.19.52-.87.79-1.51.63-.64-.17-.94-.89-.67-1.61.34-.67,1.1-.91,1.65-.56.56.35.79,1.04.53,1.54ZM39.1,54.98c-.3.43-.95.53-1.45.23-.5-.3-.6-.97-.23-1.49.37-.52,1.08-.56,1.51-.18.45.39.48,1.01.18,1.45ZM40.53,53.15c-.34.33-.91.33-1.28,0-.38-.34-.38-.93,0-1.3.38-.37.96-.36,1.29.02.32.37.32.95-.02,1.28ZM42.23,51.48c-.33.25-.79.21-1.07-.12-.27-.32-.23-.82.12-1.09.35-.26.84-.19,1.09.15.25.34.18.82-.14,1.06ZM43.44,48.92c.3-.19.68-.11.86.18.18.29.1.68-.18.87-.28.19-.67.1-.86-.18-.19-.28-.11-.67.18-.87Z"/>
      <path class="cls-1" d="M44.53,42.82c-2.39-1.23-5.36-2.2-7.03-2.67-3.14-.88-4.85.37-4.87,1.34-.02,1,1.42,2.44,4.39,2.19,2.16.1,4.3.3,6.82.77,2.54.4,4.64,1.2,4.63,1.22.03,0-1.49-1.69-3.94-2.86ZM35.99,42.72c-.52-.03-.93-.5-.93-1.05,0-.55.49-.98,1.07-.95.58.05.99.55.93,1.1-.07.55-.55.95-1.07.9ZM38.99,42.11c-.09.49-.54.78-1,.72-.47-.07-.8-.51-.74-1,.06-.48.51-.82,1.01-.75.5.06.83.55.74,1.02ZM40.9,42.53c-.11.41-.52.66-.91.57-.4-.1-.66-.49-.58-.91.08-.42.49-.69.92-.58.42.1.68.51.57.92ZM42.78,43.09c-.12.34-.48.51-.8.41-.33-.1-.52-.45-.43-.79.1-.34.46-.54.81-.44.35.11.54.49.42.82ZM44.59,43.81c-.13.26-.43.38-.69.28-.26-.11-.38-.42-.27-.69.1-.27.42-.39.69-.28.28.12.4.42.27.69Z"/>
      <path class="cls-7" d="M48.04,46.5s-2.85-.14-6.28.41c-3.42.51-7.32,1.65-9.46,2.45-4.04,1.46-4.9,4.34-4.02,5.27.89.94,3.27,1.3,6.2-1.18,1.49-1.29,4.68-3.41,7.71-4.83,3.01-1.46,5.85-2.12,5.85-2.13ZM32.29,53.68c-.61.37-1.4.18-1.89-.42-.49-.6-.28-1.55.44-1.98.71-.43,1.58-.17,1.95.5.37.69.13,1.52-.49,1.9ZM34.67,52.19c-.6.3-1.33.07-1.66-.54-.33-.6-.09-1.36.54-1.67.62-.32,1.37-.06,1.67.56.3.62.04,1.35-.55,1.65ZM37.18,50.81c-.53.24-1.16,0-1.41-.53-.25-.53-.02-1.18.54-1.42.55-.25,1.19,0,1.42.54.23.55-.01,1.17-.54,1.41ZM39.75,49.55c-.46.18-.98-.04-1.17-.5-.19-.46.03-.99.51-1.18.47-.19,1,.05,1.17.52.17.47-.06.98-.51,1.16ZM41.46,47.96c-.13-.39.09-.8.5-.92.41-.12.83.12.92.52.09.4-.14.79-.5.9-.37.12-.78-.11-.91-.49Z"/>
      <path class="cls-7" d="M32.77,48.86c1.94-.73,5.72-1.85,9.09-2.45,3.36-.71,6.3-.39,6.3-.34.04-.03-2.73-1.18-6.26-1.46-3.5-.4-7.58-.44-9.84-.43-4.24.03-5.98,2.12-5.72,3.39.27,1.29,2.66,2.71,6.43,1.28ZM41.71,44.73c.42,0,.76.33.76.74,0,.41-.34.75-.74.76-.4,0-.74-.33-.75-.74-.01-.41.32-.75.74-.76ZM38.7,44.68c.52-.04.96.36.98.86.02.51-.36.93-.85.97-.5.04-.94-.33-.98-.84-.04-.51.33-.95.85-.99ZM35.68,44.81c.61-.07,1.15.36,1.21.96.06.6-.36,1.14-.95,1.21-.59.06-1.13-.34-1.21-.94-.09-.59.33-1.16.95-1.23ZM32.67,45.09c.7-.13,1.36.35,1.46,1.04.1.69-.36,1.32-1.03,1.44-.67.12-1.32-.34-1.45-1.02-.14-.69.32-1.34,1.02-1.47ZM28.6,47.25c-.21-.76.26-1.54,1.06-1.74.8-.18,1.57.32,1.72,1.09.15.78-.33,1.53-1.07,1.7-.74.18-1.5-.29-1.71-1.05Z"/>
      <path class="cls-2" d="M51.27,40.51c0-.23-.02-.48-.04-.74-.04.24-.03.49.04.74Z"/>
      <path class="cls-2" d="M40.9,40.24c-4.43-1.87-6.2-1.94-8.99-1.31-.52.12-.99.29-1.4.49,3.24.11,6.54-.22,10.39.82Z"/>
      <path class="cls-2" d="M50.89,44.96h-.03s-.01.01-.01.01c-1.13-.56-2.18-1.08-3.15-1.56.56.37,1.13.77,1.71,1.21.6.46,1.09.56,1.48.37,0,0,0,0,0,0,0,0,0-.02.01-.03Z"/>
    </g>
  </g>
  <g>
    <g>
      <path class="cls-4" d="M70.3,39.36c-.18.47-.18.92.02,1.39.19.46.51.78.97.98.18.09.38.13.57.13-.83,1.72-.53,3.69,2.46,6.51,3.66,3.14,3.96,5.4,5.1,9.16-.67-4.51-1.8-7.31-3.33-9.12-1.53-1.82-3.46-5.43-2.72-7.17.1-.15.21-.29.29-.49.18-.47.19-.92,0-1.38-.2-.47-.54-.79-.99-.99-.47-.18-.92-.17-1.37.02-.47.2-.79.52-1,.97Z"/>
      <path class="cls-4" d="M94.1,12.51c.63.67,1.68.71,2.35.08.67-.63.71-1.68.08-2.35-.63-.67-1.68-.71-2.35-.08-.67.63-.71,1.68-.08,2.35ZM104.03,21.51s0-.03,0-.05c-.34-2.01.55-4.38,2.4-5.39.2-.11.31-.29.33-.47.25-.29.25-.8-.2-1-1.95-.84-4.27-2.56-3.83-4.96.01-.07.01-.13,0-.19,4.32-1.09,9.73-.38,8.24-1.82-4.92-4.75-17.39-2.31-27.35,6.99-9.96,9.3-13.46,34.13-8.02,29.99,13.22-10.07,19.74-.56,29.97-9.56,8.16-7.18,3.37-10.32-1.54-13.53ZM109.23,6.95c.39.08.63.46.5.75-.14.31-.44.46-.76.4-.32-.08-.56-.37-.51-.69.05-.32.39-.55.78-.45ZM100.89,29.46c-1.41.34-2.18.04-2.23-.28-.05-.32.63-.89,2.08-.88,1.48.02,5.63-.09,5.63-.09,0,0-3.97.89-5.48,1.25ZM105.46,29.82c-.24.26-.65.22-.9-.07-.25-.28-.28-.67-.09-.88.19-.2.59-.17.89.06.3.23.34.63.1.89ZM101.98,31.27c.16-.12.41-.06.56.13.15.19.14.45-.03.57-.16.12-.41.06-.56-.13-.15-.19-.13-.45.03-.57ZM101.51,32.62c-.13.1-.34.05-.45-.11s-.11-.37.02-.47c.13-.1.34-.05.45.11.12.16.11.37-.02.47ZM102.84,31.16c-.18-.23-.17-.53.02-.68.19-.15.48-.08.67.14.18.23.17.53-.02.68-.19.15-.49.08-.67-.14ZM100.15,25.26c.08-.18.27-.27.42-.21.15.07.21.27.13.45-.08.18-.27.27-.42.2-.15-.07-.21-.27-.13-.45ZM102.18,26.18c.12-.26.4-.39.62-.29.22.1.29.4.17.65-.13.26-.4.39-.62.29-.22-.1-.29-.4-.17-.66ZM103.19,26.66c.14-.3.47-.43.72-.3.26.13.33.48.17.77-.16.29-.49.42-.73.3-.24-.12-.31-.47-.16-.77ZM104.17,27.17c.18-.34.57-.47.86-.27.29.19.34.59.1.88-.24.29-.62.41-.85.26-.23-.16-.28-.55-.11-.87ZM102.96,22.52c.24-.12.85.26,1.24,1.36.26,1.2,2.02,4.05,2.11,4.02-.05.08-2.37-2.4-2.96-3.57-.66-1-.62-1.69-.39-1.81ZM101.68,25.47c.19.08.26.33.15.55-.1.22-.33.33-.52.25-.19-.08-.25-.33-.15-.55.1-.22.33-.33.52-.25ZM105.27,15.36c-1.63,1.21-2.58,3.24-2.56,5.27-2.58-1.75-4.85-3.63-4.85-6.27,0-2.42,1.55-3.75,3.58-4.52-.25,2.48,1.74,4.41,3.83,5.52ZM97.1,16.83c-.18.02-.35-.13-.38-.31-.03-.2.11-.36.31-.38.2-.02.38.12.38.32,0,.19-.14.36-.32.38ZM106.57,6.49c.46.03.8.38.76.78-.04.4-.41.69-.84.66-.43-.02-.77-.36-.76-.75,0-.4.39-.71.84-.69ZM103.92,6.33c.54-.01.98.37.98.84,0,.47-.42.86-.92.87-.51.02-.94-.34-.98-.81-.03-.48.38-.87.93-.9ZM101.24,6.4c.63-.08,1.18.32,1.22.87.04.54-.4,1.02-.97,1.09-.57.08-1.11-.28-1.21-.81-.11-.54.32-1.06.96-1.15ZM98.49,6.84c.75-.23,1.44.15,1.56.76.11.61-.3,1.2-.86,1.38-.55.18-1.13-.05-1.49-.57-.36-.5.02-1.32.79-1.57ZM95.83,17.16c-.22.06-.45-.07-.53-.29-.08-.23.06-.46.3-.53.24-.07.48.07.53.3.05.23-.08.46-.3.52ZM75.41,31.18c2-6.78,7.03-13.69,10.45-16.88,6.4-6.21,11.23-6.16,12.14-4.44,1,1.99-2.21,4.79-8.49,8.75-3.31,1.96-8.99,7.17-12.04,13.21-3.28,5.92-3.69,11.95-3.68,11.91.01.05-.64-5.83,1.62-12.56ZM92.64,18.06c-.16-.28-.06-.66.24-.8.3-.15.66-.04.8.26.14.29.02.65-.25.79-.28.14-.63.05-.79-.24ZM92.31,19.04c-.3.19-.71.1-.92-.2-.21-.3-.12-.72.2-.93.32-.21.75-.1.93.22.19.32.08.71-.21.91ZM93.94,17.4c-.12-.26,0-.56.27-.68.27-.11.58.03.67.29.1.27-.03.55-.28.65-.25.11-.54-.01-.66-.27ZM74.28,43.74s1.14-4.71,4.18-9.72c2.9-5.05,7.51-10.29,10.93-12.68,3.07-2.33,6.67-2.85,8.9-2.06,2.29.82,2.77,2.32,2.41,3.05-.51,1.82-5.34,3.41-8.15,4.42-3.14,1.37-8.24,4.48-12.09,8.59-3.98,4-6.23,8.39-6.18,8.41ZM96.92,28.99c-.13.38-.32.64-.66.67-.33.02-.67-.24-.73-.63-.05-.37.22-.74.66-.76.43-.04.86.36.73.72ZM93.74,30.27c-.44.11-.9-.15-1.03-.61-.13-.45.14-.93.62-1.05.47-.12.94.17,1.04.63.1.46-.18.91-.62,1.02ZM87.31,31.79c-.32-.57-.07-1.3.55-1.59.62-.29,1.32,0,1.56.59.24.6-.02,1.28-.58,1.53-.55.25-1.23.02-1.54-.54ZM86.73,33.69c-.5.35-1.2.26-1.78-.22-.56-.45-.47-1.45.24-1.94.7-.49,1.55-.27,1.9.37.35.64.16,1.43-.35,1.78ZM90.57,29.28c.54-.2,1.13.11,1.29.64.17.54-.12,1.09-.63,1.27-.51.17-1.08-.09-1.28-.61-.2-.52.07-1.12.62-1.3ZM102.15,36.07c-1.44,1.59-3.28.98-8.19.51-2.57-.35-7.96.4-12.19,2.59-4.29,2.06-7.13,5.22-7.13,5.18.02.04,2.1-3.53,6.07-6.61,3.87-3.15,9.51-5.38,12.96-5.81,3.19-.53,5.84.3,7.22,1.41,1.42,1.09,1.61,2.25,1.26,2.72ZM104.49,30.61c-.22.19-.57.13-.77-.13-.21-.26-.21-.61,0-.78.2-.17.55-.11.77.13.22.25.23.6,0,.78ZM103.8,34.55c-.26-.05-.48-.79.09-1.9.51-1.17,2.5-4.04,2.53-4.01-.04,0-1.4,3.08-1.61,4.35-.26,1.14-.73,1.62-1,1.56ZM107.62,29.24c-.62-.26-.92-.97-.66-1.6.26-.63.97-.92,1.6-.67.62.26.92.97.67,1.6-.26.62-.97.92-1.6.67ZM100.47,33.82c-.56-.6-1.5-.63-2.1-.07-.6.56-.63,1.5-.07,2.1.56.6,1.5.63,2.1.07.6-.56.63-1.5.07-2.1ZM96.1,22.73c.62.67,1.68.71,2.35.08.67-.63.71-1.68.08-2.35-.63-.67-1.68-.71-2.35-.08-.67.63-.71,1.68-.08,2.35Z"/>
      <g>
        <path class="cls-4" d="M93.5,34.67c-.43.11-.58.15-.58.15-.36.1-.33.13.07.08,0-.21,4.5-.15,4.58-.08.04-.1-.17-.22-.17-.22-.34-.22-.96-.36-1.34-.34,0-.02-1.36.09-2.55.4Z"/>
        <path class="cls-4" d="M81.82,37.44l.17-.16c.19-.17.06-.11-.28.14-.07-.08-3.03,2.47-2.79,2.71l.06.06c.29-.13.71-.48.95-.78,0,0,.89-1.07,1.9-1.96Z"/>
        <path class="cls-4" d="M85.17,35.97c.67-.46,1.32-.84,1.33-.83.34-.2.29-.24-.12-.1-.86.32-1.72.69-2.54,1.1-.39.18-.94.56-1.24.81,0,0-.21.16-.59.51-.93.82-1.8,1.8-1.8,1.8-.25.29-.18.35.17.15l1.07-.62c.36-.19.87-.55,1.14-.81,0,0,1.22-1.11,2.58-2.02Z"/>
        <g>
          <path class="cls-4" d="M88.73,35.04c1.12-.56,2.43-1.03,2.43-1.03.37-.13.33-.2-.09-.14-.86.12-1.71.29-2.55.5-.41.12-1.04.34-1.38.55,0,0-.94.52-1.78,1.1-1.23.8-2.41,1.8-2.4,1.8-.29.24-.23.29.14.11.67-.35,1.36-.64,2.06-.94.38-.15.94-.43,1.26-.64,0,0,1.15-.74,2.33-1.32Z"/>
          <path class="cls-4" d="M88.91,35.12c-.99.49-1.99,1.07-1.98,1.08-.33.19-.27.24.11.11,0,0,.32-.11.86-.28,1.24-.39,2.84-.74,2.85-.73.4-.09,1.01-.25,1.36-.36,0,0,.56-.21,1.25-.37,1.09-.31,2.34-.4,2.34-.39.39-.03.39-.12-.03-.21-.84-.15-1.7-.23-2.55-.23-.43-.01-1.09.12-1.45.24,0-.02-1.47.53-2.75,1.15Z"/>
        </g>
      </g>
      <g>
        <path class="cls-4" d="M91.16,24.74c-.36.38-.49.52-.49.52-.29.33-.24.36.14.07-.05-.12,4.31-3.01,4.37-3.11-.03-.16-.32-.15-.32-.15-.48-.02-1.16.28-1.51.56,0,0-1.21,1.03-2.19,2.11Z"/>
        <path class="cls-4" d="M79.78,32.93c.12-.25.12-.25.12-.25.13-.27,0-.16-.27.25-.1-.06-2.25,4.01-1.76,4.21l.11.05c.28-.26.57-.81.68-1.24,0,0,.45-1.57,1.12-3.02Z"/>
        <path class="cls-4" d="M82.88,30.01c.48-.82,1-1.54.99-1.54.26-.38.17-.42-.19-.08-.78.72-1.53,1.49-2.26,2.28-.33.38-.78,1-.98,1.43,0,0-.14.28-.4.83-.63,1.32-1.11,2.78-1.09,2.78-.14.42,0,.48.31.14.31-.36.59-.73.94-1.07.32-.34.69-.96.89-1.35,0,0,.78-1.78,1.8-3.4Z"/>
        <g>
          <path class="cls-4" d="M86.33,27.5c.87-1.18,1.92-2.42,1.92-2.41.3-.35.21-.42-.2-.14-.83.56-1.63,1.16-2.42,1.76-.38.31-.91.88-1.17,1.25,0,0-.7,1.04-1.33,2.07-.92,1.45-1.72,3.08-1.71,3.08-.2.4-.09.44.24.11.59-.64,1.22-1.24,1.87-1.83.35-.31.81-.9,1.05-1.26,0,0,.85-1.37,1.76-2.62Z"/>
          <path class="cls-4" d="M86.58,27.54c-.77,1.05-1.53,2.17-1.52,2.17-.25.37-.15.42.2.1,0,0,.29-.27.79-.69,1.14-1,2.65-2.17,2.65-2.17.37-.29.91-.81,1.2-1.14,0,0,.45-.55,1.02-1.15.89-.99,2-1.94,2.01-1.93.35-.3.27-.41-.19-.25-.93.36-1.81.79-2.68,1.24-.44.22-1.03.73-1.32,1.07,0,0-1.17,1.4-2.16,2.74Z"/>
        </g>
      </g>
      <g>
        <path class="cls-4" d="M88.44,16.06c-.43.52-.58.7-.58.7-.35.45-.28.45.15.02-.11-.15,5.19-4.55,5.31-4.5-.04-.13-.41-.05-.41-.05-.6.12-1.41.61-1.83,1-.02-.02-1.47,1.39-2.65,2.83Z"/>
        <path class="cls-4" d="M76.55,29.75l.1-.34c.11-.36,0-.18-.25.4-.13-.04-1.91,5.52-1.53,5.63l.1.03c.25-.4.53-1.18.63-1.75-.02,0,.37-2.06.94-3.97Z"/>
        <path class="cls-4" d="M79.47,25.1c.47-1.12.99-2.12,1-2.12.27-.52.18-.52-.2,0-.79,1.13-1.55,2.29-2.22,3.5-.31.57-.75,1.46-.9,2.03,0,0-.12.38-.35,1.12-.53,1.77-.97,3.68-.94,3.69-.1.57.02.58.28.04.26-.57.57-1.12.86-1.67.26-.55.63-1.43.8-1.96-.01,0,.68-2.39,1.69-4.62Z"/>
        <g>
          <path class="cls-4" d="M83.04,20.86c.94-1.62,2.15-3.3,2.16-3.3.34-.48.25-.51-.21-.06-.93.9-1.81,1.86-2.66,2.84-.4.5-1,1.3-1.25,1.83.02.01-.76,1.4-1.35,2.82-.91,1.99-1.64,4.2-1.63,4.2-.17.55-.07.55.23,0,.54-1.01,1.17-1.96,1.79-2.92.35-.51.81-1.35,1.05-1.86.01.01.87-1.87,1.88-3.56Z"/>
          <path class="cls-4" d="M83.29,20.79c-.85,1.43-1.63,2.98-1.62,2.98-.26.51-.16.51.21.02,0,0,.3-.42.82-1.1,1.22-1.56,2.87-3.43,2.89-3.41.43-.45,1.02-1.21,1.37-1.65,0,.01.52-.74,1.22-1.55,1.06-1.33,2.41-2.62,2.41-2.61.43-.4.33-.48-.21-.16-1.09.66-2.12,1.41-3.12,2.18-.51.39-1.17,1.13-1.53,1.58,0,0-1.35,1.88-2.44,3.72Z"/>
        </g>
      </g>
      <g>
        <path class="cls-4" d="M107.83,59.5c-2.72-1.48-3.89-8.64-8.62-8.91,1.28-.39,2.04-1.64,2.31-2.18,1.27.3,3.25.72,4.43.38,1.74-.48,1.69-1.85,1.35-2-.43-.29-1.09-.09-1.95.5-.57.52-2.45.69-3.74.77-.22-.65-1.59-4.43-4.12-5-.91-.21-1.95-.14-3.04.11,3.04-1.1,1.74-3.57-1.36-4.27-4.27-.96-6.16-.3-18.93,6.04h-.01s-.03-.01-.03-.01c0,.01,0,.02.01.03,0,0-.02.02-.02.02h.04s0,.02,0,.02c0,0,0,0,0,.01h-.03s0,.01.01.02c0,0-.02.01-.02.02h.04s.01.01.01.01c2.08,7.55,8.14,5.51,10.85,14.58.68,2.27,4.99,3.28,7.25,1,1.59-1.61.63-4.18-.51-5.32.88.69,1.79,1.19,2.7,1.39,2.44.55,4.29-.53,4.7-.8.27.33.51.75.66,1.27.54,1.54.51,3.44.33,4.35-.33,1.78.19,2.56.77,2.95.53.39,1.99-.78,1.56-3.05-.2-1.18-.81-3.24-1.9-4.72-.37-.57-.82-.96-1.24-1.24.18-.81.52-2.77-.09-3.97,5.61.34,5.21,7.96,7.64,9.87,2.68,2.04,4.55,1.69,4.86.84.4-.64-1.36-3.14-3.89-2.73ZM76.52,45.65s1.49-1.69,3.94-2.86c2.39-1.23,5.36-2.2,7.03-2.67,3.14-.88,4.85.37,4.87,1.34.02,1-1.42,2.44-4.39,2.19-2.16.1-4.3.3-6.82.77-2.54.4-4.64,1.2-4.63,1.22ZM83.1,44.59c3.5-.4,7.58-.44,9.84-.43,4.24.03,5.98,2.12,5.72,3.39-.27,1.29-2.66,2.71-6.43,1.28-1.94-.73-5.72-1.85-9.09-2.45-3.36-.71-6.3-.39-6.3-.34-.04-.03,2.73-1.18,6.26-1.46ZM89.13,59.54c-1.36.15-3.19-.84-3.86-3.43-.32-1.42-1.98-3.99-4.17-5.79-2.12-1.83-4.24-3.39-4.22-3.41,0,.03,2.3.79,5.06,1.84,2.78.97,5.87,3.11,7.25,4.82,2.7,3.27,1.13,5.88-.07,5.97ZM96.72,54.61c-.89.94-3.27,1.3-6.2-1.18-1.49-1.29-4.68-3.41-7.71-4.83-3.01-1.46-5.85-2.12-5.85-2.13,0,0,2.85-.14,6.28.41,3.42.51,7.32,1.65,9.46,2.45,4.04,1.46,4.9,4.34,4.02,5.27Z"/>
        <path class="cls-4" d="M94.16,51.25c-.71-.43-1.58-.17-1.95.5-.37.69-.13,1.52.49,1.9.61.37,1.4.18,1.89-.42.49-.6.28-1.55-.44-1.98Z"/>
        <path class="cls-4" d="M91.44,49.96c-.62-.32-1.37-.06-1.67.56-.3.62-.04,1.35.55,1.65.6.3,1.33.07,1.66-.54.33-.6.09-1.36-.54-1.67Z"/>
        <path class="cls-4" d="M88.69,48.84c-.55-.25-1.19,0-1.42.54-.23.55.01,1.17.54,1.41.53.24,1.16,0,1.41-.53.25-.53.02-1.18-.54-1.42Z"/>
        <path class="cls-4" d="M85.91,47.84c-.47-.19-1,.05-1.17.52-.17.47.06.98.51,1.16.46.18.98-.04,1.17-.5.19-.46-.03-.99-.51-1.18Z"/>
        <path class="cls-4" d="M83.04,47.01c-.41-.12-.83.12-.92.52-.09.4.14.79.5.9.37.12.78-.11.91-.49.13-.39-.09-.8-.5-.92Z"/>
        <path class="cls-4" d="M94.69,48.28c.74.18,1.5-.29,1.71-1.05.21-.76-.26-1.54-1.06-1.74-.8-.18-1.57.32-1.72,1.09-.15.78.33,1.53,1.07,1.7Z"/>
        <path class="cls-4" d="M91.89,47.54c.67.12,1.32-.34,1.45-1.02.14-.69-.32-1.34-1.02-1.47-.7-.13-1.36.35-1.46,1.04-.1.69.36,1.32,1.03,1.44Z"/>
        <path class="cls-4" d="M89.05,46.94c.59.06,1.13-.34,1.21-.94.09-.59-.33-1.16-.95-1.23-.61-.07-1.15.36-1.21.96-.06.6.36,1.14.95,1.21Z"/>
        <path class="cls-4" d="M86.17,46.49c.5.04.94-.33.98-.84.04-.51-.33-.95-.85-.99-.52-.04-.96.36-.98.86-.02.51.36.93.85.97Z"/>
        <path class="cls-4" d="M84.03,45.47c.01-.41-.32-.75-.74-.76-.42,0-.76.33-.76.74,0,.41.34.75.74.76.4,0,.74-.33.75-.74Z"/>
        <path class="cls-4" d="M89.01,42.7c.52-.03.93-.5.93-1.05,0-.55-.49-.98-1.07-.95-.58.05-.99.55-.93,1.1.07.55.55.95,1.07.9Z"/>
        <path class="cls-4" d="M87.01,42.81c.47-.07.8-.51.74-1-.06-.48-.51-.82-1.01-.75-.5.06-.83.55-.74,1.02.09.49.54.78,1,.72Z"/>
        <path class="cls-4" d="M85.01,43.07c.4-.1.66-.49.58-.91-.08-.42-.49-.69-.92-.58-.42.1-.68.51-.57.92.11.41.52.66.91.57Z"/>
        <path class="cls-4" d="M83.02,43.47c.33-.1.52-.45.43-.79-.1-.34-.46-.54-.81-.44-.35.11-.54.49-.42.82.12.34.48.51.8.41Z"/>
        <path class="cls-4" d="M80.68,43.1c-.28.12-.4.42-.27.69.13.26.43.38.69.28.26-.11.38-.42.27-.69-.1-.27-.42-.39-.69-.28Z"/>
        <path class="cls-4" d="M87.46,55.38c-.56.35-.79,1.04-.53,1.54.19.52.87.79,1.51.63.64-.17.94-.89.67-1.61-.34-.67-1.1-.91-1.65-.56Z"/>
        <path class="cls-4" d="M87.59,53.69c-.37-.52-1.08-.56-1.51-.18-.45.39-.48,1.01-.18,1.45.3.43.95.53,1.45.23.5-.3.6-.97.23-1.49Z"/>
        <path class="cls-4" d="M85.74,51.82c-.38-.37-.96-.36-1.29.02-.32.37-.32.95.02,1.28.34.33.91.33,1.28,0,.38-.34.38-.93,0-1.3Z"/>
        <path class="cls-4" d="M83.71,50.24c-.35-.26-.84-.19-1.09.15-.25.34-.18.82.14,1.06.33.25.79.21,1.07-.12.27-.32.23-.82-.12-1.09Z"/>
        <path class="cls-4" d="M81.56,48.9c-.3-.19-.68-.11-.86.18-.18.29-.1.68.18.87.28.19.67.1.86-.18.19-.28.11-.67-.18-.87Z"/>
      </g>
    </g>
    <g>
      <path class="cls-2" d="M97.86,14.38c0-2.42,1.55-3.75,3.58-4.52-.25,2.48,1.74,4.41,3.83,5.52-1.63,1.21-2.58,3.24-2.56,5.27-2.58-1.75-4.85-3.63-4.85-6.27Z"/>
      <path class="cls-2" d="M99.19,9c-.55.18-1.13-.05-1.49-.57-.36-.5.02-1.32.79-1.57.75-.23,1.44.15,1.56.76.11.61-.3,1.2-.86,1.38Z"/>
      <path class="cls-2" d="M101.49,8.39c-.57.08-1.11-.28-1.21-.81-.11-.54.32-1.06.96-1.15.63-.08,1.18.32,1.22.87.04.54-.4,1.02-.97,1.09Z"/>
      <path class="cls-2" d="M97.1,16.85c-.18.02-.35-.13-.38-.31-.03-.2.11-.36.31-.38.2-.02.38.12.38.32,0,.19-.14.36-.32.38Z"/>
      <path class="cls-2" d="M106.57,6.52c.46.03.8.38.76.78-.04.4-.41.69-.84.66-.43-.02-.77-.36-.76-.75,0-.4.39-.71.84-.69Z"/>
      <path class="cls-2" d="M95.83,17.18c-.22.06-.45-.07-.53-.29-.08-.23.06-.46.3-.53.24-.07.48.07.53.3.05.23-.08.46-.3.52Z"/>
      <path class="cls-2" d="M109.23,6.98c.39.08.63.46.5.75-.14.31-.44.46-.76.4-.32-.08-.56-.37-.51-.69.05-.32.39-.55.78-.45Z"/>
      <path class="cls-2" d="M92.31,19.06c-.3.19-.71.1-.92-.2-.21-.3-.12-.72.2-.93.32-.21.75-.1.93.22.19.32.08.71-.21.91Z"/>
      <path class="cls-8" d="M73.73,40.51c-.08,2.02.06,3.27.05,3.25-.01.03.39-5.99,3.68-11.91,3.05-6.05,8.73-11.25,12.04-13.21,6.29-3.96,9.5-6.76,8.49-8.75-.91-1.72-5.74-1.77-12.14,4.44-3.42,3.19-8.45,10.1-10.45,16.88-1.09,3.25-1.5,6.29-1.64,8.57.04.24.03.49-.04.74ZM94.18,10.18c.67-.63,1.72-.59,2.35.08.63.67.59,1.72-.08,2.35-.67.63-1.72.59-2.35-.08-.63-.67-.59-1.72.08-2.35ZM87.86,16.78s.15-.19.58-.7c1.18-1.44,2.63-2.85,2.65-2.83.42-.39,1.23-.88,1.83-1,0,0,.37-.08.41.05-.12-.05-5.43,4.35-5.31,4.5-.43.43-.5.43-.15-.02ZM81.67,23.79s.78-1.55,1.62-2.98c1.09-1.83,2.44-3.72,2.44-3.72.35-.45,1.02-1.19,1.53-1.58,1-.78,2.03-1.53,3.12-2.18.54-.32.64-.24.21.16,0,0-1.35,1.28-2.41,2.61-.7.81-1.21,1.56-1.22,1.55-.35.44-.95,1.2-1.37,1.65-.02-.02-1.67,1.85-2.89,3.41-.52.68-.82,1.1-.82,1.1-.37.5-.47.49-.21-.02ZM78.1,29.22s.72-2.21,1.63-4.2c.59-1.42,1.37-2.81,1.35-2.82.25-.53.84-1.33,1.25-1.83.85-.98,1.73-1.93,2.66-2.84.46-.45.55-.42.21.06,0,0-1.21,1.67-2.16,3.3-1.01,1.69-1.86,3.57-1.88,3.56-.23.51-.69,1.35-1.05,1.86-.62.96-1.25,1.92-1.79,2.92-.3.54-.4.54-.23,0ZM75.85,33.33s.41-1.92.94-3.69c.23-.74.35-1.12.35-1.12.15-.57.6-1.46.9-2.03.67-1.21,1.43-2.37,2.22-3.5.38-.52.47-.52.2,0,0,0-.52,1-1,2.12-1.01,2.22-1.7,4.61-1.69,4.62-.17.53-.54,1.41-.8,1.96-.28.56-.6,1.1-.86,1.67-.26.54-.38.53-.28-.04ZM76.41,29.84c.25-.58.36-.76.25-.4l-.1.34c-.57,1.91-.96,3.97-.94,3.97-.09.56-.38,1.34-.63,1.75l-.1-.03c-.38-.1,1.39-5.67,1.53-5.63Z"/>
      <path class="cls-2" d="M77.31,43.41c2.48-1.65,4.72-2.61,6.79-3.17-1.76.75-3.95,1.78-6.79,3.17Z"/>
      <path class="cls-2" d="M93.43,18.33c-.28.14-.63.05-.79-.24-.16-.28-.06-.66.24-.8.3-.15.66-.04.8.26.14.29.02.65-.25.79Z"/>
      <path class="cls-2" d="M103.92,6.35c.54-.01.98.37.98.84,0,.47-.42.86-.92.87-.51.02-.94-.34-.98-.81-.03-.48.38-.87.93-.9Z"/>
      <path class="cls-1" d="M93.96,36.61c4.9.47,6.75,1.08,8.19-.51.36-.47.17-1.63-1.26-2.72-1.38-1.11-4.03-1.94-7.22-1.41-3.45.43-9.08,2.66-12.96,5.81-3.97,3.08-6.05,6.65-6.07,6.61,0,.04,2.84-3.12,7.13-5.18,4.23-2.2,9.62-2.95,12.19-2.59ZM82,37.3l-.17.16c-1,.89-1.9,1.97-1.9,1.96-.24.3-.66.65-.95.78l-.06-.06c-.23-.23,2.72-2.79,2.79-2.71.34-.25.47-.31.28-.14ZM86.5,35.16s-.66.38-1.33.83c-1.36.91-2.58,2.02-2.58,2.02-.27.26-.78.63-1.14.81l-1.07.62c-.35.2-.42.14-.17-.15,0,0,.87-.97,1.8-1.8.38-.35.6-.51.59-.51.3-.25.85-.63,1.24-.81.82-.42,1.68-.78,2.54-1.1.41-.14.46-.1.12.1ZM91.16,34.04s-1.31.47-2.43,1.03c-1.18.58-2.33,1.32-2.33,1.32-.31.21-.88.5-1.26.64-.69.29-1.39.58-2.06.94-.37.18-.43.13-.14-.11,0,0,1.17-1,2.4-1.8.85-.59,1.79-1.09,1.78-1.1.33-.2.96-.43,1.38-.55.84-.2,1.69-.37,2.55-.5.43-.06.47,0,.09.14ZM98.37,33.77c.6-.56,1.54-.53,2.1.07.56.6.53,1.54-.07,2.1-.6.56-1.54.53-2.1-.07-.56-.6-.53-1.54.07-2.1ZM92.92,34.86s.15-.04.58-.15c1.18-.31,2.54-.42,2.55-.4.38-.02,1.01.12,1.34.34,0,0,.22.12.17.22-.08-.08-4.57-.14-4.58.08-.39.05-.43.01-.07-.08ZM92.1,34.96c-.36.11-.97.28-1.36.36,0-.01-1.6.34-2.85.73-.53.17-.85.29-.86.28-.39.13-.44.08-.11-.11,0,0,.99-.59,1.98-1.08,1.28-.62,2.74-1.16,2.75-1.15.37-.12,1.02-.26,1.45-.24.85,0,1.71.07,2.55.23.42.08.43.18.03.21,0,0-1.25.09-2.34.39-.69.16-1.25.37-1.25.37Z"/>
      <path class="cls-2" d="M91.86,29.95c.17.54-.12,1.09-.63,1.27-.51.17-1.08-.09-1.28-.61-.2-.52.07-1.12.62-1.3.54-.2,1.13.11,1.29.64Z"/>
      <path class="cls-2" d="M96.93,29.02c-.13.38-.32.64-.66.67-.33.02-.67-.24-.73-.63-.05-.37.22-.74.66-.76.43-.04.86.36.73.72Z"/>
      <g>
        <path class="cls-4" d="M103.35,24.33c-.66-1-.62-1.69-.39-1.81.24-.12.85.26,1.24,1.36.26,1.2,2.02,4.05,2.11,4.02-.05.08-2.37-2.4-2.96-3.57Z"/>
        <path class="cls-4" d="M101.68,25.47c.19.08.26.33.15.55-.1.22-.33.33-.52.25-.19-.08-.25-.33-.15-.55.1-.22.33-.33.52-.25Z"/>
        <path class="cls-4" d="M102.8,25.9c.22.1.29.4.17.65-.13.26-.4.39-.62.29-.22-.1-.29-.4-.17-.66.12-.26.4-.39.62-.29Z"/>
        <path class="cls-4" d="M103.35,27.43c-.24-.12-.31-.47-.16-.77.14-.3.47-.43.72-.3.26.13.33.48.17.77-.16.29-.49.42-.73.3Z"/>
        <path class="cls-4" d="M105.04,26.91c.29.19.34.59.1.88-.24.29-.62.41-.85.26-.23-.16-.28-.55-.11-.87.18-.34.57-.47.86-.27Z"/>
        <path class="cls-4" d="M103.52,30.63c.18.23.17.53-.02.68-.19.15-.49.09-.67-.14-.18-.23-.17-.53.02-.68.19-.15.48-.08.67.14Z"/>
        <path class="cls-4" d="M98.65,29.19c-.05-.32.63-.89,2.08-.88,1.48.02,5.63-.09,5.63-.09,0,0-3.97.89-5.48,1.25-1.41.34-2.18.04-2.23-.28Z"/>
        <path class="cls-4" d="M106.42,28.64s-1.4,3.08-1.61,4.35c-.26,1.14-.73,1.62-1,1.56-.26-.05-.48-.79.09-1.9.51-1.17,2.5-4.04,2.53-4.01Z"/>
        <path class="cls-4" d="M108.56,26.98c.62.26.92.97.67,1.6-.26.62-.97.92-1.6.67-.62-.26-.92-.97-.66-1.6.26-.63.97-.92,1.6-.67Z"/>
        <path class="cls-4" d="M101.95,31.84c-.15-.19-.13-.45.03-.57.16-.12.41-.06.56.13.15.19.14.45-.03.57-.16.12-.41.06-.56-.13Z"/>
        <path class="cls-4" d="M104.47,28.88c.19-.2.59-.17.89.06.3.23.34.63.1.89-.24.26-.65.22-.9-.07-.25-.28-.28-.67-.09-.88Z"/>
        <path class="cls-4" d="M103.71,30.48c-.21-.26-.21-.61,0-.78.2-.17.55-.11.77.13.22.25.23.6,0,.78-.22.19-.57.13-.77-.13Z"/>
        <path class="cls-4" d="M101.54,32.15c.12.16.11.37-.02.47-.13.1-.34.05-.45-.11s-.11-.37.02-.47c.13-.1.34-.05.45.11Z"/>
        <path class="cls-4" d="M100.57,25.06c.15.07.21.27.13.45-.08.18-.27.27-.42.2-.15-.07-.21-.27-.13-.45.08-.18.27-.27.42-.21Z"/>
      </g>
      <path class="cls-2" d="M93.32,28.65c.47-.12.94.17,1.04.63.1.46-.18.91-.62,1.02-.44.11-.9-.15-1.03-.61-.13-.45.14-.93.62-1.05Z"/>
      <path class="cls-2" d="M87.86,30.23c.62-.29,1.32,0,1.56.59.24.6-.02,1.28-.58,1.53-.55.25-1.23.02-1.54-.54-.32-.57-.07-1.3.55-1.59Z"/>
      <path class="cls-8" d="M98.29,19.31c-2.23-.79-5.83-.27-8.9,2.06-3.42,2.39-8.03,7.63-10.93,12.68-3.05,5-4.23,9.73-4.18,9.72-.05-.02,2.2-4.41,6.18-8.41,3.85-4.1,8.95-7.22,12.09-8.59,2.82-1,7.64-2.59,8.15-4.42.35-.72-.13-2.23-2.41-3.05ZM79.91,32.71s0,0-.12.25c-.67,1.44-1.12,3.02-1.12,3.02-.1.43-.4.99-.68,1.24l-.11-.05c-.49-.2,1.66-4.27,1.76-4.21.28-.4.41-.51.27-.25ZM83.87,28.49s-.51.72-.99,1.54c-1.02,1.62-1.81,3.4-1.8,3.4-.2.39-.57,1.01-.89,1.35-.35.33-.62.71-.94,1.07-.31.34-.45.29-.31-.14-.01,0,.47-1.45,1.09-2.78.27-.55.4-.83.4-.83.19-.42.65-1.05.98-1.43.73-.79,1.47-1.55,2.25-2.28.37-.34.45-.3.19.08ZM88.25,25.11s-1.05,1.23-1.92,2.41c-.91,1.24-1.77,2.62-1.76,2.62-.24.36-.69.95-1.05,1.26-.64.59-1.28,1.19-1.87,1.83-.32.34-.43.29-.24-.11,0,0,.8-1.62,1.71-3.08.62-1.03,1.33-2.06,1.33-2.07.26-.37.79-.93,1.17-1.25.8-.6,1.6-1.2,2.42-1.76.41-.28.5-.21.2.14ZM92.93,22.76s-1.11.94-2.01,1.93c-.58.6-1.02,1.16-1.02,1.15-.29.33-.82.85-1.2,1.14,0,0-1.51,1.17-2.65,2.17-.5.41-.79.69-.79.69-.36.31-.45.27-.2-.1,0,0,.75-1.13,1.52-2.17.99-1.35,2.15-2.75,2.16-2.74.3-.34.88-.84,1.32-1.07.87-.45,1.75-.88,2.68-1.24.47-.17.54-.05.19.25ZM95.19,22.24c-.06.1-4.43,2.99-4.37,3.11-.37.29-.43.26-.14-.07,0,0,.13-.14.49-.52.97-1.07,2.18-2.11,2.19-2.11.35-.28,1.03-.58,1.51-.56,0,0,.3,0,.32.15ZM98.53,20.48c.63.67.59,1.72-.08,2.35-.67.63-1.72.59-2.35-.08-.63-.67-.59-1.72.08-2.35.67-.63,1.72-.59,2.35.08Z"/>
      <path class="cls-2" d="M86.73,33.72c-.5.35-1.2.26-1.78-.22-.56-.45-.47-1.45.24-1.94.7-.49,1.55-.27,1.9.37.35.64.16,1.43-.35,1.78Z"/>
      <path class="cls-2" d="M94.6,17.69c-.25.11-.54-.01-.66-.27-.12-.26,0-.56.27-.68.27-.11.58.03.67.29.1.27-.03.55-.28.65Z"/>
      <path class="cls-7" d="M81.95,48.78c-2.76-1.05-5.07-1.81-5.06-1.84-.02.02,2.1,1.58,4.22,3.41,2.18,1.8,3.84,4.37,4.17,5.79.67,2.59,2.49,3.58,3.86,3.43,1.2-.09,2.77-2.69.07-5.97-1.38-1.71-4.47-3.85-7.25-4.82ZM87.46,55.4c.56-.35,1.31-.11,1.65.56.28.72-.03,1.44-.67,1.61-.64.17-1.32-.11-1.51-.63-.26-.5-.04-1.19.53-1.54ZM86.08,53.53c.42-.38,1.14-.34,1.51.18.37.52.26,1.19-.23,1.49-.5.3-1.15.2-1.45-.23-.3-.43-.27-1.05.18-1.45ZM84.45,51.87c.34-.38.92-.39,1.29-.02.38.37.38.95,0,1.3-.36.33-.93.33-1.28,0-.34-.33-.35-.91-.02-1.28ZM82.63,50.42c.25-.34.74-.41,1.09-.15.35.27.39.77.12,1.09-.28.33-.74.37-1.07.12-.33-.24-.39-.72-.14-1.06ZM81.75,49.79c-.19.29-.58.37-.86.18-.28-.18-.36-.57-.18-.87.18-.29.57-.38.86-.18.29.19.38.58.18.87Z"/>
      <path class="cls-1" d="M76.53,45.68s2.09-.82,4.63-1.22c2.52-.47,4.66-.67,6.82-.77,2.97.24,4.41-1.19,4.39-2.19-.02-.97-1.73-2.22-4.87-1.34-1.66.46-4.64,1.43-7.03,2.67-2.45,1.17-3.97,2.87-3.94,2.86ZM87.94,41.82c-.07-.55.35-1.04.93-1.1.59-.03,1.07.4,1.07.95,0,.55-.41,1.02-.93,1.05-.52.05-1-.35-1.07-.9ZM86.74,41.09c.5-.07.95.26,1.01.75.06.48-.27.93-.74,1-.47.06-.91-.24-1-.72-.09-.47.23-.96.74-1.02ZM84.67,41.61c.42-.11.83.17.92.58.08.41-.18.81-.58.91-.4.09-.8-.16-.91-.57-.11-.41.15-.82.57-.92ZM82.64,42.27c.35-.1.71.09.81.44.1.34-.09.7-.43.79-.33.11-.68-.07-.8-.41-.12-.33.07-.71.42-.82ZM80.68,43.13c.28-.12.59,0,.69.28.11.27-.02.58-.27.69-.26.11-.57-.01-.69-.28-.12-.26,0-.57.27-.69Z"/>
      <path class="cls-7" d="M82.81,48.62c3.03,1.43,6.22,3.54,7.71,4.83,2.92,2.47,5.3,2.12,6.2,1.18.88-.93.02-3.82-4.02-5.27-2.13-.79-6.04-1.94-9.46-2.45-3.43-.55-6.28-.41-6.28-.41,0,0,2.84.67,5.85,2.13ZM92.22,51.78c.37-.68,1.24-.93,1.95-.5.72.43.93,1.38.44,1.98-.49.6-1.28.79-1.89.42-.62-.37-.86-1.21-.49-1.9ZM89.77,50.54c.29-.62,1.04-.88,1.67-.56.63.31.87,1.07.54,1.67-.33.6-1.06.83-1.66.54-.59-.3-.85-1.03-.55-1.65ZM87.28,49.41c.23-.54.87-.79,1.42-.54.55.24.79.89.54,1.42-.25.54-.88.77-1.41.53-.53-.24-.77-.86-.54-1.41ZM84.74,48.39c.17-.47.7-.71,1.17-.52.48.18.7.72.51,1.18-.19.46-.71.68-1.17.5-.45-.18-.68-.69-.51-1.16ZM82.63,48.45c-.37-.1-.59-.5-.5-.9.09-.39.5-.63.92-.52.4.12.63.54.5.92-.13.38-.54.6-.91.49Z"/>
      <path class="cls-7" d="M98.66,47.58c.26-1.27-1.48-3.36-5.72-3.39-2.26-.02-6.34.03-9.84.43-3.53.28-6.31,1.43-6.26,1.46,0-.05,2.94-.38,6.3.34,3.37.6,7.15,1.72,9.09,2.45,3.77,1.43,6.16,0,6.43-1.28ZM84.03,45.49c-.01.41-.35.75-.75.74-.4,0-.74-.34-.74-.76,0-.41.33-.74.76-.74.42,0,.75.34.74.76ZM87.15,45.68c-.05.5-.48.88-.98.84-.5-.04-.88-.46-.85-.97.03-.51.47-.9.98-.86.52.04.9.49.85.99ZM90.26,46.03c-.09.6-.63,1-1.21.94-.58-.07-1.01-.61-.95-1.21.06-.6.6-1.03,1.21-.96.61.06,1.03.63.95,1.23ZM93.35,46.55c-.14.68-.79,1.13-1.45,1.02-.67-.13-1.13-.75-1.03-1.44.1-.69.76-1.17,1.46-1.04.7.13,1.16.78,1.02,1.47ZM94.69,48.3c-.74-.17-1.23-.92-1.07-1.7.15-.77.93-1.27,1.72-1.09.8.2,1.27.98,1.06,1.74-.21.76-.98,1.23-1.71,1.05Z"/>
      <path class="cls-2" d="M73.73,40.51c0-.23.02-.48.04-.74.04.24.03.49-.04.74Z"/>
      <g>
        <path class="cls-1" d="M83.41,68.53c-.48.03-.91-.35-.97-.85-.06-.5.31-.93.84-.96.52-.03.96.35.97.85.02.5-.36.93-.84.96Z"/>
        <path class="cls-1" d="M85.2,66.74c.45,0,.81.35.81.79,0,.44-.35.8-.78.8-.44,0-.8-.34-.81-.78-.02-.45.34-.82.78-.82Z"/>
        <path class="cls-1" d="M87.09,66.83c.38,0,.69.29.7.67.01.38-.3.7-.68.71-.39,0-.69-.3-.7-.68,0-.38.31-.69.68-.7Z"/>
        <path class="cls-1" d="M88.94,66.9c.31-.01.58.2.61.53.03.32-.22.62-.55.63-.33,0-.6-.25-.61-.57-.01-.32.24-.59.55-.59Z"/>
        <path class="cls-1" d="M90.77,66.82c.25-.03.5.16.54.42.05.26-.13.49-.4.52-.27.03-.51-.16-.54-.42-.03-.26.15-.49.4-.52Z"/>
      </g>
      <path class="cls-2" d="M84.1,40.24c4.43-1.87,6.2-1.94,8.99-1.31.52.12.99.29,1.4.49-3.24.11-6.54-.22-10.39.82Z"/>
      <path class="cls-2" d="M74.11,44.96h.03s.01.01.01.01c1.13-.56,2.18-1.08,3.15-1.56-.56.37-1.13.77-1.71,1.21-.6.46-1.09.56-1.48.37,0,0,0,0,0,0,0,0,0-.02-.01-.03Z"/>
    </g>
  </g>
  <g>
    <g>
      <path class="cls-4" d="M50.11,50.35h24.91c-.26.65-.49,1.26-.73,1.87-.18.45-.38.9-.54,1.35-.08.24-.2.34-.46.37-1.63.18-2.84.97-3.46,2.53-.51,1.26-.34,2.48.36,3.62.19.3.13.48-.07.71-1.4,1.59-3.11,2.5-5.26,2.5-1.62,0-3.24.03-4.85-.01-2.09-.06-3.75-.99-5.07-2.59-.16-.2-.18-.33-.03-.56,1.49-2.26.42-5.24-2.18-6.03-.29-.09-.59-.17-.88-.16-.31,0-.4-.18-.48-.39-.41-1.05-.82-2.1-1.25-3.2ZM66.01,60.95c0-.19,0-.35,0-.51-.05-.83-.12-1.67-.14-2.5,0-.39-.12-.52-.52-.52-1.82.02-3.65.02-5.47,0-.52,0-.64.04-.67.64-.03.79-.05,1.59-.11,2.38-.03.46,0,.53.46.53,2,0,4,0,6,0,.13,0,.27-.02.44-.03ZM62.55,56.51c.85,0,1.7,0,2.55,0,.32,0,.6-.04.62-.46.02-.49-.14-.75-.57-.78-.31-.03-.63-.03-.94-.01-.29.02-.38-.1-.38-.38.01-.78,0-1.56,0-2.34,0-.51-.24-.75-.75-.77-.29-.01-.58,0-.86,0-.74,0-.96.21-.96.94,0,.71,0,1.43,0,2.14,0,.3-.09.43-.4.41-.3-.02-.6-.01-.9.02-.41.04-.63.34-.6.77.03.39.31.47.64.47.85,0,1.7,0,2.55,0ZM53.34,51.13c.04.08.08.21.16.32.49.71.97,1.42,1.49,2.1.58.76,1.34,1.24,2.34,1.25.49,0,.99,0,1.48,0,.47,0,.86-.23,1.03-.64.32-.79.3-1.6-.1-2.37-.28-.55-.85-.66-1.4-.66-1.64-.02-3.28,0-5,0ZM71.87,51.12c-.17-.04-.3-.09-.43-.09-.23,0-.46.05-.69.05-1.33.02-2.66,0-3.99.06-.96.03-1.56.49-1.64,1.44-.02.3-.03.6-.04.9-.03.69.62,1.39,1.34,1.33.38-.03.77-.03,1.15,0,1.13.05,1.97-.45,2.61-1.34.55-.76,1.1-1.52,1.69-2.35Z"/>
      <path class="cls-4" d="M51.6,54.62c1.87-.11,3.37,1.68,3.34,3.29-.04,1.99-1.58,3.36-3.33,3.35-1.86-.01-3.31-1.39-3.33-3.36-.03-1.73,1.41-3.35,3.33-3.28ZM53.06,57.91c.04-.91-.65-1.44-1.43-1.48-.79-.03-1.52.68-1.53,1.47,0,.8.7,1.5,1.5,1.51.84,0,1.47-.63,1.46-1.5Z"/>
      <path class="cls-4" d="M48.42,50.32c.27,0,.49-.03.7,0,.13.02.3.12.34.22.43,1.05.84,2.11,1.25,3.18.03.07.02.16.04.25-.38.17-.74.34-1.12.48-.07.03-.26-.08-.28-.16-.22-.86-.41-1.74-.62-2.6-.1-.43-.2-.87-.31-1.37Z"/>
      <path class="cls-4" d="M76.7,50.32c-.34,1.43-.66,2.78-.99,4.2-.47-.18-.91-.35-1.4-.54.17-.4.34-.8.5-1.21.27-.69.51-1.39.79-2.08.09-.23.23-.45.56-.37.14.03.3,0,.54,0Z"/>
      <path class="cls-3" d="M47.78,49.71c-.02.22-.03.38-.05.58h-7.2c-.2-1.06-.23-2.12-.05-3.18.03-.19.03-.38.04-.57.08-1.52.41-2.99.84-4.44.61-2.07,1.53-4.01,2.73-5.8,1.24-1.86,2.72-3.49,4.44-4.91,1.62-1.35,3.42-2.41,5.34-3.25.93-.41,1.94-.66,2.91-.97,2.32-.73,4.72-.87,7.13-.73,1.24.07,2.49.29,3.71.57,1.16.27,2.3.66,3.43,1.08,1.56.58,3,1.43,4.35,2.39.5.36.97.75,1.45,1.14.3.24.59.48.86.75.29.3.54.65.83.96.19.2.43.35.62.55,1.65,1.83,2.93,3.89,3.87,6.18.53,1.3.92,2.64,1.23,4.01.44,1.95.49,3.91.46,5.89,0,.29-.12.38-.39.38-2.19,0-4.39,0-6.58-.01-.11,0-.3-.14-.3-.21,0-.38-.2-.4-.5-.4-4.32,0-8.64,0-12.95,0-5.25,0-10.5,0-15.75,0-.14,0-.27,0-.44,0ZM70.47,46.26c-.34-1.69-1.32-3.04-2.55-4.09-1.18-1.02-2.66-1.66-4.27-1.86-4.55-.56-8.21,2.57-8.98,5.95h15.8Z"/>
      <path class="cls-6" d="M66.01,60.95c-.18.01-.31.03-.44.03-2,0-4,0-6,0-.46,0-.49-.08-.46-.53.06-.79.08-1.59.11-2.38.02-.61.15-.65.67-.64,1.82.02,3.65.02,5.47,0,.4,0,.51.13.52.52.02.83.09,1.67.14,2.5,0,.16,0,.32,0,.51ZM64.41,58.37c-.12,0-.26-.03-.39-.03-.97,0-1.95,0-2.92,0-.24,0-.47.04-.48.3-.01.28.22.35.48.35.96,0,1.92,0,2.88,0,.46,0,.53-.09.44-.61Z"/>
      <path class="cls-6" d="M62.55,56.51c-.85,0-1.7,0-2.55,0-.32,0-.61-.08-.64-.47-.04-.42.19-.73.6-.77.3-.03.6-.03.9-.02.31.02.41-.11.4-.41-.01-.71,0-1.42,0-2.14,0-.73.21-.94.96-.94.29,0,.58,0,.86,0,.51.02.74.26.75.77,0,.78.01,1.56,0,2.34,0,.28.08.4.38.38.31-.02.63-.02.94.01.42.04.59.29.57.78-.02.42-.3.46-.62.46-.85,0-1.7,0-2.55,0Z"/>
      <path class="cls-6" d="M53.34,51.13c1.72,0,3.36-.02,5,0,.54,0,1.11.12,1.4.66.4.76.41,1.58.1,2.37-.17.41-.56.64-1.03.64-.49,0-.99,0-1.48,0-1,0-1.76-.48-2.34-1.25-.52-.68-1-1.4-1.49-2.1-.08-.11-.12-.24-.16-.32ZM56.7,52.81c-.05.8.65,1.33,1.29,1.31.69-.02,1.25-.51,1.25-1.32,0-.8-.63-1.28-1.28-1.28-.64,0-1.33.54-1.27,1.29Z"/>
      <path class="cls-6" d="M71.87,51.12c-.6.83-1.14,1.59-1.69,2.35-.64.88-1.48,1.39-2.61,1.34-.38-.02-.77-.02-1.15,0-.72.06-1.37-.64-1.34-1.33.01-.3.02-.6.04-.9.08-.95.68-1.41,1.64-1.44,1.33-.05,2.66-.04,3.99-.06.23,0,.46-.05.69-.05.13,0,.26.05.43.09ZM67.13,51.53c-.73-.03-1.32.62-1.28,1.32.04.7.61,1.3,1.31,1.27.82-.04,1.32-.61,1.3-1.31-.01-.71-.52-1.29-1.33-1.28Z"/>
      <path class="cls-6" d="M53.06,57.91c0,.87-.62,1.5-1.46,1.5-.8,0-1.51-.71-1.5-1.51,0-.79.73-1.5,1.53-1.47.79.03,1.47.56,1.43,1.48ZM51.62,56.74c-.63,0-1.22.54-1.22,1.15,0,.69.54,1.2,1.2,1.22.64.02,1.17-.54,1.17-1.2,0-.68-.48-1.17-1.15-1.17Z"/>
      <path class="cls-4" d="M64.41,58.37c.09.52.02.61-.44.61-.96,0-1.92,0-2.88,0-.26,0-.49-.07-.48-.35.01-.26.25-.3.48-.3.97,0,1.95,0,2.92,0,.13,0,.27.02.39.03Z"/>
      <path class="cls-4" d="M56.7,52.81c-.07-.75.63-1.29,1.27-1.29.66,0,1.29.48,1.28,1.28,0,.81-.56,1.3-1.25,1.32-.64.02-1.35-.51-1.29-1.31Z"/>
      <path class="cls-4" d="M67.13,51.53c.82,0,1.32.57,1.33,1.28.01.7-.48,1.28-1.3,1.31-.7.03-1.27-.57-1.31-1.27-.04-.7.55-1.35,1.28-1.32Z"/>
      <path class="cls-4" d="M51.62,56.74c.67,0,1.15.5,1.15,1.17,0,.66-.53,1.22-1.17,1.2-.66-.02-1.2-.53-1.2-1.22,0-.62.59-1.16,1.22-1.15Z"/>
      <path class="cls-4" d="M73.8,54.6c1.87-.11,3.37,1.68,3.34,3.29-.04,1.99-1.58,3.36-3.33,3.35-1.86-.01-3.31-1.39-3.33-3.36-.03-1.73,1.41-3.35,3.33-3.28ZM75.25,57.9c.04-.91-.65-1.44-1.43-1.48-.79-.03-1.52.68-1.53,1.47,0,.8.7,1.5,1.5,1.51.84,0,1.47-.63,1.46-1.5Z"/>
      <path class="cls-4" d="M73.82,56.73c.67,0,1.15.5,1.15,1.17,0,.66-.53,1.22-1.17,1.2-.66-.02-1.2-.53-1.2-1.22,0-.62.59-1.16,1.22-1.15Z"/>
    </g>
    <g>
      <path class="cls-4" d="M63.58,32.69c.05-.6-.53-1.03-1.01-1.03-.51,0-1.05.54-1.04,1.05.01.48.43,1.03,1.04,1,.59-.03,1-.42,1-1.02Z"/>
      <path class="cls-4" d="M75.43,38.12c0-.55-.45-1.03-.98-1.04-.67-.01-1.01.34-1.01,1.03,0,.6.4,1,.99,1.01.59,0,1-.41,1-1Z"/>
      <path class="cls-4" d="M71.08,36.19c.73-.01.97-.28.98-1.05,0-.62-.6-1-1.01-.99-.53.01-1.04.52-1.01,1.05.03.6.43.99,1.05.98Z"/>
      <path class="cls-4" d="M76.86,42.9c.54,0,1.01-.49,1.02-1.03,0-.52-.53-1.06-1.04-1.06-.52,0-1.01.54-1,1.08.02.56.48,1.02,1.02,1.01Z"/>
      <path class="cls-4" d="M54.09,36.19c.58,0,1-.41,1-.98,0-.66-.42-1.01-1.01-1.06-.48-.04-1.03.56-1.03,1.05,0,.55.47.99,1.04.99Z"/>
      <path class="cls-4" d="M47.06,47.14c.55,0,1.04-.44,1.03-.97-.01-.5-.46-1.04-1.04-1.04-.56,0-1.02.45-1.04,1-.01.55.46,1,1.05,1Z"/>
      <path class="cls-4" d="M58.14,34.32c.58,0,1.06-.42,1.05-.97-.01-.53-.47-1.04-1.05-1.04-.52,0-1.02.5-1.04,1.02-.02.51.48.99,1.04.99Z"/>
      <path class="cls-4" d="M50.7,39.12c.63,0,.96-.38,1.04-.98.07-.5-.49-1.05-1-1.06-.51,0-1.05.51-1.06,1.03,0,.54.46,1,1.02,1.01Z"/>
      <path class="cls-4" d="M49.34,41.86c0-.5-.55-1.05-1.04-1.05-.52,0-.99.5-.99,1.05,0,.57.43,1.03.99,1.04.52,0,1.05-.51,1.04-1.04Z"/>
      <path class="cls-4" d="M66.96,34.32c.59.01,1.04-.38,1.05-.93.02-.55-.46-1.06-1-1.07-.56-.01-1,.41-1.01.99-.01.61.36,1,.95,1.02Z"/>
      <path class="cls-4" d="M78.1,47.14c.59,0,1.02-.41,1.02-.98,0-.55-.46-1.02-1.01-1.03-.57,0-.96.42-1,1.01-.03.51.43,1.06.99.99Z"/>
    </g>
    <path class="cls-4" d="M67.92,42.36c-1.18-1.02-2.66-1.66-4.27-1.86-4.55-.56-8.21,2.57-8.98,5.95h15.8c-.34-1.69-1.32-3.04-2.55-4.09Z"/>
  </g>
  <g>
    <path class="cls-4" d="M48.16,20.25c1.05-.51,2.16-.82,3.27-1.1.03.09.07.19.1.28-.24.14-.48.28-.8.46.1.6.16,1.27.33,1.9.3,1.11.63,2.21,1.03,3.29.14.38.5.67.83,1.09-.61.22-1.39.5-2.17.78.83-.69.33-1.4.13-2.07-.3-1.05-.63-2.1-.94-3.15-.38-1.28-.45-1.33-1.79-1.17v-.32Z"/>
    <path class="cls-4" d="M55.62,25.36c.55-.05,1.19-.12,1.71-.17-.44-2.02-.87-3.97-1.32-6.03.25.17.5.29.67.48,1.11,1.21,2.2,2.43,3.29,3.66.38.43.85.87.08,1.53.71,0,1.21,0,1.76-.01.05-2.05.22-4.09-.48-6.06-.08-.23.36-.64.61-1.05-.7.03-1.46.07-2.22.1,1.05.66.48,1.72.76,2.5.21.6.08,1.32.1,2.13-.29-.34-.51-.63-.76-.89-1.09-1.11-2.19-2.21-3.3-3.3-.12-.11-.37-.2-.53-.16-.69.15-1.37.36-1.97.52,1.4,2.07,1.91,4.3,1.62,6.78Z"/>
    <path class="cls-4" d="M71.5,19.78c-.98-.46-1.87-.87-2.93-1.36-.15.71-.3,1.21-.36,1.72-.14,1.14-.28,2.29-.32,3.44-.02.57.18,1.14.3,1.8-.76-.12-1.64-.27-2.52-.41,1.22-.59.86-1.7.97-2.63.12-1.07.22-2.14.38-3.2.08-.57-.09-.85-.67-.79-.51.06-1.02.21-1.53.26-.33.04-.67,0-.99-.06-.05-.01-.11-.49,0-.57.21-.17.53-.34.78-.31,2.08.25,4.15.54,6.22.83.64.09.86.46.69,1.28Z"/>
    <path class="cls-4" d="M74.06,19.32c1.17.06,2.22.49,3.26.93-.03.1-.06.2-.09.3-.27-.04-.55-.08-.95-.14-.33.77-.69,1.57-1.01,2.38-.33.85-.62,1.72-.94,2.57-.18.49-.35.97.37,1.29l-.16.19c-.8-.24-1.59-.47-2.39-.71,1.12-.13,1.1-1.08,1.37-1.79.33-.88.64-1.77.97-2.64.51-1.36.52-1.37-.44-2.38Z"/>
    <path class="cls-4" d="M50.83,18.79c-.83.29-1.59.55-2.47.85.46-1.24,1.58-1.61,2.47-.85Z"/>
    <path class="cls-4" d="M77.11,19.58c-.87-.25-1.63-.47-2.5-.71.94-.78,2.08-.46,2.5.71Z"/>
  </g>
  <text class="cls-5" transform="translate(47.31 68.76) scale(1.09 1)"><tspan x="0" y="0">ASSOCIAZIONE</tspan></text>
  <g>
    <path class="cls-1" d="M45.19,68.97c.48.03.91-.35.97-.85.06-.5-.31-.93-.84-.96-.52-.03-.96.35-.97.85-.02.5.36.93.84.96Z"/>
    <path class="cls-1" d="M43.39,67.18c-.45,0-.81.35-.81.79,0,.44.35.8.78.8.44,0,.8-.34.81-.78.02-.45-.34-.82-.78-.82Z"/>
    <path class="cls-1" d="M41.51,67.27c-.38,0-.69.29-.7.67-.01.38.3.7.68.71.39,0,.69-.3.7-.68,0-.38-.31-.69-.68-.7Z"/>
    <path class="cls-1" d="M39.65,67.34c-.31-.01-.58.2-.61.53-.03.32.22.62.55.63.33,0,.6-.25.61-.57.01-.32-.24-.59-.55-.59Z"/>
    <path class="cls-1" d="M37.83,67.25c-.25-.03-.5.16-.54.42-.05.26.13.49.4.52.27.03.51-.16.54-.42.03-.26-.15-.49-.4-.52Z"/>
  </g>
</svg>