<?xml version="1.0" encoding="UTF-8"?>
<svg id="Capa_1" data-name="Capa 1" xmlns="http://www.w3.org/2000/svg" viewBox="0 0 30 20">
  <defs>
    <style>
      .cls-1, .cls-2 {
        fill: #ffef00;
      }

      .cls-3 {
        fill: #fff;
      }

      .cls-2 {
        stroke: #371e0a;
        stroke-miterlimit: 10;
        stroke-width: .29px;
      }

      .cls-4, .cls-5 {
        isolation: isolate;
      }

      .cls-6 {
        fill: #009cde;
      }

      .cls-7 {
        fill: #ea7527;
      }

      .cls-5 {
        font-family: Arial-BoldMT, Arial;
        font-size: 1.2px;
        font-weight: 700;
        letter-spacing: .05em;
      }

      .cls-5, .cls-8 {
        fill: #371e0a;
      }

      .cls-9 {
        fill: #f4a710;
      }
    </style>
  </defs>
  <g>
    <g>
      <path class="cls-8" d="M12.32,10.19c-.14-.06-.28-.06-.42,0s-.24.16-.31.31c-.06.14-.05.28,0,.43.03.06.05.1.09.16.23.53-.36,1.65-.83,2.21-.46.56-.8,1.42-1.01,2.8.34-1.16.43-1.85,1.55-2.82.91-.87,1-1.47.75-2,.05,0,.11-.01.18-.04.14-.06.23-.16.29-.3.06-.14.06-.28,0-.43s-.15-.23-.31-.3v-.03Z"/>
      <path class="cls-8" d="M5.34,1.51c-.2-.19-.52-.18-.72.03s-.18.53.03.72.52.18.72-.03c.19-.21.18-.53-.03-.72ZM1.88,9.16c3.12,2.77,5.1-.16,9.12,2.95,1.66,1.28.59-6.37-2.44-9.23C5.53,0,1.74-.73.23.73c-.45.44,1.19.22,2.5.56v.06c.14.74-.57,1.27-1.16,1.52-.14.06-.14.22-.06.31,0,.05.04.12.1.14.56.31.83,1.05.73,1.65h0c-1.49,1.01-2.95,1.96-.47,4.17h.01ZM1,.65c.01.1-.06.19-.15.22-.1.03-.19-.03-.23-.12s.04-.21.15-.23.22.04.23.14h0ZM1.64,7.06s1.26.04,1.71.03c.45,0,.65.17.64.27-.01.1-.26.19-.68.09-.46-.12-1.66-.39-1.66-.39h-.01ZM1.94,7.28c.09-.08.22-.08.27-.01.05.06.05.18-.03.27s-.2.1-.27.03c-.08-.08-.06-.21.03-.27h0ZM2.98,8.17s-.11.08-.17.04c-.05-.04-.05-.12,0-.18s.11-.08.17-.04c.05.04.05.12,0,.18ZM3.11,8.28s.1-.06.14-.04.04.09,0,.14-.1.06-.14.04-.04-.09,0-.14ZM2.51,8.01s-.06-.14,0-.21c.05-.06.14-.09.2-.04.05.04.06.14,0,.21-.05.06-.14.09-.2.04ZM3.49,6.29s-.1,0-.13-.06c-.03-.05,0-.12.04-.14.05-.03.1,0,.13.06.03.05,0,.12-.04.14ZM2.86,6.64c-.06.03-.15,0-.19-.09-.04-.08-.01-.17.05-.21.06-.03.15,0,.19.09.04.08.01.17-.05.21ZM2.56,6.82c-.08.04-.17,0-.22-.09s-.03-.19.05-.23c.08-.04.18,0,.22.09s.03.19-.05.23ZM2.28,7.01c-.08.05-.19,0-.26-.08-.08-.09-.06-.21.03-.27s.2-.03.27.08c.05.1.04.22-.04.27ZM2.56,5.86c-.18.36-.88,1.12-.89,1.1.03,0,.56-.87.64-1.24.11-.34.31-.45.37-.41.08.04.09.25-.11.56ZM3.22,6.29c.03.06,0,.14-.05.17s-.13,0-.15-.08c-.03-.06,0-.14.05-.17s.13,0,.15.08ZM3.13,1.4c.61.23,1.09.65,1.09,1.4,0,.81-.69,1.4-1.48,1.93,0-.62-.28-1.25-.78-1.63.64-.35,1.24-.93,1.16-1.69h.01ZM4.36,3.43s.05-.1.11-.1.1.06.1.12-.06.1-.11.09c-.05,0-.1-.06-.1-.12h0ZM1.83.59c0,.12-.1.23-.23.23s-.24-.08-.26-.21c0-.12.09-.23.23-.25.14,0,.26.09.26.21h0ZM2.66.6c0,.14-.14.26-.29.25-.15,0-.28-.12-.28-.27,0-.14.13-.26.29-.26s.29.13.28.27h0ZM3.49.69c-.04.17-.19.27-.37.25s-.31-.17-.29-.34c0-.17.18-.3.37-.27s.32.19.29.35h0ZM4.28.96c-.11.16-.29.23-.46.18s-.29-.23-.27-.43c.04-.19.24-.31.47-.23s.34.32.24.48h.01ZM4.75,3.5c.01-.08.09-.12.17-.09s.11.09.09.17c-.03.06-.09.12-.17.09-.06-.03-.1-.09-.09-.16h0ZM11.55,11.84s-.11-1.85-1.12-3.67c-.93-1.86-2.66-3.46-3.67-4.07-1.92-1.21-2.89-2.08-2.58-2.69.28-.53,1.75-.54,3.69,1.37,1.03.98,2.57,3.11,3.18,5.2.69,2.07.49,3.88.5,3.86ZM5.57,4.01c-.09-.04-.11-.16-.08-.25s.15-.13.24-.08.13.17.08.25c-.05.09-.15.12-.24.08ZM5.85,3.95c.05-.1.18-.13.28-.06.1.06.13.19.06.28-.06.09-.19.12-.28.06-.09-.06-.13-.18-.06-.28ZM5.21,3.81c-.08-.03-.11-.12-.09-.21.03-.08.11-.13.2-.09.08.04.11.13.09.21-.04.08-.13.12-.2.08h0ZM9.52,9.25c-1.18-1.27-2.72-2.22-3.68-2.65-.86-.31-2.32-.8-2.48-1.36-.1-.22.04-.68.73-.94.68-.25,1.78-.08,2.71.63,1.05.74,2.44,2.35,3.32,3.9.93,1.54,1.29,3,1.28,2.99.01,0-.66-1.36-1.88-2.58h0ZM4.73,7.08c.13,0,.22.12.2.23s-.13.19-.22.19c-.1,0-.15-.09-.2-.21-.04-.12.09-.23.22-.22ZM5.29,7.37c.03-.14.18-.23.32-.19.14.04.23.18.19.32-.04.14-.18.22-.32.18-.13-.04-.22-.17-.19-.31ZM6.96,8.33c-.17-.08-.24-.28-.18-.47.08-.18.28-.27.47-.18s.27.31.17.49c-.09.17-.31.25-.47.17h.01ZM7.5,8.2c.1-.19.37-.27.57-.12.22.16.24.45.08.59-.18.14-.38.18-.54.06-.15-.1-.22-.35-.1-.56h-.01ZM6.63,7.79c-.06.16-.23.25-.4.18-.15-.05-.24-.22-.19-.39.05-.17.23-.26.4-.19.17.05.26.25.19.4ZM3.3,8.64c.42-.34,1.23-.59,2.2-.43,1.05.13,2.76.81,3.95,1.78,1.21.94,1.84,2.04,1.85,2.03,0,0-.87-.96-2.17-1.59-1.29-.67-2.93-.9-3.7-.8-1.49.14-2.06.34-2.49-.16-.1-.14-.05-.5.38-.84h-.01ZM2.21,7.55c.06-.08.18-.09.23-.04.06.05.06.16,0,.25-.06.08-.17.1-.23.04-.06-.05-.06-.17,0-.25ZM2.11,8.52c-.06-.39-.47-1.34-.49-1.34,0,0,.61.88.77,1.24.18.34.1.57.03.58-.09.01-.23-.13-.31-.48ZM.77,7.17c-.08-.19,0-.41.2-.49.19-.08.41,0,.49.21.08.19,0,.41-.2.49-.19.08-.41,0-.49-.21ZM3.45,9.43c.18.17.47.17.64-.03.17-.18.17-.48-.03-.65-.18-.17-.47-.17-.64.03-.17.18-.17.48.03.65ZM4.74,4.65c-.2-.19-.52-.18-.72.03s-.18.53.03.72.52.18.72-.03.18-.53-.03-.72Z"/>
      <g>
        <path class="cls-8" d="M5.56,9.05c.13.04.18.05.18.05.11.03.1.04-.03.03,0-.06-1.37-.05-1.39-.03-.01-.03.05-.06.05-.06.1-.06.29-.1.41-.1,0,0,.41.03.78.13h0Z"/>
        <path class="cls-8" d="M9.11,9.91l-.05-.05s-.01-.04.09.04c.03-.03.92.76.86.84h-.01c-.09-.03-.22-.13-.29-.22,0,0-.27-.34-.57-.61h-.01Z"/>
        <path class="cls-8" d="M8.09,9.44c-.2-.14-.41-.26-.41-.26-.1-.06-.09-.08.04-.03.27.1.52.21.78.34.11.05.28.17.38.25,0,0,.06.05.18.16.28.26.55.56.55.56.08.09.05.1-.05.05l-.32-.19c-.11-.05-.27-.17-.34-.25,0,0-.37-.34-.79-.62h-.01Z"/>
        <g>
          <path class="cls-8" d="M7,9.16c-.34-.17-.74-.32-.74-.31-.11-.04-.1-.06.03-.04.27.04.52.09.78.16.13.04.32.1.42.17,0,0,.28.16.55.34.37.25.73.56.73.56.09.08.06.09-.04.04-.2-.1-.41-.19-.63-.28-.11-.05-.28-.13-.38-.19,0,0-.34-.23-.72-.4v-.03Z"/>
          <path class="cls-8" d="M6.95,9.18c.31.16.6.34.6.34.1.06.08.08-.04.04,0,0-.1-.04-.26-.09-.38-.12-.87-.23-.87-.22-.11-.03-.31-.08-.41-.12,0,0-.17-.06-.38-.12-.33-.09-.72-.13-.72-.12-.11,0-.11-.04,0-.06.26-.05.52-.06.78-.06.13,0,.33.04.45.08,0,0,.45.17.83.35h.01Z"/>
        </g>
      </g>
      <g>
        <path class="cls-8" d="M6.26,5.99l.15.16c.09.1.08.1-.04.03.01-.04-1.32-.93-1.33-.96,0-.05.1-.05.1-.05.14,0,.36.09.46.17,0,0,.37.32.66.65h-.01Z"/>
        <path class="cls-8" d="M9.72,8.51l-.04-.08c-.04-.08,0-.05.09.08.03-.01.69,1.24.54,1.29h-.04c-.09-.06-.18-.23-.2-.36,0,0-.14-.48-.34-.93Z"/>
        <path class="cls-8" d="M8.79,7.62c-.14-.26-.31-.48-.31-.48-.08-.12-.05-.13.06-.03.24.22.46.45.69.7.1.12.24.31.29.44,0,0,.04.09.13.26.19.41.33.85.33.85.04.13,0,.14-.09.04-.09-.12-.18-.23-.28-.32-.1-.1-.2-.3-.27-.41,0,0-.24-.54-.55-1.05h-.01Z"/>
        <g>
          <path class="cls-8" d="M7.73,6.84c-.27-.36-.59-.75-.59-.75-.09-.1-.06-.13.06-.04.26.17.5.36.74.54.11.09.28.27.36.39,0,0,.22.32.41.63.28.45.52.94.52.94.06.12.03.14-.08.04-.18-.19-.37-.39-.56-.57-.1-.09-.24-.27-.32-.39,0,0-.26-.43-.54-.8h-.01Z"/>
          <path class="cls-8" d="M7.65,6.86c.23.32.46.67.46.67.08.12.05.13-.06.03,0,0-.09-.08-.24-.21-.34-.31-.8-.67-.8-.67-.11-.09-.28-.25-.37-.35,0,0-.14-.17-.31-.35-.27-.31-.61-.59-.61-.59-.1-.09-.08-.13.06-.08.28.1.55.25.82.39.14.06.31.22.41.32,0,0,.36.43.65.84Z"/>
        </g>
      </g>
      <g>
        <path class="cls-8" d="M7.09,3.32c.13.16.18.22.18.22.1.14.09.14-.05,0,.04-.05-1.58-1.41-1.62-1.38,0-.04.13-.01.13-.01.18.04.42.19.56.31,0,0,.45.43.8.87Z"/>
        <path class="cls-8" d="M10.71,7.53l-.04-.1c-.04-.12,0-.05.08.12.04,0,.57,1.71.46,1.73h-.03c-.08-.12-.17-.35-.19-.53,0,0-.11-.63-.28-1.23h0Z"/>
        <path class="cls-8" d="M9.83,6.09c-.14-.35-.31-.65-.31-.65-.08-.16-.05-.16.06,0,.24.35.47.71.68,1.07.09.17.23.45.28.62,0,0,.04.12.1.35.17.54.29,1.14.29,1.14.03.18,0,.18-.09,0-.08-.18-.18-.35-.26-.52-.08-.17-.19-.44-.24-.61,0,0-.2-.74-.51-1.42h-.01Z"/>
        <g>
          <path class="cls-8" d="M8.74,4.79c-.28-.5-.65-1.02-.65-1.02-.1-.14-.08-.16.06-.01.28.27.55.57.8.88.13.16.31.4.38.57,0,0,.23.43.41.87.28.61.5,1.29.5,1.29.05.17.03.17-.06,0-.17-.31-.36-.61-.55-.9-.1-.16-.24-.41-.32-.57,0,0-.27-.58-.57-1.1Z"/>
          <path class="cls-8" d="M8.66,4.78c.26.44.5.92.5.92.08.16.05.16-.06,0,0,0-.09-.13-.26-.34-.37-.48-.87-1.06-.88-1.05-.13-.14-.31-.37-.42-.5,0,0-.15-.23-.37-.48-.32-.41-.73-.8-.73-.8-.13-.13-.1-.16.06-.05.33.21.64.43.95.67.15.12.36.35.46.49,0,0,.41.58.74,1.15h.01Z"/>
        </g>
      </g>
      <g>
        <path class="cls-8" d="M0,17.53c.09.26.66.37,1.48-.26.74-.58.61-2.93,2.32-3.04-.19.37-.08.97-.03,1.23-.13.08-.27.21-.38.37-.33.45-.52,1.09-.57,1.45-.13.7.32,1.06.47.94.18-.12.33-.36.23-.9-.05-.28-.06-.87.1-1.34.04-.16.11-.28.2-.39.13.08.69.41,1.43.25.28-.06.55-.22.82-.43-.34.35-.64,1.15-.15,1.64.69.7,2.01.39,2.21-.31.82-2.79,2.67-2.16,3.3-4.48h0c-3.88-1.95-4.46-2.16-5.76-1.86-.95.22-1.34.98-.41,1.32-.33-.08-.65-.09-.92-.04-.77.17-1.19,1.34-1.25,1.54-.4-.03-.96-.08-1.14-.23-.26-.18-.46-.25-.59-.16-.1.05-.11.47.41.62.36.1.96-.03,1.34-.12.08.17.31.56.7.67-1.44.08-1.8,2.29-2.62,2.74-.77-.13-1.3.65-1.19.84v-.05ZM9.31,12.05c-.77-.14-1.42-.21-2.07-.23-.91.08-1.34-.36-1.34-.67s.52-.68,1.48-.41c.51.14,1.42.44,2.13.81.74.36,1.21.88,1.2.88,0,0-.64-.26-1.41-.37ZM10.62,12.56s-.89-.12-1.92.1c-1.02.18-2.17.53-2.77.75-1.15.44-1.88,0-1.95-.4-.08-.39.45-1.03,1.74-1.05.69,0,1.93,0,2.99.13,1.07.09,1.92.44,1.9.45h.01ZM6.86,14.87c.42-.53,1.37-1.19,2.21-1.49.84-.32,1.55-.56,1.55-.57,0,0-.64.49-1.28,1.05-.66.56-1.18,1.34-1.26,1.78-.2.8-.75,1.1-1.18,1.06-.37-.03-.84-.83-.03-1.84h-.01ZM5.8,13.56c.65-.25,1.84-.59,2.87-.75,1.05-.17,1.92-.13,1.92-.13,0,0-.87.21-1.78.66-.92.44-1.89,1.09-2.35,1.49-.89.76-1.61.66-1.89.36-.27-.28,0-1.18,1.23-1.63Z"/>
        <path class="cls-8" d="M5.35,14.16c.22-.13.49-.05.59.16.11.21.04.47-.15.58s-.42.05-.57-.13-.09-.48.13-.61h.01Z"/>
        <path class="cls-8" d="M6.18,13.76c.19-.1.42-.01.51.17.09.19,0,.41-.17.5-.18.09-.41.03-.5-.17-.1-.18-.03-.41.17-.52h-.01Z"/>
        <path class="cls-8" d="M7.02,13.41c.17-.08.36,0,.43.17s0,.36-.17.44-.36,0-.43-.17,0-.36.17-.44Z"/>
        <path class="cls-8" d="M7.86,13.1c.14-.05.31.01.36.16s-.01.3-.15.36c-.14.05-.29,0-.36-.16-.06-.14,0-.31.15-.36Z"/>
        <path class="cls-8" d="M8.74,12.85c.13-.04.26.04.28.16s-.04.25-.15.27c-.11.04-.24-.04-.28-.16-.04-.12.03-.25.15-.28h0Z"/>
        <path class="cls-8" d="M5.19,13.24c-.23.05-.46-.09-.52-.32-.06-.23.08-.48.32-.53s.47.1.52.34c.05.25-.1.47-.33.52h.01Z"/>
        <path class="cls-8" d="M6.04,13.01c-.2.04-.4-.1-.45-.31-.04-.21.1-.41.31-.45.22-.04.41.1.45.32.03.21-.11.4-.31.44Z"/>
        <path class="cls-8" d="M6.9,12.83c-.18.01-.34-.1-.37-.28-.03-.18.1-.36.29-.37.19-.03.34.12.37.3.01.18-.11.35-.29.37h0Z"/>
        <path class="cls-8" d="M7.78,12.68c-.15.01-.28-.1-.29-.26-.01-.16.1-.3.26-.31.15,0,.29.12.29.27s-.1.28-.26.3Z"/>
        <path class="cls-8" d="M8.43,12.37c0-.13.1-.23.23-.23s.23.1.23.23-.1.23-.23.23-.23-.1-.23-.23Z"/>
        <path class="cls-8" d="M6.91,11.52c-.15,0-.28-.16-.28-.32s.15-.3.33-.3c.18.01.31.17.28.34-.03.17-.17.3-.32.28h-.01Z"/>
        <path class="cls-8" d="M7.53,11.55c-.14-.03-.24-.16-.23-.31.01-.16.15-.26.31-.23.15.03.26.17.23.31-.03.16-.17.25-.31.22h0Z"/>
        <path class="cls-8" d="M8.14,11.64c-.11-.03-.2-.16-.18-.28.03-.13.15-.21.28-.18.13.03.2.16.18.28-.04.13-.15.21-.28.18Z"/>
        <path class="cls-8" d="M8.74,11.75c-.1-.03-.15-.14-.13-.25.03-.1.14-.17.24-.13s.17.16.13.26-.14.16-.24.13h0Z"/>
        <path class="cls-8" d="M9.45,11.64c.09.04.11.13.09.21-.04.08-.13.12-.2.09-.08-.04-.11-.13-.09-.21.03-.08.13-.12.2-.09Z"/>
        <path class="cls-8" d="M7.39,15.42c.17.1.24.32.17.48-.05.16-.27.25-.46.19s-.29-.27-.2-.49c.1-.21.33-.28.5-.17h0Z"/>
        <path class="cls-8" d="M7.35,14.91c.11-.16.33-.17.46-.05.14.12.14.31.05.44s-.29.17-.45.06c-.15-.09-.18-.3-.08-.47h.01Z"/>
        <path class="cls-8" d="M7.91,14.33c.11-.12.29-.12.4,0,.1.12.1.3,0,.39-.1.1-.28.1-.38,0-.11-.1-.11-.28,0-.4h-.01Z"/>
        <path class="cls-8" d="M8.54,13.83c.1-.08.26-.06.33.05.08.1.05.26-.04.32-.1.08-.24.06-.32-.04s-.06-.26.04-.34h-.01Z"/>
        <path class="cls-8" d="M9.19,13.42c.09-.06.2-.04.27.05.05.09.03.21-.05.27-.09.05-.2.03-.27-.05-.06-.09-.04-.21.05-.27Z"/>
      </g>
    </g>
    <g>
      <path class="cls-8" d="M2.56,5.86c.2-.31.19-.52.11-.56-.08-.04-.26.08-.37.41-.08.37-.61,1.24-.64,1.24.01.03.72-.74.89-1.1Z"/>
      <path class="cls-8" d="M3.07,6.21s-.08.1-.05.17.1.1.15.08.08-.1.05-.17-.1-.1-.15-.08Z"/>
      <path class="cls-8" d="M2.72,6.34c-.06.03-.09.12-.05.21.04.08.13.12.19.09s.09-.12.05-.21c-.04-.08-.11-.12-.19-.09Z"/>
      <path class="cls-8" d="M2.56,6.82c.08-.04.09-.14.05-.23-.04-.09-.14-.13-.22-.09-.08.04-.1.14-.05.23.05.09.15.13.22.09Z"/>
      <path class="cls-1" d="M4.23,2.8c0-.75-.47-1.15-1.09-1.4.08.76-.52,1.36-1.16,1.69.5.37.78,1,.78,1.63.78-.54,1.48-1.11,1.48-1.93h-.01Z"/>
      <path class="cls-1" d="M3.82,1.14c.17.05.34-.01.46-.18.11-.16,0-.4-.24-.48-.23-.08-.43.05-.47.23-.04.18.09.37.27.43h-.01Z"/>
      <path class="cls-8" d="M2.05,6.65c-.09.06-.1.18-.03.27s.19.13.26.08c.06-.05.09-.17.04-.27s-.18-.14-.27-.08Z"/>
      <path class="cls-1" d="M3.12.95c.18.03.33-.09.37-.25.04-.17-.1-.32-.29-.35s-.36.1-.37.27c0,.17.11.31.29.34h0Z"/>
      <path class="cls-8" d="M2.51,7.8c-.05.06-.05.17,0,.21.06.05.15.03.2-.04s.05-.17,0-.21-.15-.03-.2.04Z"/>
      <path class="cls-8" d="M3.99,7.36c.01-.1-.19-.27-.64-.27s-1.71-.03-1.71-.03c0,0,1.21.27,1.66.39.43.1.66,0,.68-.09h.01Z"/>
      <path class="cls-8" d="M1.62,7.19s.42.94.49,1.34c.08.35.22.5.31.48.08-.01.14-.25-.03-.58-.15-.36-.75-1.24-.77-1.24Z"/>
      <path class="cls-8" d="M.97,6.68c-.19.08-.28.3-.2.49.08.19.29.28.49.21.19-.08.28-.3.2-.49s-.29-.28-.49-.21Z"/>
      <path class="cls-8" d="M2.98,8.17s.04-.14,0-.18c-.05-.04-.13-.03-.17.04-.05.06-.04.14,0,.18.05.04.13.03.17-.04Z"/>
      <path class="cls-1" d="M4.46,3.56s.1-.04.11-.09c0-.06-.04-.12-.1-.12s-.11.04-.11.1.04.12.1.12h0Z"/>
      <path class="cls-8" d="M2.21,7.26s-.18-.05-.27.01c-.09.08-.1.19-.03.27.08.08.19.06.27-.03.08-.09.09-.21.03-.27h0Z"/>
      <path class="cls-8" d="M2.44,7.76c.06-.08.06-.19,0-.25s-.17-.04-.23.04c-.06.08-.06.18,0,.25.06.05.17.04.23-.04Z"/>
      <path class="cls-8" d="M3.11,8.26s-.04.12,0,.14c.04.03.1.01.14-.04s.04-.12,0-.14c-.04-.03-.1-.01-.14.04Z"/>
      <path class="cls-1" d="M1.57.38c-.14,0-.24.12-.23.25,0,.12.13.21.26.21s.23-.12.23-.23c0-.13-.11-.22-.26-.21h0Z"/>
      <path class="cls-1" d="M4.84,3.66c.06.03.14-.03.17-.09s-.01-.14-.09-.17-.14.03-.17.09c-.01.06.03.14.09.16h0Z"/>
      <path class="cls-1" d="M.77.52c-.11.03-.19.14-.15.23.04.09.13.14.23.12s.17-.12.15-.22c-.01-.1-.11-.17-.23-.14h0Z"/>
      <path class="cls-1" d="M5.92,4.25c.09.06.22.03.28-.06s.04-.22-.06-.28c-.1-.06-.23-.03-.28.06-.05.1-.03.22.06.28Z"/>
      <path class="cls-6" d="M11.56,10.62c-.04-.7-.17-1.64-.5-2.64-.61-2.08-2.15-4.21-3.18-5.2-1.94-1.91-3.41-1.9-3.69-1.37-.31.61.68,1.47,2.58,2.69,1.01.61,2.73,2.21,3.67,4.07,1,1.82,1.12,3.68,1.12,3.67,0,0,.04-.37.01-1-.01-.08-.03-.16,0-.23h-.01ZM5.37,2.23c-.19.21-.51.22-.72.03s-.22-.52-.03-.72c.19-.21.51-.22.72-.03s.22.52.03.72ZM7.22,3.55s-1.58-1.41-1.62-1.38c0-.04.13-.01.13-.01.18.04.42.19.56.31,0,0,.45.43.8.87.13.16.18.22.18.22.1.14.09.14-.05,0ZM9.08,5.71s-.09-.13-.26-.34c-.37-.48-.87-1.06-.88-1.05-.13-.14-.31-.37-.42-.5,0,0-.15-.23-.37-.48-.32-.41-.73-.8-.73-.8-.13-.13-.1-.16.06-.05.33.21.64.43.95.67.15.12.36.35.46.49,0,0,.41.58.74,1.15.26.44.5.92.5.92.08.16.05.16-.06,0h.01ZM10.17,7.37c-.17-.31-.36-.61-.55-.9-.1-.16-.24-.41-.32-.57,0,0-.27-.58-.57-1.1-.28-.5-.65-1.02-.65-1.02-.1-.14-.08-.16.06-.01.28.27.55.57.8.88.13.16.31.4.38.57,0,0,.23.43.41.87.28.61.5,1.29.5,1.29.05.17.03.17-.06,0ZM10.83,8.65c-.08-.18-.18-.35-.26-.52-.08-.17-.19-.44-.24-.61,0,0-.2-.74-.51-1.42-.14-.35-.31-.65-.31-.65-.08-.16-.05-.16.06,0,.24.35.47.71.68,1.07.09.17.23.45.28.62,0,0,.04.12.1.35.17.54.29,1.14.29,1.14.03.18,0,.18-.09,0h-.01ZM11.22,9.29h-.03c-.08-.12-.17-.35-.19-.53,0,0-.11-.63-.28-1.23l-.04-.1c-.04-.12,0-.05.08.12.04,0,.57,1.71.46,1.73h0Z"/>
      <path class="cls-1" d="M10.48,11.74c-.75-.5-1.43-.8-2.07-.98.54.23,1.2.54,2.07.98Z"/>
      <path class="cls-1" d="M5.57,4.01c.09.04.19.01.24-.08s.01-.21-.08-.25c-.09-.05-.2,0-.24.08-.04.09,0,.19.08.25Z"/>
      <path class="cls-1" d="M2.38.33c-.17,0-.29.12-.29.26s.13.27.28.27.29-.1.29-.25-.11-.27-.28-.27h0Z"/>
      <path class="cls-9" d="M9.12,10.45c1.3.63,2.17,1.6,2.17,1.59,0,.01-.64-1.09-1.85-2.03-1.18-.97-2.89-1.65-3.95-1.78-.97-.17-1.78.09-2.2.43-.43.34-.49.7-.38.84.43.49,1,.3,2.49.16.78-.1,2.43.12,3.7.8h.01ZM9.14,9.91s.92.76.86.84h-.01c-.09-.03-.22-.13-.29-.22,0,0-.27-.34-.57-.61l-.05-.05s-.01-.04.09.04h-.01ZM7.72,9.17c.27.1.52.21.78.34.11.05.28.17.38.25,0,0,.06.05.18.16.28.26.55.56.55.56.08.09.05.1-.05.05l-.32-.19c-.11-.05-.27-.17-.34-.25,0,0-.37-.34-.79-.62-.2-.14-.41-.26-.41-.26-.1-.06-.09-.08.04-.03h-.01ZM6.29,8.81c.27.04.52.09.78.16.13.04.32.1.42.17,0,0,.28.16.55.34.37.25.73.56.73.56.09.08.06.09-.04.04-.2-.1-.41-.19-.63-.28-.11-.05-.28-.13-.38-.19,0,0-.34-.23-.72-.4-.34-.17-.74-.32-.74-.31-.11-.04-.1-.06.03-.04v-.03ZM4.09,9.41c-.17.18-.46.19-.64.03-.18-.17-.19-.47-.03-.65s.46-.19.64-.03c.18.17.19.47.03.65ZM5.71,9.13c0-.06-1.37-.05-1.39-.03-.01-.03.05-.06.05-.06.1-.06.29-.1.41-.1,0,0,.41.03.78.13.13.04.18.05.18.05.11.03.1.04-.03.03h0ZM5.6,9.03c-.33-.09-.72-.13-.72-.12-.11,0-.11-.04,0-.06.26-.05.52-.06.78-.06.13,0,.33.04.45.08,0,0,.45.17.83.35.31.16.6.34.6.34.1.06.08.08-.04.04,0,0-.1-.04-.26-.09-.38-.12-.87-.23-.87-.22-.11-.03-.31-.08-.41-.12,0,0-.17-.06-.38-.12h.01Z"/>
      <path class="cls-1" d="M6.06,7.59c-.05.17.04.34.19.39s.33-.03.4-.18-.03-.35-.19-.4c-.17-.06-.34.04-.4.19Z"/>
      <path class="cls-1" d="M4.51,7.31c.04.12.1.19.2.21.1,0,.2-.08.22-.19.01-.12-.06-.23-.2-.23-.13-.01-.27.12-.22.22Z"/>
      <path class="cls-8" d="M3.4,6.08s-.06.08-.04.14c.03.05.08.08.13.06.05-.03.06-.08.04-.14-.03-.05-.08-.09-.13-.06Z"/>
      <path class="cls-1" d="M5.61,7.19c-.14-.04-.28.05-.32.19-.03.14.05.28.19.31.14.04.27-.05.32-.18.04-.14-.04-.28-.19-.32Z"/>
      <path class="cls-1" d="M7.27,7.68c-.19-.09-.41,0-.47.18-.08.18,0,.39.18.47.17.08.37,0,.47-.17.1-.18.03-.4-.17-.49h-.01Z"/>
      <path class="cls-6" d="M3.36,5.25c.15.56,1.62,1.05,2.48,1.36.96.43,2.5,1.38,3.68,2.65,1.21,1.23,1.89,2.58,1.88,2.58.01,0-.34-1.45-1.28-2.99-.88-1.55-2.29-3.17-3.32-3.9-.93-.72-2.03-.88-2.71-.63-.69.26-.84.71-.73.94h0ZM9.77,8.52s.69,1.24.54,1.29h-.04c-.09-.06-.18-.23-.2-.36,0,0-.14-.48-.34-.93l-.04-.08c-.04-.08,0-.05.09.08ZM8.55,7.11c.24.22.46.45.69.7.1.12.24.31.29.44,0,0,.04.09.13.26.19.41.33.85.33.85.04.13,0,.14-.09.04-.09-.12-.18-.23-.28-.32-.1-.1-.2-.3-.27-.41,0,0-.24-.54-.55-1.05-.14-.26-.31-.48-.31-.48-.08-.12-.05-.13.06-.03h-.01ZM7.21,6.07c.26.17.5.36.74.54.11.09.28.27.36.39,0,0,.22.32.41.63.28.45.52.94.52.94.06.12.03.14-.08.04-.18-.19-.37-.39-.56-.57-.1-.09-.24-.27-.32-.39,0,0-.26-.43-.54-.8-.27-.36-.59-.75-.59-.75-.09-.1-.06-.13.06-.04h-.01ZM5.79,5.31c.28.1.55.25.82.39.14.06.31.22.41.32,0,0,.36.43.65.84.23.32.46.67.46.67.08.12.05.13-.06.03,0,0-.09-.08-.24-.21-.34-.31-.8-.67-.8-.67-.11-.09-.28-.25-.37-.35,0,0-.14-.17-.31-.35-.27-.31-.61-.59-.61-.59-.1-.09-.08-.13.06-.08ZM5.14,5.18c.14,0,.36.09.46.17,0,0,.37.32.66.65l.15.16c.09.1.08.1-.04.03.01-.04-1.32-.93-1.33-.96,0-.05.1-.05.1-.05h-.01ZM4.74,4.66c.2.19.22.52.03.72s-.51.22-.72.03-.22-.52-.03-.72.51-.22.72-.03Z"/>
      <path class="cls-1" d="M7.62,8.76c.15.1.37.08.54-.06.17-.14.14-.44-.08-.59s-.47-.09-.57.12c-.1.19-.05.44.1.56h.01Z"/>
      <path class="cls-1" d="M5.21,3.82c.08.04.17,0,.2-.08.04-.08,0-.17-.09-.21-.08-.04-.18,0-.2.09-.03.08,0,.17.09.21h0Z"/>
      <path class="cls-7" d="M6.86,14.87c-.82,1.01-.34,1.81.03,1.84.41.04.97-.26,1.18-1.06.1-.44.6-1.23,1.26-1.78.64-.57,1.29-1.05,1.28-1.05,0,0-.7.25-1.55.57-.84.3-1.79.96-2.21,1.49h.01ZM7.55,15.9c-.05.16-.27.25-.46.19s-.29-.27-.2-.49c.1-.21.33-.28.5-.17.17.1.24.32.17.48h0ZM7.86,15.3c-.09.13-.29.17-.45.06-.15-.09-.18-.3-.08-.47.11-.16.33-.17.46-.05.14.12.14.31.05.44h.01ZM8.31,14.74c-.1.1-.28.1-.38,0-.11-.1-.11-.28,0-.4s.29-.12.4,0c.1.12.1.3,0,.39h-.01ZM8.82,14.22c-.1.08-.24.06-.32-.04s-.06-.26.04-.34.26-.06.33.05c.08.1.05.26-.04.32h-.01ZM9.19,13.43c.09-.06.2-.04.27.05.05.09.03.21-.05.27-.09.05-.2.03-.27-.05-.06-.09-.04-.21.05-.27Z"/>
      <path class="cls-9" d="M9.52,11.56c-.73-.37-1.63-.67-2.13-.81-.96-.27-1.47.12-1.48.41,0,.31.43.75,1.34.67.65.03,1.3.09,2.07.23.78.12,1.41.37,1.41.37,0,0-.46-.52-1.2-.88ZM6.91,11.52c-.15,0-.28-.16-.28-.32s.15-.3.33-.3c.18.01.31.17.28.34-.03.17-.17.3-.32.28h-.01ZM7.83,11.34c-.03.16-.17.25-.31.22-.14-.03-.24-.16-.23-.31.01-.16.15-.26.31-.23.15.03.26.17.23.31h0ZM8.42,11.47c-.04.13-.15.21-.28.18-.11-.03-.2-.16-.18-.28.03-.13.15-.21.28-.18.13.03.2.16.18.28ZM8.98,11.64c-.04.1-.14.16-.24.13-.1-.03-.15-.14-.13-.25.03-.1.14-.17.24-.13s.17.16.13.26h0ZM9.53,11.86c-.04.08-.13.12-.2.09-.08-.04-.11-.13-.09-.21.03-.08.13-.12.2-.09.09.04.11.13.09.21Z"/>
      <path class="cls-7" d="M10.58,12.68s-.87-.04-1.92.13c-1.03.16-2.22.5-2.87.75-1.23.45-1.49,1.33-1.23,1.63.27.28,1,.4,1.89-.36.46-.4,1.42-1.05,2.35-1.49.92-.45,1.78-.66,1.78-.66ZM5.79,14.89c-.19.12-.42.05-.57-.13s-.09-.48.13-.61.49-.05.59.16c.11.21.04.47-.15.58h.01ZM6.52,14.44c-.18.09-.41.03-.5-.17-.1-.18-.03-.41.17-.52s.42-.01.51.17c.09.19,0,.41-.17.5h-.01ZM7.28,14.02c-.17.08-.36,0-.43-.17s0-.36.17-.44.36,0,.43.17,0,.36-.17.44ZM8.06,13.63c-.14.05-.29,0-.36-.16-.06-.14,0-.31.15-.36.14-.06.31.01.36.16s-.01.3-.15.36ZM8.59,13.14c-.04-.12.03-.25.15-.28.13-.04.26.04.28.16s-.04.25-.15.27c-.11.04-.24-.04-.28-.16h0Z"/>
      <path class="cls-7" d="M5.94,13.42c.59-.22,1.74-.57,2.77-.75,1.02-.22,1.92-.12,1.92-.1.01,0-.83-.36-1.9-.45-1.06-.13-2.31-.14-2.99-.13-1.29,0-1.83.66-1.74,1.05.08.4.8.84,1.95.4h-.01ZM8.66,12.14c.13,0,.23.1.23.23s-.1.23-.23.23-.23-.1-.23-.23.1-.23.23-.23ZM7.74,12.13c.15,0,.29.12.29.27s-.1.28-.26.3c-.15.01-.28-.1-.29-.26-.01-.16.1-.3.26-.31ZM6.82,12.17c.19-.03.34.12.37.3.01.18-.11.35-.29.37-.18.01-.34-.1-.37-.28-.03-.18.1-.36.29-.37h0ZM5.9,12.26c.22-.04.41.1.45.32.03.21-.11.4-.31.44-.2.04-.4-.1-.45-.31-.04-.21.1-.41.31-.45ZM4.66,12.92c-.06-.23.08-.48.32-.53s.47.1.52.34c.05.25-.1.47-.33.52-.23.05-.46-.09-.52-.32h.01Z"/>
      <path class="cls-1" d="M8.41,10.76c-1.35-.58-1.89-.59-2.73-.4-.15.04-.31.09-.42.16.98.04,1.99-.06,3.15.26h0Z"/>
      <path class="cls-1" d="M11.45,12.22h0c-.34-.17-.66-.34-.96-.48.17.12.34.23.52.37.18.14.33.17.45.12h-.01Z"/>
    </g>
  </g>
  <g>
    <g>
      <path class="cls-8" d="M17.36,10.49c-.05.14-.05.28,0,.43.06.14.15.25.29.3.05.03.11.04.18.04-.26.53-.17,1.14.75,2,1.11.97,1.2,1.67,1.55,2.82-.2-1.4-.55-2.25-1.01-2.8s-1.05-1.67-.83-2.21c.03-.04.06-.09.09-.16.05-.14.06-.28,0-.43s-.17-.25-.31-.31c-.14-.05-.28-.05-.42,0-.14.06-.24.16-.31.3v.03Z"/>
      <path class="cls-8" d="M24.6,2.23c.19.21.51.22.72.03s.22-.52.03-.72c-.19-.21-.51-.22-.72-.03s-.22.52-.03.72ZM27.62,5h0c-.1-.63.17-1.36.73-1.67.06-.04.09-.09.1-.14.08-.09.08-.25-.06-.31-.59-.26-1.3-.79-1.16-1.52v-.06c1.32-.34,2.96-.12,2.5-.56-1.49-1.46-5.29-.71-8.33,2.15-3.03,2.87-4.1,10.51-2.44,9.23,4.02-3.1,6-.17,9.12-2.95,2.48-2.21,1.02-3.18-.47-4.16h.01ZM29.2.51c.11.03.19.14.15.23-.04.09-.13.14-.23.12s-.17-.12-.15-.22c.01-.1.11-.17.23-.14h0ZM26.66,7.44c-.43.1-.66,0-.68-.09-.01-.1.19-.27.64-.27s1.71-.03,1.71-.03c0,0-1.21.27-1.66.39h-.01ZM28.07,7.55c-.08.08-.19.06-.27-.03-.08-.09-.09-.21-.03-.27s.18-.05.27.01c.09.08.1.19.03.27h0ZM26.99,7.99s.13-.03.17.04c.05.06.04.14,0,.18-.05.04-.13.03-.17-.04-.05-.06-.04-.14,0-.18ZM26.85,8.42s-.1.01-.14-.04-.04-.12,0-.14c.04-.03.1-.01.14.04s.04.12,0,.14ZM27.26,7.97c-.05-.06-.05-.17,0-.21s.15-.03.2.04c.05.06.05.17,0,.21-.06.05-.15.03-.2-.04ZM26.44,6.15s.08-.09.13-.06.06.08.04.14c-.03.05-.08.08-.13.06-.05-.03-.06-.08-.04-.14ZM27.06,6.43c.04-.08.11-.12.19-.09.06.03.09.12.05.21-.04.08-.13.12-.19.09s-.09-.12-.05-.21ZM27.36,6.58c.04-.09.14-.13.22-.09.08.04.1.14.05.23-.05.09-.15.13-.22.09-.08-.04-.09-.14-.05-.23ZM27.67,6.74c.05-.1.18-.14.27-.08s.1.18.03.27-.19.13-.26.08c-.06-.05-.09-.17-.04-.27ZM27.3,5.31c.08-.04.26.08.37.41.08.37.61,1.24.64,1.24-.01.03-.72-.74-.89-1.1-.2-.31-.19-.52-.11-.56ZM26.9,6.21s.08.1.05.17c-.03.06-.1.1-.15.08s-.08-.1-.05-.17c.03-.06.1-.1.15-.08ZM28,3.1c-.5.37-.78,1-.78,1.63-.78-.54-1.48-1.11-1.48-1.93,0-.75.47-1.15,1.09-1.4-.08.76.52,1.36,1.16,1.69h.01ZM25.51,3.55s-.1-.04-.11-.09c0-.06.04-.12.1-.12s.11.04.11.1-.04.12-.1.12h0ZM28.4.37c.14,0,.24.12.23.25,0,.12-.13.21-.26.21s-.23-.12-.23-.23c0-.13.11-.22.26-.21h0ZM27.59.32c.17,0,.29.12.29.26s-.13.27-.28.27-.29-.1-.29-.25.11-.27.28-.27h0ZM26.78.34c.19-.03.36.1.37.27,0,.17-.11.31-.29.34s-.33-.09-.37-.25c-.04-.17.1-.32.29-.35h0ZM25.93.47c.23-.08.43.05.47.23s-.09.37-.27.43c-.17.05-.34-.01-.46-.18-.11-.16,0-.4.24-.48h.01ZM25.13,3.65c-.06.03-.14-.03-.17-.09-.03-.06.01-.14.09-.17s.14.03.17.09c.01.06-.03.14-.09.16h0ZM18.91,7.97c.61-2.08,2.15-4.21,3.18-5.2,1.94-1.91,3.41-1.9,3.69-1.37.31.61-.68,1.47-2.58,2.69-1.01.61-2.73,2.21-3.67,4.07-1,1.82-1.12,3.68-1.12,3.67,0,.01-.19-1.8.5-3.86ZM24.16,3.94c-.05-.09-.01-.21.08-.25.09-.05.2,0,.24.08.04.09,0,.19-.08.25-.09.04-.19.01-.24-.08ZM24.05,4.23c-.09.06-.22.03-.28-.06s-.04-.22.06-.28c.1-.06.23-.03.28.06.05.1.03.22-.06.28ZM24.55,3.73c-.04-.08,0-.17.09-.21.08-.04.18,0,.2.09.03.08,0,.17-.09.21-.08.04-.17,0-.2-.08h0ZM18.58,11.84s.34-1.45,1.28-2.99c.88-1.55,2.29-3.17,3.32-3.9.93-.72,2.03-.88,2.71-.63.69.26.84.71.73.94-.15.56-1.62,1.05-2.48,1.36-.96.43-2.5,1.38-3.68,2.65-1.21,1.23-1.89,2.58-1.88,2.58h0ZM25.46,7.3c-.04.12-.1.19-.2.21-.1,0-.2-.08-.22-.19-.01-.12.06-.23.2-.23.13-.01.27.12.22.22ZM24.49,7.7c-.14.04-.27-.05-.32-.18-.04-.14.04-.28.19-.32.14-.04.28.05.32.19.03.14-.05.28-.19.31ZM22.53,8.16c-.1-.18-.03-.4.17-.49s.41,0,.47.18c.08.18,0,.39-.18.47-.17.08-.37,0-.47-.17h.01ZM22.36,8.74c-.15.1-.37.08-.54-.06-.17-.14-.14-.44.08-.59s.47-.09.57.12c.1.19.05.44-.1.56h-.01ZM23.53,7.39c.17-.06.34.04.4.19.05.17-.04.34-.19.39-.15.05-.33-.03-.4-.18s.03-.35.19-.4ZM27.06,9.48c-.43.49-1,.3-2.49.16-.78-.1-2.43.12-3.7.8-1.3.63-2.17,1.6-2.17,1.59,0,.01.64-1.09,1.85-2.03,1.18-.97,2.89-1.65,3.95-1.78.97-.17,1.78.09,2.2.43.43.34.49.7.38.84h-.01ZM27.76,7.8c-.06.05-.17.04-.23-.04-.06-.08-.06-.19,0-.25s.17-.04.23.04c.06.08.06.18,0,.25ZM27.55,9.01c-.08-.01-.14-.25.03-.58.15-.36.75-1.24.77-1.24,0,0-.42.94-.49,1.34-.08.35-.22.5-.31.48ZM28.72,7.37c-.19-.08-.28-.3-.2-.49s.29-.28.49-.21.28.3.2.49c-.08.19-.29.28-.49.21ZM26.55,8.78c-.17-.18-.46-.19-.64-.03-.18.17-.19.47-.03.65s.46.19.64.03c.18-.17.19-.47.03-.65ZM25.22,5.37c.19.21.51.22.72.03s.22-.52.03-.72-.51-.22-.72-.03-.22.52-.03.72Z"/>
      <g>
        <path class="cls-8" d="M24.41,9.05c-.13.04-.18.05-.18.05-.11.03-.1.04.03.03,0-.06,1.37-.05,1.39-.03.01-.03-.05-.06-.05-.06-.1-.06-.29-.1-.41-.1,0,0-.41.03-.78.13h0Z"/>
        <path class="cls-8" d="M20.86,9.91l.05-.05s.01-.04-.09.04c-.03-.03-.92.76-.86.84h.01c.09-.03.22-.13.29-.22,0,0,.27-.34.57-.61h.01Z"/>
        <path class="cls-8" d="M21.88,9.44c.2-.14.41-.26.41-.26.1-.06.09-.08-.04-.03-.27.1-.52.21-.78.34-.11.05-.28.17-.38.25,0,0-.06.05-.18.16-.28.26-.55.56-.55.56-.08.09-.05.1.05.05l.32-.19c.11-.05.27-.17.34-.25,0,0,.37-.34.79-.62h.01Z"/>
        <g>
          <path class="cls-8" d="M22.97,9.16c.34-.17.74-.32.74-.31.11-.04.1-.06-.03-.04-.27.04-.52.09-.78.16-.13.04-.32.1-.42.17,0,0-.28.16-.55.34-.37.25-.73.56-.73.56-.09.08-.06.09.04.04.2-.1.41-.19.63-.28.11-.05.28-.13.38-.19,0,0,.34-.23.72-.4v-.03Z"/>
          <path class="cls-8" d="M23.02,9.18c-.31.16-.6.34-.6.34-.1.06-.08.08.04.04,0,0,.1-.04.26-.09.38-.12.87-.23.87-.22.11-.03.31-.08.41-.12,0,0,.17-.06.38-.12.33-.09.72-.13.72-.12.11,0,.11-.04,0-.06-.26-.05-.52-.06-.78-.06-.13,0-.33.04-.45.08,0,0-.45.17-.83.35h-.01Z"/>
        </g>
      </g>
      <g>
        <path class="cls-8" d="M23.71,5.99c-.11.12-.15.16-.15.16-.09.1-.08.1.04.03-.01-.04,1.32-.93,1.33-.96,0-.05-.1-.05-.1-.05-.14,0-.36.09-.46.17,0,0-.37.32-.66.65h.01Z"/>
        <path class="cls-8" d="M20.25,8.51l.04-.08c.04-.08,0-.05-.09.08-.03-.01-.69,1.24-.54,1.29h.04c.09-.06.18-.23.2-.36,0,0,.14-.48.34-.93Z"/>
        <path class="cls-8" d="M21.18,7.62c.14-.26.31-.48.31-.48.08-.12.05-.13-.06-.03-.24.22-.46.45-.69.7-.1.12-.24.31-.29.44,0,0-.04.09-.13.26-.19.41-.33.85-.33.85-.04.13,0,.14.09.04.09-.12.18-.23.28-.32.1-.1.2-.3.27-.41,0,0,.24-.54.55-1.05h.01Z"/>
        <g>
          <path class="cls-8" d="M22.24,6.84c.27-.36.59-.75.59-.75.09-.1.06-.13-.06-.04-.26.17-.5.36-.74.54-.11.09-.28.27-.36.39,0,0-.22.32-.41.63-.28.45-.52.94-.52.94-.06.12-.03.14.08.04.18-.19.37-.39.56-.57.1-.09.24-.27.32-.39,0,0,.26-.43.54-.8h.01Z"/>
          <path class="cls-8" d="M22.32,6.86c-.23.32-.46.67-.46.67-.08.12-.05.13.06.03,0,0,.09-.08.24-.21.34-.31.8-.67.8-.67.11-.09.28-.25.37-.35,0,0,.14-.17.31-.35.27-.31.61-.59.61-.59.1-.09.08-.13-.06-.08-.28.1-.55.25-.82.39-.14.06-.31.22-.41.32,0,0-.36.43-.65.84Z"/>
        </g>
      </g>
      <g>
        <path class="cls-8" d="M22.88,3.32c-.13.16-.18.22-.18.22-.1.14-.09.14.05,0-.04-.05,1.58-1.41,1.62-1.38,0-.04-.13-.01-.13-.01-.18.04-.42.19-.56.31,0,0-.45.43-.8.87Z"/>
        <path class="cls-8" d="M19.26,7.53l.04-.1c.04-.12,0-.05-.08.12-.04,0-.57,1.71-.46,1.73h.03c.08-.12.17-.35.19-.53,0,0,.11-.63.28-1.23h0Z"/>
        <path class="cls-8" d="M20.15,6.09c.14-.35.31-.65.31-.65.08-.16.05-.16-.06,0-.24.35-.47.71-.68,1.07-.09.17-.23.45-.28.62,0,0-.04.12-.1.35-.17.54-.29,1.14-.29,1.14-.03.18,0,.18.09,0,.08-.18.18-.35.26-.52.08-.17.19-.44.24-.61,0,0,.2-.74.51-1.42h.01Z"/>
        <g>
          <path class="cls-8" d="M21.23,4.79c.28-.5.65-1.02.65-1.02.1-.14.08-.16-.06-.01-.28.27-.55.57-.8.88-.13.16-.31.4-.38.57,0,0-.23.43-.41.87-.28.61-.5,1.29-.5,1.29-.05.17-.03.17.06,0,.17-.31.36-.61.55-.9.1-.16.24-.41.32-.57,0,0,.27-.58.57-1.1Z"/>
          <path class="cls-8" d="M21.31,4.78c-.26.44-.5.92-.5.92-.08.16-.05.16.06,0,0,0,.09-.13.26-.34.37-.48.87-1.06.88-1.05.13-.14.31-.37.42-.5,0,0,.15-.23.37-.48.32-.41.73-.8.73-.8.13-.13.1-.16-.06-.05-.33.21-.64.43-.95.67-.15.12-.36.35-.46.49,0,0-.41.58-.74,1.15h-.01Z"/>
        </g>
      </g>
      <g>
        <path class="cls-8" d="M28.78,16.69c-.83-.45-1.19-2.66-2.62-2.74.4-.12.63-.5.7-.67.38.09.98.22,1.34.12.52-.14.51-.57.41-.62-.13-.09-.33-.03-.59.16-.18.16-.74.21-1.14.23-.06-.19-.49-1.37-1.25-1.54-.28-.06-.59-.04-.92.04.92-.34.54-1.1-.41-1.32-1.3-.3-1.88-.09-5.76,1.86h0c.63,2.33,2.48,1.69,3.3,4.48.2.7,1.52,1.01,2.21.31.49-.49.19-1.29-.15-1.64.27.21.55.36.82.43.74.17,1.3-.17,1.43-.25.08.1.15.23.2.39.17.48.15,1.06.1,1.34-.1.54.06.79.23.9.17.12.6-.23.47-.94-.06-.36-.24-1-.57-1.45-.11-.18-.24-.3-.38-.37.05-.25.15-.85-.03-1.23,1.71.1,1.58,2.46,2.32,3.04.82.63,1.38.52,1.48.26.13-.19-.42-.97-1.19-.84v.05ZM19.25,12.43s.46-.52,1.2-.88c.73-.37,1.63-.67,2.13-.81.96-.27,1.47.12,1.48.41,0,.31-.43.75-1.34.67-.65.03-1.3.09-2.07.23-.78.12-1.41.37-1.41.37ZM21.26,12.1c1.06-.13,2.31-.14,2.99-.13,1.29,0,1.83.66,1.74,1.05-.08.4-.8.84-1.95.4-.59-.22-1.74-.57-2.77-.75-1.02-.22-1.92-.12-1.92-.1-.01,0,.83-.36,1.9-.45h.01ZM23.08,16.7c-.41.04-.97-.26-1.18-1.06-.1-.44-.6-1.23-1.26-1.78-.64-.57-1.29-1.05-1.28-1.05,0,0,.7.25,1.55.57.84.3,1.79.96,2.21,1.49.82,1.01.34,1.81-.03,1.84h-.01ZM25.4,15.18c-.27.28-1,.4-1.89-.36-.46-.4-1.42-1.05-2.35-1.49-.92-.45-1.78-.66-1.78-.66,0,0,.87-.04,1.92.13,1.03.16,2.22.5,2.87.75,1.23.45,1.49,1.34,1.23,1.63Z"/>
        <path class="cls-8" d="M24.62,14.16c-.22-.13-.49-.05-.59.16-.11.21-.04.47.15.58.19.12.42.05.57-.13s.09-.48-.13-.61h-.01Z"/>
        <path class="cls-8" d="M23.79,13.76c-.19-.1-.42-.01-.51.17-.09.19,0,.41.17.5.18.09.41.03.5-.17.1-.18.03-.41-.17-.52h.01Z"/>
        <path class="cls-8" d="M22.96,13.41c-.17-.08-.36,0-.43.17s0,.36.17.44.36,0,.43-.17,0-.36-.17-.44Z"/>
        <path class="cls-8" d="M22.11,13.1c-.14-.05-.31.01-.36.16s.01.3.15.36c.14.05.29,0,.36-.16.06-.14,0-.31-.15-.36Z"/>
        <path class="cls-8" d="M21.23,12.85c-.13-.04-.26.04-.28.16-.03.12.04.25.15.27.11.04.24-.04.28-.16.04-.12-.03-.25-.15-.28h0Z"/>
        <path class="cls-8" d="M24.78,13.24c.23.05.46-.09.52-.32s-.08-.48-.32-.53-.47.1-.52.34c-.05.25.1.47.33.52h-.01Z"/>
        <path class="cls-8" d="M23.93,13.01c.2.04.4-.1.45-.31.04-.21-.1-.41-.31-.45-.22-.04-.41.1-.45.32-.03.21.11.4.31.44Z"/>
        <path class="cls-8" d="M23.07,12.83c.18.01.34-.1.37-.28s-.1-.36-.29-.37c-.19-.03-.34.12-.37.3-.01.18.11.35.29.37h0Z"/>
        <path class="cls-8" d="M22.19,12.68c.15.01.28-.1.29-.26s-.1-.3-.26-.31c-.15,0-.29.12-.29.27s.1.28.26.3Z"/>
        <path class="cls-8" d="M21.54,12.37c0-.13-.1-.23-.23-.23s-.23.1-.23.23.1.23.23.23.23-.1.23-.23Z"/>
        <path class="cls-8" d="M23.06,11.52c.15,0,.28-.16.28-.32s-.15-.3-.33-.3c-.18.01-.31.17-.28.34s.17.3.32.28h.01Z"/>
        <path class="cls-8" d="M22.45,11.55c.14-.03.24-.16.23-.31s-.15-.26-.31-.23c-.15.03-.26.17-.23.31.03.16.17.25.31.22h0Z"/>
        <path class="cls-8" d="M21.83,11.64c.11-.03.2-.16.18-.28s-.15-.21-.28-.18c-.13.03-.2.16-.18.28.04.13.15.21.28.18Z"/>
        <path class="cls-8" d="M21.23,11.75c.1-.03.15-.14.13-.25s-.14-.17-.24-.13-.17.16-.13.26c.04.1.14.16.24.13h0Z"/>
        <path class="cls-8" d="M20.52,11.64c-.09.04-.11.13-.09.21.04.08.13.12.2.09.08-.04.11-.13.09-.21-.03-.08-.13-.12-.2-.09Z"/>
        <path class="cls-8" d="M22.59,15.42c-.17.1-.24.32-.17.48.05.16.27.25.46.19.19-.05.29-.27.2-.49-.1-.21-.33-.28-.5-.17h0Z"/>
        <path class="cls-8" d="M22.62,14.91c-.11-.16-.33-.17-.46-.05-.14.12-.14.31-.05.44s.29.17.45.06c.15-.09.18-.3.08-.47h-.01Z"/>
        <path class="cls-8" d="M22.06,14.33c-.11-.12-.29-.12-.4,0s-.1.3,0,.39c.1.1.28.1.38,0,.11-.1.11-.28,0-.4h.01Z"/>
        <path class="cls-8" d="M21.44,13.83c-.1-.08-.26-.06-.33.05-.08.1-.05.26.04.32.1.08.24.06.32-.04s.06-.26-.04-.34h.01Z"/>
        <path class="cls-8" d="M20.78,13.42c-.09-.06-.2-.04-.27.05-.05.09-.03.21.05.27.09.05.2.03.27-.05.06-.09.04-.21-.05-.27Z"/>
      </g>
    </g>
    <g>
      <path class="cls-1" d="M25.74,2.8c0-.75.47-1.15,1.09-1.4-.08.76.52,1.36,1.16,1.69-.5.37-.78,1-.78,1.63-.78-.54-1.48-1.11-1.48-1.93h.01Z"/>
      <path class="cls-1" d="M26.15,1.14c-.17.05-.34-.01-.46-.18-.11-.16,0-.4.24-.48.23-.08.43.05.47.23s-.09.37-.27.43h.01Z"/>
      <path class="cls-1" d="M26.85.95c-.18.03-.33-.09-.37-.25-.04-.17.1-.32.29-.35s.36.1.37.27c0,.17-.11.31-.29.34h0Z"/>
      <path class="cls-1" d="M25.51,3.56s-.1-.04-.11-.09c0-.06.04-.12.1-.12s.11.04.11.1-.04.12-.1.12h0Z"/>
      <path class="cls-1" d="M28.4.38c.14,0,.24.12.23.25,0,.12-.13.21-.26.21s-.23-.12-.23-.23c0-.13.11-.22.26-.21h0Z"/>
      <path class="cls-1" d="M25.13,3.66c-.06.03-.14-.03-.17-.09-.03-.06.01-.14.09-.17s.14.03.17.09c.01.06-.03.14-.09.16h0Z"/>
      <path class="cls-1" d="M29.2.52c.11.03.19.14.15.23-.04.09-.13.14-.23.12s-.17-.12-.15-.22c.01-.1.11-.17.23-.14h0Z"/>
      <path class="cls-1" d="M24.05,4.25c-.09.06-.22.03-.28-.06s-.04-.22.06-.28c.1-.06.23-.03.28.06.05.1.03.22-.06.28Z"/>
      <path class="cls-6" d="M18.41,10.85c-.03.62.01,1.01.01,1,0,0,.11-1.85,1.12-3.67.93-1.86,2.66-3.46,3.67-4.07,1.92-1.21,2.89-2.08,2.58-2.69-.28-.53-1.75-.54-3.69,1.37-1.03.98-2.57,3.11-3.18,5.2-.33,1-.46,1.94-.5,2.64v.23h-.01ZM24.63,1.51c.2-.19.52-.18.72.03s.18.53-.03.72-.52.18-.72-.03c-.19-.21-.18-.53.03-.72ZM22.7,3.53s.05-.05.18-.22c.36-.44.8-.88.8-.87.13-.12.37-.27.56-.31,0,0,.11-.03.13.01-.04-.01-1.65,1.34-1.62,1.38-.13.13-.15.13-.05,0ZM20.82,5.69s.24-.48.5-.92c.33-.57.74-1.15.74-1.15.1-.14.31-.36.46-.49.31-.25.61-.47.95-.67.17-.1.19-.08.06.05,0,0-.41.39-.73.8-.22.25-.37.48-.37.48-.1.13-.29.37-.42.5,0,0-.51.57-.88,1.05-.15.21-.24.34-.26.34-.11.16-.14.16-.06,0h.01ZM19.74,7.37s.22-.68.5-1.29c.18-.44.42-.87.41-.87.08-.17.26-.41.38-.57.26-.3.52-.59.8-.88.14-.14.17-.13.06.01,0,0-.37.52-.65,1.02-.31.52-.56,1.1-.57,1.1-.08.16-.22.41-.32.57-.19.3-.38.59-.55.9-.09.17-.13.17-.06,0ZM19.05,8.64s.13-.59.29-1.14c.08-.23.1-.35.1-.35.05-.18.18-.45.28-.62.2-.37.43-.72.68-1.07.11-.16.14-.16.06,0,0,0-.15.31-.31.65-.31.68-.52,1.42-.51,1.42-.05.17-.17.44-.24.61-.09.17-.18.34-.26.52-.08.17-.11.17-.09,0h-.01ZM19.21,7.55c.08-.18.11-.23.08-.12l-.04.1c-.18.59-.29,1.21-.28,1.23-.03.17-.11.41-.19.54h-.03c-.11-.04.42-1.76.46-1.74h0Z"/>
      <path class="cls-1" d="M19.49,11.74c.75-.5,1.43-.8,2.07-.98-.54.23-1.2.54-2.07.98Z"/>
      <path class="cls-1" d="M24.4,4.01c-.09.04-.19.01-.24-.08s-.01-.21.08-.25c.09-.05.2,0,.24.08.04.09,0,.19-.08.25Z"/>
      <path class="cls-1" d="M27.59.33c.17,0,.29.12.29.26s-.13.27-.28.27-.29-.1-.29-.25.11-.27.28-.27h0Z"/>
      <path class="cls-9" d="M24.57,9.65c1.49.14,2.06.34,2.49-.16.1-.14.05-.5-.38-.84-.42-.34-1.23-.59-2.2-.43-1.05.13-2.76.81-3.95,1.78-1.21.94-1.84,2.04-1.85,2.03,0,0,.87-.96,2.17-1.59,1.29-.67,2.93-.9,3.7-.8h.01ZM20.91,9.85l-.05.05c-.31.27-.57.61-.57.61-.08.09-.2.19-.29.25h-.01c-.08-.09.83-.88.86-.85.1-.08.14-.09.09-.04h-.01ZM22.29,9.2s-.2.12-.41.26c-.41.28-.79.62-.79.62-.09.08-.24.19-.34.25l-.32.19c-.1.06-.13.04-.05-.05,0,0,.27-.3.55-.56.11-.1.18-.16.18-.16.09-.08.26-.19.38-.25.26-.13.51-.25.78-.34.13-.04.14-.03.04.03h-.01ZM23.71,8.86s-.4.14-.74.31c-.36.18-.72.41-.72.4-.09.06-.27.16-.38.19-.22.09-.42.18-.63.28-.11.05-.13.04-.04-.04,0,0,.36-.31.73-.56.26-.18.55-.34.55-.34.1-.06.29-.13.42-.17.26-.06.51-.12.78-.16.13-.01.14,0,.03.04v.03ZM25.91,8.77c.18-.17.47-.17.64.03.17.18.17.48-.03.65-.18.17-.47.17-.64-.03-.17-.18-.17-.48.03-.65ZM24.25,9.1s.05,0,.18-.05c.36-.09.78-.13.78-.13.11,0,.31.04.41.1,0,0,.06.04.05.06-.03-.03-1.39-.04-1.39.03-.11.01-.13,0-.03-.03h0ZM23.99,9.13c-.1.04-.29.09-.41.12,0,0-.49.1-.87.22-.17.05-.26.09-.26.09-.11.04-.13.03-.04-.04,0,0,.31-.18.6-.34.38-.19.83-.36.83-.35.11-.04.31-.08.45-.08.26,0,.52.03.78.06.13.03.13.05,0,.06,0,0-.38.03-.72.12-.2.05-.38.12-.38.12h.01Z"/>
      <path class="cls-1" d="M23.91,7.59c.05.17-.04.34-.19.39-.15.05-.33-.03-.4-.18s.03-.35.19-.4c.17-.06.34.04.4.19Z"/>
      <path class="cls-1" d="M25.46,7.31c-.04.12-.1.19-.2.21-.1,0-.2-.08-.22-.19-.01-.12.06-.23.2-.23.13-.01.27.12.22.22Z"/>
      <g>
        <path class="cls-8" d="M27.41,5.86c-.2-.31-.19-.52-.11-.56.08-.04.26.08.37.41.08.37.61,1.24.64,1.24-.01.03-.72-.74-.89-1.1Z"/>
        <path class="cls-8" d="M26.9,6.21s.08.1.05.17c-.03.06-.1.1-.15.08s-.08-.1-.05-.17c.03-.06.1-.1.15-.08Z"/>
        <path class="cls-8" d="M27.25,6.35c.06.03.09.12.05.21-.04.08-.13.12-.19.09s-.09-.12-.05-.21c.04-.08.11-.12.19-.09Z"/>
        <path class="cls-8" d="M27.41,6.82c-.08-.04-.09-.14-.05-.23.04-.09.14-.13.22-.09.08.04.1.14.05.23-.05.09-.15.13-.22.09Z"/>
        <path class="cls-8" d="M27.93,6.66c.09.06.1.18.03.27s-.19.13-.26.08c-.06-.05-.09-.17-.04-.27.05-.1.18-.14.27-.08Z"/>
        <path class="cls-8" d="M27.47,7.8c.05.06.05.17,0,.21-.06.05-.15.03-.2-.04-.05-.06-.05-.17,0-.21s.15-.03.2.04Z"/>
        <path class="cls-8" d="M25.98,7.36c-.01-.1.19-.27.64-.27s1.71-.03,1.71-.03c0,0-1.21.27-1.66.39-.43.1-.66,0-.68-.09h-.01Z"/>
        <path class="cls-8" d="M28.35,7.19s-.42.94-.49,1.34c-.08.35-.22.5-.31.48-.08-.01-.14-.25.03-.58.15-.36.75-1.24.77-1.24Z"/>
        <path class="cls-8" d="M29,6.68c.19.08.28.3.2.49-.08.19-.29.28-.49.21-.19-.08-.28-.3-.2-.49s.29-.28.49-.21Z"/>
        <path class="cls-8" d="M26.99,8.17s-.04-.14,0-.18c.05-.04.13-.03.17.04.05.06.04.14,0,.18-.05.04-.13.03-.17-.04Z"/>
        <path class="cls-8" d="M27.76,7.27s.18-.05.27.01c.09.08.1.19.03.27s-.19.06-.27-.03c-.08-.09-.09-.21-.03-.27h0Z"/>
        <path class="cls-8" d="M27.53,7.76c-.06-.08-.06-.19,0-.25s.17-.04.23.04c.06.08.06.18,0,.25-.06.05-.17.04-.23-.04Z"/>
        <path class="cls-8" d="M26.86,8.28s.04.12,0,.14c-.04.03-.1.01-.14-.04s-.04-.12,0-.14c.04-.03.1-.01.14.04Z"/>
        <path class="cls-8" d="M26.57,6.09s.06.08.04.14c-.03.05-.08.08-.13.06-.05-.03-.06-.08-.04-.14.03-.05.08-.09.13-.06Z"/>
      </g>
      <path class="cls-1" d="M24.36,7.19c.14-.04.28.05.32.19.03.14-.05.28-.19.31-.14.04-.27-.05-.32-.18-.04-.14.04-.28.19-.32Z"/>
      <path class="cls-1" d="M22.7,7.68c.19-.09.41,0,.47.18.08.18,0,.39-.18.47-.17.08-.37,0-.47-.17-.1-.18-.03-.4.17-.49h.01Z"/>
      <path class="cls-6" d="M25.88,4.31c-.68-.25-1.78-.08-2.71.63-1.05.74-2.44,2.35-3.32,3.9-.93,1.54-1.29,3-1.28,2.99-.01,0,.66-1.36,1.88-2.58,1.18-1.27,2.72-2.22,3.68-2.65.86-.31,2.32-.8,2.48-1.36.1-.22-.04-.68-.73-.94h0ZM20.29,8.45l-.04.08c-.2.44-.34.93-.34.93-.03.13-.11.3-.2.39h-.04c-.15-.08.5-1.33.54-1.32.09-.13.13-.16.09-.08ZM21.49,7.14s-.15.22-.31.48c-.31.5-.55,1.05-.55,1.05-.06.12-.18.31-.27.41-.1.1-.19.22-.28.32s-.14.09-.09-.04c0,0,.14-.45.33-.85.08-.17.13-.26.13-.26.06-.13.19-.32.29-.44.22-.25.45-.48.69-.7.11-.1.14-.09.06.03h-.01ZM22.82,6.11s-.32.37-.59.75c-.28.39-.54.8-.54.8-.08.12-.22.3-.32.39-.19.18-.38.36-.56.57-.1.1-.13.09-.08-.04,0,0,.24-.5.52-.94.19-.32.41-.63.41-.63.08-.12.24-.28.36-.39.24-.18.49-.37.74-.54.13-.09.15-.06.06.04h-.01ZM24.25,5.38s-.34.28-.61.59c-.18.18-.31.36-.31.35-.09.1-.26.26-.37.35,0,0-.46.36-.8.67-.15.13-.24.21-.24.21-.1.09-.14.08-.06-.03,0,0,.23-.35.46-.67.31-.41.65-.85.65-.84.09-.1.27-.26.41-.32.27-.14.54-.27.82-.39.14-.05.17-.01.06.08ZM24.94,5.23s-1.34.92-1.33.96c-.11.09-.13.08-.04-.03,0,0,.04-.04.15-.16.29-.34.66-.65.66-.65.1-.09.32-.18.46-.17,0,0,.09,0,.1.05h-.01ZM25.95,4.68c.19.21.18.53-.03.72s-.52.18-.72-.03-.18-.53.03-.72.52-.18.72.03Z"/>
      <path class="cls-1" d="M22.36,8.76c-.15.1-.37.08-.54-.06-.17-.14-.14-.44.08-.59s.47-.09.57.12c.1.19.05.44-.1.56h-.01Z"/>
      <path class="cls-1" d="M24.76,3.82c-.08.04-.17,0-.2-.08s0-.17.09-.21c.08-.04.18,0,.2.09.03.08,0,.17-.09.21h0Z"/>
      <path class="cls-7" d="M20.9,13.4c-.84-.32-1.55-.56-1.55-.57,0,0,.64.49,1.28,1.05.66.56,1.18,1.34,1.26,1.78.2.8.75,1.1,1.18,1.06.37-.03.84-.83.03-1.84-.42-.53-1.37-1.19-2.21-1.49h.01ZM22.59,15.42c.17-.1.4-.04.5.17.09.22,0,.44-.2.49-.19.05-.4-.04-.46-.19-.08-.16,0-.36.17-.48h0ZM22.16,14.86c.13-.12.34-.1.46.05s.08.36-.08.47c-.15.09-.34.06-.45-.06-.09-.13-.08-.32.05-.44h.01ZM21.67,14.34c.1-.12.28-.12.4,0s.11.3,0,.4c-.11.1-.28.1-.38,0s-.1-.28,0-.39h-.01ZM21.1,13.9c.08-.1.23-.13.33-.05s.11.23.04.34c-.09.1-.23.12-.32.04-.1-.08-.11-.22-.04-.32h-.01ZM20.84,13.71c-.06.09-.18.12-.27.05-.09-.05-.11-.18-.05-.27.05-.09.18-.12.27-.05s.11.18.05.27Z"/>
      <path class="cls-9" d="M19.25,12.44s.64-.26,1.41-.37c.77-.14,1.42-.21,2.07-.23.91.08,1.34-.36,1.34-.67s-.52-.68-1.48-.41c-.51.14-1.42.44-2.13.81-.74.36-1.21.88-1.2.88ZM22.73,11.25c-.03-.17.1-.32.28-.34.18,0,.32.12.33.3,0,.17-.13.31-.28.32-.15.01-.31-.1-.32-.28h-.01ZM22.37,11.02c.15-.03.29.08.31.23s-.09.28-.23.31c-.14.01-.28-.08-.31-.22s.08-.3.23-.31h0ZM21.73,11.19c.13-.04.26.05.28.18.03.13-.05.25-.18.28-.11.03-.24-.05-.28-.18-.04-.13.05-.26.18-.28ZM21.12,11.39c.1-.03.22.03.24.13s-.03.22-.13.25c-.1.04-.2-.03-.24-.13s.03-.22.13-.26h0ZM20.52,11.65c.09-.04.18,0,.2.09.04.08,0,.18-.09.21-.08.04-.17,0-.2-.09-.04-.08,0-.18.09-.21Z"/>
      <path class="cls-7" d="M21.17,13.34c.92.44,1.89,1.09,2.35,1.49.89.76,1.61.66,1.89.36.27-.28,0-1.18-1.23-1.63-.65-.25-1.84-.59-2.87-.75-1.05-.17-1.92-.13-1.92-.13,0,0,.87.21,1.78.66ZM24.03,14.31c.11-.21.37-.28.59-.16.22.13.28.43.13.61-.15.18-.4.25-.57.13-.19-.12-.27-.37-.15-.58h.01ZM23.29,13.94c.09-.19.32-.27.51-.17.19.09.27.34.17.52-.1.18-.32.26-.5.17s-.26-.32-.17-.5h-.01ZM22.52,13.59c.06-.17.27-.25.43-.17.17.08.24.27.17.44-.08.17-.27.23-.43.17-.17-.08-.23-.27-.17-.44ZM21.76,13.27c.05-.14.22-.22.36-.16.14.05.22.22.15.36s-.22.21-.36.16-.2-.22-.15-.36ZM21.12,13.29c-.11-.03-.18-.16-.15-.27.03-.12.15-.19.28-.16.13.04.19.17.15.28-.04.12-.17.18-.28.16h0Z"/>
      <path class="cls-7" d="M25.98,13.02c.08-.39-.45-1.03-1.74-1.05-.69,0-1.93,0-2.99.13-1.07.09-1.92.44-1.9.45,0-.01.89-.12,1.92.1,1.02.18,2.17.53,2.77.75,1.15.44,1.88,0,1.95-.4h-.01ZM21.54,12.37c0,.13-.1.23-.23.23s-.23-.1-.23-.23.1-.23.23-.23.23.1.23.23ZM22.48,12.44c-.01.16-.15.27-.29.26-.15,0-.27-.14-.26-.3,0-.16.14-.28.29-.27.15.01.27.16.26.31ZM23.43,12.54c-.03.18-.19.31-.37.28-.18-.03-.31-.19-.29-.37s.18-.31.37-.3c.19.03.32.19.29.37h0ZM24.37,12.71c-.04.21-.24.35-.45.31-.2-.04-.34-.23-.31-.44.03-.21.23-.36.45-.32s.36.25.31.45ZM24.78,13.24c-.23-.05-.37-.28-.33-.52.05-.23.28-.39.52-.34.24.06.38.3.32.53s-.29.37-.52.32h.01Z"/>
      <g>
        <path class="cls-9" d="M21.35,19.47c-.14,0-.28-.1-.29-.26s.09-.28.26-.3c.15,0,.29.1.29.26s-.11.28-.26.3Z"/>
        <path class="cls-9" d="M21.9,18.93c.14,0,.24.1.24.25,0,.13-.1.25-.24.25-.13,0-.24-.1-.24-.25s.1-.26.24-.25Z"/>
        <path class="cls-9" d="M22.47,18.95c.11,0,.2.09.22.21,0,.12-.09.22-.2.22s-.2-.09-.22-.21c0-.12.09-.21.2-.22Z"/>
        <path class="cls-9" d="M23.03,18.97c.09,0,.18.06.19.17,0,.1-.06.19-.17.19s-.18-.08-.19-.18c0-.1.08-.18.17-.18Z"/>
        <path class="cls-9" d="M23.58,18.94c.08,0,.15.05.17.13.01.08-.04.16-.13.16-.08,0-.15-.05-.17-.13,0-.08.05-.16.13-.16Z"/>
      </g>
      <path class="cls-1" d="M21.56,10.76c1.35-.58,1.89-.59,2.73-.4.15.04.31.09.42.16-.98.04-1.99-.06-3.15.26h0Z"/>
      <path class="cls-1" d="M18.52,12.22h0c.34-.17.66-.34.96-.48-.17.12-.34.23-.52.37s-.33.17-.45.12h.01Z"/>
    </g>
  </g>
  <g>
    <g>
      <path class="cls-8" d="M11.22,13.87h7.57c-.08.21-.15.39-.22.57-.05.14-.11.27-.17.41-.03.08-.06.1-.14.12-.5.05-.87.3-1.06.78-.15.39-.1.76.11,1.11.05.09.04.14-.03.22-.42.49-.95.78-1.6.76h-1.48c-.64-.01-1.14-.31-1.55-.8-.05-.06-.05-.1,0-.17.45-.7.13-1.62-.66-1.86-.09-.03-.18-.05-.27-.05s-.13-.05-.15-.12c-.13-.32-.24-.65-.38-.98h.01ZM16.06,17.14v-.16c-.01-.26-.04-.52-.04-.78,0-.12-.04-.17-.15-.16h-1.66c-.15,0-.19,0-.2.19,0,.25-.01.49-.04.74,0,.14,0,.17.14.17h1.97-.01ZM15,15.77h.78c.1,0,.18,0,.19-.14,0-.16-.04-.23-.17-.25h-.28c-.09,0-.11-.03-.11-.12v-.72c0-.16-.08-.23-.23-.23h-.27c-.23,0-.29.06-.29.3v.66c0,.09-.03.13-.13.13h-.28c-.13,0-.19.1-.18.23,0,.12.09.14.19.14h.78ZM12.2,14.12s.03.06.05.1c.15.22.29.44.45.65.18.23.41.39.72.39h.45c.14,0,.27-.06.32-.19.1-.25.09-.49-.03-.72-.09-.17-.26-.21-.42-.21h-1.53ZM17.83,14.11s-.09-.03-.13-.03c-.08,0-.14.01-.22.01-.41,0-.8,0-1.21.01-.29,0-.47.16-.5.44,0,.09,0,.18-.01.28,0,.22.19.43.41.41h.34c.34.01.6-.14.79-.41.17-.23.33-.47.51-.72h.01Z"/>
      <path class="cls-8" d="M11.66,15.19c.57-.04,1.02.52,1.01,1.01,0,.61-.49,1.03-1.01,1.03-.56,0-1.01-.43-1.01-1.03,0-.53.42-1.03,1.01-1.01ZM12.11,16.2c0-.28-.19-.44-.43-.45-.24,0-.46.21-.46.45s.22.47.46.47c.26,0,.45-.19.45-.47h-.01Z"/>
      <path class="cls-8" d="M10.69,13.86h.22s.09.04.1.06c.13.32.26.65.38.98v.08c-.11.05-.23.1-.34.14-.03,0-.08-.03-.09-.05-.06-.27-.13-.53-.19-.8-.03-.13-.06-.27-.09-.43h.01Z"/>
      <path class="cls-8" d="M19.3,13.86c-.1.44-.2.85-.31,1.29-.14-.05-.28-.1-.42-.17.05-.13.1-.25.15-.37.08-.22.15-.43.24-.65.03-.08.06-.14.17-.12h.17Z"/>
      <path class="cls-2" d="M10.5,13.68c0,.06,0,.12-.01.18h-2.2c-.06-.32-.06-.66-.01-.98v-.18c.03-.47.13-.92.26-1.37.19-.63.46-1.23.83-1.78.37-.57.83-1.07,1.35-1.51.5-.41,1.03-.74,1.62-1,.28-.13.59-.21.88-.3.7-.22,1.43-.27,2.17-.22.38.03.75.09,1.12.17.36.08.7.21,1.05.34.47.18.91.44,1.33.74.15.1.29.23.43.35.09.08.18.14.26.23.09.09.17.19.26.3.05.06.13.1.19.17.5.57.89,1.2,1.18,1.9.17.4.28.81.37,1.24.14.59.15,1.2.14,1.81,0,.09-.04.12-.11.12h-2.01s-.09-.04-.09-.06c0-.12-.06-.13-.15-.13h-8.86.01ZM17.41,12.62c-.1-.52-.41-.93-.78-1.25-.36-.31-.8-.52-1.3-.57-1.38-.17-2.5.79-2.73,1.84h4.82Z"/>
      <path class="cls-3" d="M16.06,17.14h-1.97c-.14,0-.15-.03-.14-.17.01-.25.03-.49.04-.74,0-.19.05-.19.2-.19h1.66c.13,0,.15.04.15.16,0,.26.03.52.04.78v.16h.01ZM15.57,16.34h-1.01c-.08,0-.14,0-.15.09,0,.09.06.1.14.1h.88c.14,0,.17-.03.13-.19h.01Z"/>
      <path class="cls-3" d="M15,15.77h-.78c-.1,0-.18-.03-.19-.14,0-.13.06-.22.18-.23h.28c.09,0,.13-.04.13-.13v-.66c0-.22.06-.28.29-.3h.27c.15,0,.23.08.23.23v.72c0,.09.03.12.11.12h.28c.13,0,.18.09.17.25,0,.13-.09.14-.19.14h-.78Z"/>
      <path class="cls-3" d="M12.2,14.12h1.52c.17,0,.34.04.42.21.11.23.13.49.03.72-.05.13-.17.19-.32.19h-.45c-.31,0-.54-.14-.72-.39-.15-.21-.31-.43-.45-.65-.03-.04-.04-.08-.05-.1h.01ZM13.22,14.64c-.01.25.2.41.4.4.2,0,.38-.16.38-.4s-.19-.4-.4-.4c-.19,0-.41.17-.38.4Z"/>
      <path class="cls-3" d="M17.83,14.11c-.18.26-.34.49-.51.72-.19.27-.45.43-.79.41h-.34c-.22.01-.42-.19-.41-.41,0-.09,0-.18.01-.28.03-.3.2-.44.5-.44.41-.01.8,0,1.21-.01.08,0,.14-.01.22-.01.04,0,.08.01.13.03h-.01ZM16.39,14.24c-.22,0-.4.19-.38.4,0,.22.18.4.4.39.26,0,.4-.19.4-.4,0-.22-.15-.4-.41-.4h0Z"/>
      <path class="cls-3" d="M12.11,16.2c0,.27-.19.47-.45.47s-.46-.22-.46-.47.22-.47.46-.45c.24,0,.45.17.43.45h.01ZM11.68,15.84c-.19,0-.37.17-.37.35,0,.22.17.37.37.37.19,0,.36-.17.36-.37s-.14-.36-.34-.36h-.01Z"/>
      <path class="cls-8" d="M15.57,16.34c.03.16,0,.19-.13.19h-.88c-.08,0-.15-.03-.14-.1,0-.08.08-.09.15-.09h1.01-.01Z"/>
      <path class="cls-8" d="M13.22,14.64c-.03-.23.19-.4.38-.4.2,0,.4.14.4.4s-.17.4-.38.4c-.19,0-.41-.16-.4-.4Z"/>
      <path class="cls-8" d="M16.39,14.24c.24,0,.41.18.41.4s-.14.39-.4.4c-.22,0-.38-.18-.4-.39,0-.22.17-.41.38-.4h0Z"/>
      <path class="cls-8" d="M11.68,15.84c.2,0,.34.16.34.36s-.17.37-.36.37c-.2,0-.36-.17-.37-.37,0-.19.18-.36.37-.35h.01Z"/>
      <path class="cls-8" d="M18.42,15.18c.57-.04,1.02.52,1.01,1.01,0,.61-.49,1.03-1.01,1.03-.56,0-1.01-.43-1.01-1.03,0-.53.42-1.03,1.01-1.01ZM18.87,16.2c0-.28-.19-.44-.43-.45-.24,0-.46.21-.46.45s.22.47.46.47c.26,0,.45-.19.45-.47h-.01Z"/>
      <path class="cls-8" d="M18.43,15.84c.2,0,.34.16.34.36s-.17.37-.36.37c-.2,0-.36-.17-.37-.37,0-.19.18-.36.37-.35h.01Z"/>
    </g>
    <g>
      <path class="cls-8" d="M15.32,8.43c.01-.18-.17-.32-.31-.32-.15,0-.32.17-.32.32,0,.14.13.32.32.31.18,0,.31-.13.31-.31Z"/>
      <path class="cls-8" d="M18.92,10.11c0-.17-.14-.32-.29-.32-.2,0-.31.1-.31.32,0,.18.13.31.31.31s.31-.13.31-.31h-.01Z"/>
      <path class="cls-8" d="M17.59,9.52c.23,0,.29-.09.29-.32,0-.19-.18-.31-.31-.31-.17,0-.32.16-.31.32,0,.18.13.31.32.3h0Z"/>
      <path class="cls-8" d="M19.35,11.59c.17,0,.31-.16.31-.32,0-.16-.17-.32-.32-.32s-.31.17-.31.34.14.31.31.31h.01Z"/>
      <path class="cls-8" d="M12.43,9.52c.18,0,.31-.13.31-.3,0-.21-.13-.31-.31-.32-.14,0-.32.17-.32.32,0,.17.14.31.32.31h0Z"/>
      <path class="cls-8" d="M10.29,12.89c.17,0,.32-.14.32-.3s-.14-.32-.32-.32c-.17,0-.31.14-.32.31,0,.17.14.31.32.31Z"/>
      <path class="cls-8" d="M13.66,8.94c.18,0,.32-.13.32-.3s-.14-.32-.32-.32c-.15,0-.31.16-.32.31,0,.16.14.3.32.31Z"/>
      <path class="cls-8" d="M11.4,10.41c.19,0,.29-.12.32-.3.03-.16-.15-.32-.31-.32s-.32.16-.32.31c0,.17.14.31.31.31Z"/>
      <path class="cls-8" d="M10.97,11.26c0-.16-.17-.32-.32-.32s-.29.16-.31.32c0,.18.13.32.31.32.15,0,.32-.16.32-.32Z"/>
      <path class="cls-8" d="M16.34,8.94c.18,0,.32-.12.32-.28s-.14-.32-.31-.34c-.17,0-.31.13-.31.31,0,.19.1.31.29.31Z"/>
      <path class="cls-8" d="M19.74,12.89c.18,0,.31-.13.31-.3s-.14-.31-.31-.32c-.18,0-.29.13-.31.31,0,.16.13.32.31.31Z"/>
    </g>
    <path class="cls-8" d="M16.63,11.42c-.36-.31-.8-.52-1.3-.57-1.38-.17-2.5.79-2.73,1.84h4.8c-.1-.52-.41-.93-.78-1.25h.01Z"/>
  </g>
  <g>
    <path class="cls-8" d="M10.62,4.61c.32-.16.65-.26,1-.34,0,.03.03.05.03.09-.08.04-.14.09-.24.14.03.18.05.39.1.58.09.34.19.68.31,1.01.04.12.15.21.26.34-.19.06-.42.16-.66.23.26-.21.1-.43.04-.63-.09-.32-.19-.65-.28-.97-.11-.4-.14-.41-.55-.36v-.1h.01Z"/>
    <path class="cls-8" d="M12.89,6.18c.17-.01.36-.04.52-.05l-.41-1.86c.08.05.15.09.2.14.33.37.68.75,1,1.12.11.13.26.27.03.47h.54c.01-.63.06-1.25-.14-1.86-.03-.08.11-.19.19-.32-.22,0-.45.03-.68.03.32.21.14.53.23.78.06.18.03.41.03.66-.09-.1-.15-.19-.23-.27-.33-.34-.66-.68-1.01-1.02-.04-.04-.11-.06-.17-.05-.2.05-.42.1-.6.16.42.63.59,1.32.5,2.09Z"/>
    <path class="cls-8" d="M17.72,4.47c-.29-.14-.57-.27-.89-.41-.05.22-.09.37-.11.53-.04.35-.09.71-.1,1.06,0,.17.05.35.09.56-.23-.04-.5-.08-.77-.13.37-.18.26-.52.29-.81.04-.32.06-.66.11-.98.03-.17-.03-.26-.2-.25-.15.01-.31.06-.47.08-.1,0-.2,0-.31-.01-.01,0-.04-.16,0-.18.06-.05.17-.1.24-.09.63.08,1.26.17,1.89.26.19.03.27.14.2.39h.03Z"/>
    <path class="cls-8" d="M18.5,4.32c.36.03.68.16,1,.28,0,.03-.01.06-.03.09-.09,0-.17-.03-.29-.04-.1.23-.22.48-.31.74-.1.26-.19.53-.28.79-.05.16-.1.3.11.4l-.05.06c-.24-.08-.49-.14-.73-.22.34-.04.33-.34.42-.56.1-.27.19-.54.29-.81.15-.41.15-.43-.14-.74Z"/>
    <path class="cls-8" d="M11.43,4.16c-.26.09-.49.17-.75.26.14-.37.49-.49.75-.26Z"/>
    <path class="cls-8" d="M19.43,4.4c-.27-.08-.5-.14-.75-.22.28-.25.63-.14.75.22Z"/>
  </g>
  <g class="cls-4">
    <text class="cls-5" transform="translate(10.36 19.55) scale(1.08 1)"><tspan x="0" y="0">ASSOCIAZIONE</tspan></text>
  </g>
  <g>
    <path class="cls-9" d="M9.72,19.61c.14,0,.28-.1.29-.26.01-.16-.09-.28-.26-.3-.15,0-.29.1-.29.26s.11.28.26.3Z"/>
    <path class="cls-9" d="M9.17,19.06c-.14,0-.24.1-.24.25,0,.13.1.25.24.25.13,0,.24-.1.24-.25s-.1-.26-.24-.25Z"/>
    <path class="cls-9" d="M8.6,19.08c-.11,0-.2.09-.22.21,0,.12.09.22.2.22s.2-.09.22-.21c0-.12-.09-.21-.2-.22Z"/>
    <path class="cls-9" d="M8.04,19.11c-.09,0-.18.06-.19.17,0,.1.06.19.17.19s.18-.08.19-.18c0-.1-.08-.18-.17-.18Z"/>
    <path class="cls-9" d="M7.48,19.08c-.08,0-.15.05-.17.13s.04.16.13.16c.08,0,.15-.05.17-.13,0-.08-.05-.16-.13-.16Z"/>
  </g>
</svg>